<svg width="39" height="40" viewBox="0 0 39 40" fill="none" xmlns="http://www.w3.org/2000/svg">
<path fill-rule="evenodd" clip-rule="evenodd" d="M17.1982 0C26.6965 0 34.3964 7.9949 34.3964 17.8571C34.3964 27.7194 26.6965 35.7143 17.1982 35.7143C7.69988 35.7143 0 27.7194 0 17.8571C0 7.9949 7.69988 0 17.1982 0Z" fill="#0039A6"/>
<path fill-rule="evenodd" clip-rule="evenodd" d="M17.1937 20.7429C17.0226 20.7429 16.8506 20.7003 16.6936 20.6136C16.3437 20.4212 16.125 20.0442 16.125 19.6332V7.92512C16.125 7.31231 16.6033 6.81543 17.1937 6.81543C17.7839 6.81543 18.2625 7.31231 18.2625 7.92512V17.5394L23.342 13.9611C23.8312 13.6153 24.4959 13.7497 24.8265 14.2559C25.1579 14.7633 25.0312 15.4532 24.5426 15.7976L17.794 20.5513C17.6136 20.6788 17.4042 20.7429 17.1937 20.7429" fill="white"/>
<path fill-rule="evenodd" clip-rule="evenodd" d="M17.194 4.96044C16.7419 4.96044 16.375 4.59451 16.375 4.14383V3.22603C16.375 2.77535 16.7419 2.40942 17.194 2.40942C17.646 2.40942 18.0129 2.77535 18.0129 3.22603V4.14383C18.0129 4.59451 17.646 4.96044 17.194 4.96044" fill="#F0F0DC"/>
<path fill-rule="evenodd" clip-rule="evenodd" d="M17.194 33.3052C16.7419 33.3052 16.375 32.9395 16.375 32.4888V31.5705C16.375 31.1198 16.7419 30.7542 17.194 30.7542C17.646 30.7542 18.0129 31.1198 18.0129 31.5705V32.4888C18.0129 32.9395 17.646 33.3052 17.194 33.3052" fill="#F0F0DC"/>
<path fill-rule="evenodd" clip-rule="evenodd" d="M31.2876 18.7075H30.4037C29.9696 18.7075 29.6172 18.3266 29.6172 17.8572C29.6172 17.3878 29.9696 17.0068 30.4037 17.0068H31.2876C31.7216 17.0068 32.0741 17.3878 32.0741 17.8572C32.0741 18.3266 31.7216 18.7075 31.2876 18.7075" fill="#F0F0DC"/>
<path fill-rule="evenodd" clip-rule="evenodd" d="M3.98291 18.7075H3.09898C2.66465 18.7075 2.3125 18.3266 2.3125 17.8572C2.3125 17.3878 2.66465 17.0068 3.09898 17.0068H3.98291C4.41696 17.0068 4.76939 17.3878 4.76939 17.8572C4.76939 18.3266 4.41696 18.7075 3.98291 18.7075" fill="#F0F0DC"/>
<path fill-rule="evenodd" clip-rule="evenodd" d="M38.5207 29.2858C38.5207 35.2032 33.9008 40.0001 28.2017 40.0001C22.5027 40.0001 17.8828 35.2032 17.8828 29.2858C17.8828 23.3684 22.5027 18.5715 28.2017 18.5715C33.9008 18.5715 38.5207 23.3684 38.5207 29.2858Z" fill="#05BE50"/>
<path d="M26.8649 33.4179H25.7529V31.2574H22.0156V30.2656L25.7529 25.1535H26.8649V30.1476H27.9871V31.2574H26.8649V33.4179ZM25.7529 26.8182L23.3026 30.1476H25.7529V26.8182Z" fill="white"/>
<path d="M32.9672 29.026C33.4065 29.1913 33.7531 29.4589 34.0071 29.8288C34.2679 30.1987 34.3983 30.6277 34.3983 31.1157C34.3983 31.8792 34.1272 32.4774 33.585 32.9103C33.0427 33.351 32.377 33.5714 31.5876 33.5714C30.7983 33.5714 30.1291 33.351 29.58 32.9103C29.0378 32.4774 28.7666 31.8792 28.7666 31.1157C28.7666 30.6277 28.8971 30.1987 29.1579 29.8288C29.4187 29.4589 29.7687 29.1913 30.208 29.026C29.8717 28.8607 29.604 28.6206 29.405 28.3058C29.2128 27.9909 29.1167 27.6328 29.1167 27.2314C29.1167 26.5781 29.3501 26.0429 29.8168 25.6257C30.2835 25.2086 30.8738 25 31.5876 25C32.2946 25 32.8814 25.2086 33.3482 25.6257C33.8149 26.0429 34.0483 26.5781 34.0483 27.2314C34.0483 27.6328 33.9522 27.9909 33.76 28.3058C33.5678 28.6206 33.3036 28.8607 32.9672 29.026ZM30.589 28.2468C30.8566 28.4829 31.1895 28.6009 31.5876 28.6009C31.9857 28.6009 32.3152 28.4829 32.576 28.2468C32.8368 28.0106 32.9672 27.7076 32.9672 27.3377C32.9672 26.9677 32.8368 26.6647 32.576 26.4286C32.3152 26.1924 31.9857 26.0744 31.5876 26.0744C31.1895 26.0744 30.8566 26.1924 30.589 26.4286C30.3281 26.6647 30.1977 26.9677 30.1977 27.3377C30.1977 27.7076 30.3281 28.0106 30.589 28.2468ZM32.7613 32.0602C33.0771 31.7926 33.2349 31.4502 33.2349 31.0331C33.2349 30.6159 33.0771 30.2735 32.7613 30.0059C32.4593 29.7383 32.0681 29.6045 31.5876 29.6045C31.114 29.6045 30.7194 29.7383 30.4036 30.0059C30.0879 30.2735 29.93 30.6159 29.93 31.0331C29.93 31.4502 30.0879 31.7926 30.4036 32.0602C30.7262 32.3357 31.1209 32.4734 31.5876 32.4734C32.0475 32.4734 32.4387 32.3357 32.7613 32.0602Z" fill="white"/>
</svg>
