<?xml version="1.0" encoding="UTF-8"?>
<svg width="287px" height="200px" viewBox="0 0 287 200" version="1.1" xmlns="http://www.w3.org/2000/svg" xmlns:xlink="http://www.w3.org/1999/xlink">
    <title>Ilustracion</title>
    <defs>
        <polygon id="path-1" points="287 0 0 0 0 200 287 200"></polygon>
    </defs>
    <g id="Desktop-v2" stroke="none" stroke-width="1" fill="none" fill-rule="evenodd">
        <g id="D:-Cross-Selling-Cuenta" transform="translate(-168.000000, -144.000000)">
            <g id="02.Mensaje" transform="translate(87.000000, 144.000000)">
                <g id="Ilustracion" transform="translate(81.000000, 0.000000)">
                    <mask id="mask-2" fill="white">
                        <use xlink:href="#path-1"></use>
                    </mask>
                    <g id="Path"></g>
                    <g id="Group" mask="url(#mask-2)">
                        <g transform="translate(10.111111, 6.060606)">
                            <g id="Group" opacity="0.5" stroke="none" stroke-width="1" fill="none" fill-rule="evenodd">
                                <g opacity="0.2" transform="translate(48.592593, 0.000000)" fill-rule="nonzero">
                                    <polygon id="Path" fill="#B0F5C4" points="193.777333 3.17974242 2.78733704 3.17974242 2.78733704 173.980303 193.777333 173.980303"></polygon>
                                    <g opacity="0.4" transform="translate(15.703704, 18.181818)" fill="#FFFFFF" id="Path">
                                        <polygon points="89.7429259 8.33121212 89.093 9.73030303 88.4324444 8.33121212 89.093 6.93212121"></polygon>
                                        <polygon points="41.0031889 10.7633333 40.3430889 12.1624242 39.6831407 10.7633333 40.3430889 9.375"></polygon>
                                        <polygon points="155.901741 6.78060606 155.251815 8.17969697 154.592778 6.78060606 155.251815 5.38151515"></polygon>
                                        <polygon points="10.9620333 54.7386364 10.3019333 56.1377273 9.64198519 54.7386364 10.3019333 53.3395455"></polygon>
                                        <g transform="translate(10.111111, 0.000000)">
                                            <path d="M1.46212593,1.85227273 C1.43221111,1.85227273 1.41216667,1.84151515 1.39212222,1.80924242 L0.842114815,1.0019697 C0.802177778,0.937424242 0.802177778,0.840606061 0.842114815,0.786818182 C0.882203704,0.722272727 0.952207407,0.722272727 0.992144444,0.786818182 L1.54215185,1.59393939 C1.58208889,1.65848485 1.58208889,1.75530303 1.54215185,1.80924242 C1.51208519,1.83075758 1.48217037,1.85227273 1.46212593,1.85227273 Z"></path>
                                            <path d="M0.912118519,1.85227273 C0.882203704,1.85227273 0.862159259,1.84151515 0.842114815,1.80924242 C0.802177778,1.74454545 0.802177778,1.64772727 0.842114815,1.59393939 L1.39212222,0.786818182 C1.43221111,0.722272727 1.50206296,0.722272727 1.54215185,0.786818182 C1.58208889,0.851363636 1.58208889,0.948181818 1.54215185,1.0019697 L0.982122222,1.80924242 C0.962077778,1.83075758 0.942185185,1.85227273 0.912118519,1.85227273 Z"></path>
                                        </g>
                                        <g transform="translate(89.592593, 67.666667)">
                                            <path d="M1.70833333,1.61272727 C1.67948148,1.61272727 1.65822222,1.6019697 1.63848148,1.56969697 L1.08877778,0.762575758 C1.0492963,0.698030303 1.0492963,0.601060606 1.08877778,0.547272727 C1.12825926,0.482727273 1.19811111,0.482727273 1.23911111,0.547272727 L1.78881481,1.35454545 C1.8282963,1.41909091 1.8282963,1.51590909 1.78881481,1.56969697 C1.76907407,1.6019697 1.7387037,1.61272727 1.70833333,1.61272727 Z"></path>
                                            <path d="M1.15862963,1.61272727 C1.12825926,1.61272727 1.10851852,1.6019697 1.08877778,1.56969697 C1.0492963,1.50515152 1.0492963,1.40833333 1.08877778,1.35454545 L1.63848148,0.547272727 C1.67948148,0.482727273 1.74933333,0.482727273 1.78881481,0.547272727 C1.8282963,0.611818182 1.8282963,0.708787879 1.78881481,0.762575758 L1.23911111,1.56969697 C1.21937037,1.6019697 1.189,1.61272727 1.15862963,1.61272727 Z"></path>
                                        </g>
                                        <g transform="translate(31.888889, 60.090909)">
                                            <path d="M1.8036963,1.6319697 C1.77362963,1.6319697 1.75373704,1.62121212 1.73369259,1.58893939 L1.18368519,0.781818182 C1.14374815,0.717272727 1.14374815,0.62030303 1.18368519,0.566515152 C1.22377407,0.501969697 1.29377778,0.501969697 1.33371481,0.566515152 L1.88372222,1.37378788 C1.92365926,1.43833333 1.92365926,1.53515152 1.88372222,1.58893939 C1.86367778,1.61045455 1.83376296,1.6319697 1.8036963,1.6319697 Z"></path>
                                            <path d="M1.26264815,1.6319697 C1.23258148,1.6319697 1.21268889,1.62121212 1.19264444,1.58893939 C1.15255556,1.52439394 1.15255556,1.42757576 1.19264444,1.37378788 L1.74265185,0.566515152 C1.78258889,0.501969697 1.85259259,0.501969697 1.89268148,0.566515152 C1.93261852,0.631060606 1.93261852,0.728030303 1.89268148,0.781818182 L1.34267407,1.58893939 C1.31260741,1.61045455 1.28254074,1.6319697 1.26264815,1.6319697 Z"></path>
                                        </g>
                                        <g transform="translate(155.888889, 43.939394)">
                                            <path d="M1.19577778,2.02833333 C1.16540741,2.02833333 1.14566667,2.01757576 1.12592593,1.98530303 L0.574703704,1.1780303 C0.535222222,1.11348485 0.535222222,1.01666667 0.574703704,0.962878788 C0.615703704,0.898333333 0.685555556,0.898333333 0.725037037,0.962878788 L1.27474074,1.77 C1.31574074,1.83454545 1.31574074,1.93151515 1.27474074,1.98530303 C1.24588889,2.00681818 1.22462963,2.02833333 1.19577778,2.02833333 Z"></path>
                                            <path d="M0.644555556,2.02833333 C0.615703704,2.02833333 0.595962963,2.01757576 0.574703704,1.98530303 C0.535222222,1.92075758 0.535222222,1.82378788 0.574703704,1.77 L1.12592593,0.962878788 C1.16540741,0.898333333 1.23525926,0.898333333 1.27474074,0.962878788 C1.31574074,1.02742424 1.31574074,1.12424242 1.27474074,1.1780303 L0.725037037,1.98530303 C0.705296296,2.00681818 0.674925926,2.02833333 0.644555556,2.02833333 Z"></path>
                                        </g>
                                        <g transform="translate(128.555556, 7.575758)">
                                            <path d="M1.09707407,1.31515152 C1.0667037,1.31515152 1.04696296,1.30439394 1.02722222,1.27212121 L0.477518519,0.464848485 C0.438037037,0.40030303 0.438037037,0.303484848 0.477518519,0.24969697 C0.517,0.185151515 0.586851852,0.185151515 0.627851852,0.24969697 L1.17755556,1.05681818 C1.21703704,1.12136364 1.21703704,1.21833333 1.17755556,1.27212121 C1.14718519,1.29363636 1.12744444,1.31515152 1.09707407,1.31515152 Z"></path>
                                            <path d="M0.54737037,1.31515152 C0.517,1.31515152 0.497259259,1.30439394 0.477518519,1.27212121 C0.438037037,1.20757576 0.438037037,1.11060606 0.477518519,1.05681818 L1.02722222,0.24969697 C1.0667037,0.185151515 1.13807407,0.185151515 1.17755556,0.24969697 C1.21703704,0.314242424 1.21703704,0.411060606 1.17755556,0.464848485 L0.627851852,1.27212121 C0.606592593,1.29363636 0.577740741,1.31515152 0.54737037,1.31515152 Z"></path>
                                        </g>
                                        <g transform="translate(0.000000, 25.757576)">
                                            <path d="M1.11261852,1.59030303 C1.0827037,1.59030303 1.06265926,1.57954545 1.04261481,1.54727273 L0.492607407,0.740151515 C0.45267037,0.675606061 0.45267037,0.578636364 0.492607407,0.524848485 C0.532696296,0.46030303 0.6027,0.46030303 0.642637037,0.524848485 L1.19264444,1.33212121 C1.23273333,1.39666667 1.23273333,1.49348485 1.19264444,1.54727273 C1.16272963,1.57954545 1.14268519,1.59030303 1.11261852,1.59030303 Z"></path>
                                            <path d="M0.562611111,1.59030303 C0.532696296,1.59030303 0.512651852,1.57954545 0.492607407,1.54727273 C0.45267037,1.48272727 0.45267037,1.38590909 0.492607407,1.33212121 L1.04261481,0.524848485 C1.0827037,0.46030303 1.15270741,0.46030303 1.19264444,0.524848485 C1.23273333,0.589393939 1.23273333,0.686363636 1.19264444,0.740151515 L0.642637037,1.54727273 C0.622744444,1.57954545 0.592677778,1.59030303 0.562611111,1.59030303 Z"></path>
                                        </g>
                                    </g>
                                    <polygon id="Path" fill="#33C95A" opacity="0.5" points="193.777333 55.3443939 2.78733704 55.3443939 2.78733704 57.6045455 193.777333 57.6045455"></polygon>
                                    <polygon id="Path" fill="#33C95A" opacity="0.5" points="193.777333 96.2416667 2.78733704 96.2416667 2.78733704 98.5018182 193.777333 98.5018182"></polygon>
                                    <path d="M195.055926,176.293939 L1.50616296,176.293939 L1.50616296,0.865590909 L195.055926,0.865590909 L195.055926,176.293939 Z M4.06608148,171.665152 L192.495704,171.665152 L192.495704,5.49343939 L4.06608148,5.49343939 L4.06608148,171.665152 Z" id="Shape" fill="#34C78C"></path>
                                    <path d="M194.955704,176.110606 L0.0262148148,176.110606 L0.0262148148,1.04906061 L194.955704,1.04906061 L194.955704,176.110606 Z M2.58613333,171.483333 L192.395481,171.483333 L192.395481,5.67692424 L2.58613333,5.67692424 L2.58613333,171.483333 Z" id="Shape" fill="#33C95A" opacity="0.4"></path>
                                </g>
                                <g transform="translate(20.259259, 21.212121)" fill-rule="nonzero" opacity="0.2">
                                    <polygon id="Path" fill="#56CC81" points="16.6877593 0.124242424 0.367785185 0.124242424 0.367785185 19.9810606 16.6877593 19.9810606"></polygon>
                                    <path d="M15.8178,1.06060606 L15.8178,19.0554545 L1.23774444,19.0554545 L1.23774444,1.06060606 L15.8178,1.06060606 Z M16.6877593,0.124242424 L0.367785185,0.124242424 L0.367785185,19.9810606 L16.6877593,19.9810606 L16.6877593,0.124242424 Z" id="Shape" fill="#10995B"></path>
                                </g>
                                <g transform="translate(0.000000, 30.303030)" fill-rule="nonzero" opacity="0.2">
                                    <polygon id="Path" fill="#56CC81" points="16.7080519 0.202727273 0.388017037 0.202727273 0.388017037 20.0593939 16.7080519 20.0593939"></polygon>
                                    <path d="M15.8380926,1.13909091 L15.8380926,19.1337879 L1.25802185,19.1337879 L1.25802185,1.13909091 L15.8380926,1.13909091 Z M16.7080519,0.202727273 L0.388017037,0.202727273 L0.388017037,20.0593939 L16.7080519,20.0593939 L16.7080519,0.202727273 Z" id="Shape" fill="#10995B"></path>
                                </g>
                                <polygon id="Path" fill="#90E8B0" fill-rule="nonzero" opacity="0.2" points="65.8983333 33.3140909 58.3883481 33.3140909 58.3883481 55.6677273 65.8983333 55.6677273"></polygon>
                                <g opacity="0.2" transform="translate(65.814815, 24.242424)" fill-rule="nonzero" id="Path">
                                    <path d="M0.0841259259,31.4254545 L8.96411852,31.4254545 L8.96411852,2.01166667 C8.96411852,1.06454545 8.25421111,0.30030303 7.37407778,0.30030303 L1.66414444,0.30030303 C0.784162963,0.30030303 0.0741037037,1.06454545 0.0741037037,2.01166667 L0.0741037037,31.4254545 L0.0841259259,31.4254545 Z" fill="#56CC81"></path>
                                    <polygon fill="#10995B" points="8.96305556 4.54106061 0.083062963 4.54106061 0.083062963 7.56530303 8.96305556 7.56530303"></polygon>
                                    <polygon fill="#90E8B0" points="8.96305556 25.5489394 0.083062963 25.5489394 0.083062963 28.5731818 8.96305556 28.5731818"></polygon>
                                </g>
                                <polygon id="Path" fill="#00BB31" fill-rule="nonzero" opacity="0.2" points="82.2875519 33.3140909 74.7775667 33.3140909 74.7775667 55.6677273 82.2875519 55.6677273"></polygon>
                                <path d="M82.2872481,55.6681818 L91.8372111,55.6681818 L91.8372111,30.3333333 C91.8372111,29.3863636 91.1271519,28.6221212 90.2471704,28.6221212 L83.877137,28.6221212 C82.9971556,28.6221212 82.2872481,29.3863636 82.2872481,30.3333333 L82.2872481,55.6681818 Z" id="Path" fill="#56CC81" fill-rule="nonzero" opacity="0.2"></path>
                                <polygon id="Path" fill="#90E8B0" fill-rule="nonzero" opacity="0.2" points="98.8993852 33.3140909 91.3894 33.3140909 91.3894 55.6677273 98.8993852 55.6677273"></polygon>
                                <g opacity="0.2" transform="translate(98.703704, 24.242424)" fill-rule="nonzero" id="Path">
                                    <path d="M0.196288889,31.4254545 L9.07628148,31.4254545 L9.07628148,2.01166667 C9.07628148,1.06454545 8.36637407,0.30030303 7.48639259,0.30030303 L1.77630741,0.30030303 C0.896325926,0.30030303 0.186266667,1.06454545 0.186266667,2.01166667 L0.186266667,31.4254545 L0.196288889,31.4254545 Z" fill="#56CC81"></path>
                                    <polygon fill="#10995B" points="9.07521852 4.54106061 0.195225926 4.54106061 0.195225926 7.56530303 9.07521852 7.56530303"></polygon>
                                    <polygon fill="#90E8B0" points="9.07521852 25.5489394 0.195225926 25.5489394 0.195225926 28.5731818 9.07521852 28.5731818"></polygon>
                                </g>
                                <polygon id="Path" fill="#10995B" fill-rule="nonzero" opacity="0.2" points="115.288756 33.3140909 107.77877 33.3140909 107.77877 55.6677273 115.288756 55.6677273"></polygon>
                                <path d="M115.2883,55.6681818 L124.838263,55.6681818 L124.838263,30.3333333 C124.838263,29.3863636 124.128356,28.6221212 123.248222,28.6221212 L116.878341,28.6221212 C115.998207,28.6221212 115.2883,29.3863636 115.2883,30.3333333 L115.2883,55.6681818 Z" id="Path" fill="#56CC81" fill-rule="nonzero" opacity="0.2"></path>
                                <polygon id="Path" fill="#90E8B0" fill-rule="nonzero" opacity="0.2" points="123.447756 32.6586364 115.93777 32.6586364 115.93777 55.0122727 123.447756 55.0122727"></polygon>
                                <g opacity="0.2" transform="translate(123.000000, 23.727273)" fill-rule="nonzero" id="Path">
                                    <path d="M0.448362963,31.285 L9.32850741,31.285 L9.32850741,1.87121212 C9.32850741,0.924242424 8.61844815,0.16 7.73846667,0.16 L2.02838148,0.16 C1.1484,0.16 0.438492593,0.924242424 0.438492593,1.87121212 L0.438492593,31.285 L0.448362963,31.285 Z" fill="#56CC81"></path>
                                    <polygon fill="#10995B" points="9.32729259 4.40075758 0.4473 4.40075758 0.4473 7.425 9.32729259 7.425"></polygon>
                                    <polygon fill="#90E8B0" points="9.32729259 25.4086364 0.4473 25.4086364 0.4473 28.4328788 9.32729259 28.4328788"></polygon>
                                </g>
                                <polygon id="Path" fill="#10995B" fill-rule="nonzero" opacity="0.2" points="139.837126 32.6586364 132.327141 32.6586364 132.327141 55.0122727 139.837126 55.0122727"></polygon>
                                <path d="M139.83667,55.0127273 L149.386481,55.0127273 L149.386481,29.6778788 C149.386481,28.7307576 148.677333,27.9666667 147.796593,27.9666667 L141.426711,27.9666667 C140.54673,27.9666667 139.83667,28.7307576 139.83667,29.6778788 L139.83667,55.0127273 Z" id="Path" fill="#56CC81" fill-rule="nonzero" opacity="0.2"></path>
                                <polygon id="Path" fill="#90E8B0" fill-rule="nonzero" opacity="0.2" points="155.897889 33.3140909 148.387296 33.3140909 148.387296 55.6677273 155.897889 55.6677273"></polygon>
                                <g opacity="0.2" transform="translate(155.407407, 24.242424)" fill-rule="nonzero" id="Path">
                                    <path d="M0.490481481,31.4254545 L9.37077778,31.4254545 L9.37077778,2.01166667 C9.37077778,1.06454545 8.66011111,0.30030303 7.78088889,0.30030303 L2.06974074,0.30030303 C1.19051852,0.30030303 0.479851852,1.06454545 0.479851852,2.01166667 L0.479851852,31.4254545 L0.490481481,31.4254545 Z" fill="#56CC81"></path>
                                    <polygon fill="#10995B" points="9.36925926 4.54106061 0.488962963 4.54106061 0.488962963 7.56530303 9.36925926 7.56530303"></polygon>
                                    <polygon fill="#90E8B0" points="9.36925926 25.5489394 0.488962963 25.5489394 0.488962963 28.5731818 9.36925926 28.5731818"></polygon>
                                </g>
                                <polygon id="Path" fill="#10995B" fill-rule="nonzero" opacity="0.2" points="172.287259 33.3140909 164.776667 33.3140909 164.776667 55.6677273 172.287259 55.6677273"></polygon>
                                <path d="M172.285741,55.6681818 L181.835704,55.6681818 L181.835704,30.3333333 C181.835704,29.3863636 181.126556,28.6221212 180.245815,28.6221212 L173.87563,28.6221212 C172.996407,28.6221212 172.285741,29.3863636 172.285741,30.3333333 L172.285741,55.6681818 Z" id="Path" fill="#56CC81" fill-rule="nonzero" opacity="0.2"></path>
                                <polygon id="Path" fill="#90E8B0" fill-rule="nonzero" opacity="0.2" points="190.896704 33.3140909 183.38763 33.3140909 183.38763 55.6677273 190.896704 55.6677273"></polygon>
                                <g opacity="0.2" transform="translate(190.333333, 24.242424)" fill-rule="nonzero" id="Path">
                                    <path d="M0.564888889,31.4254545 L9.44518519,31.4254545 L9.44518519,2.01166667 C9.44518519,1.06454545 8.73451852,0.30030303 7.8552963,0.30030303 L2.14414815,0.30030303 C1.26492593,0.30030303 0.554259259,1.06454545 0.554259259,2.01166667 L0.554259259,31.4254545 L0.564888889,31.4254545 Z" fill="#56CC81"></path>
                                    <polygon fill="#10995B" points="9.44366667 4.54106061 0.56337037 4.54106061 0.56337037 7.56530303 9.44366667 7.56530303"></polygon>
                                    <polygon fill="#90E8B0" points="9.44366667 25.5489394 0.56337037 25.5489394 0.56337037 28.5731818 9.44366667 28.5731818"></polygon>
                                </g>
                                <polygon id="Path" fill="#00BB31" fill-rule="nonzero" opacity="0.2" points="207.286074 33.3140909 199.777 33.3140909 199.777 55.6677273 207.286074 55.6677273"></polygon>
                                <path d="M207.286074,55.6681818 L216.836037,55.6681818 L216.836037,30.3333333 C216.836037,29.3863636 216.126889,28.6221212 215.246148,28.6221212 L208.875963,28.6221212 C207.996741,28.6221212 207.286074,29.3863636 207.286074,30.3333333 L207.286074,55.6681818 Z" id="Path" fill="#56CC81" fill-rule="nonzero" opacity="0.2"></path>
                                <polygon id="Path" fill="#90E8B0" fill-rule="nonzero" opacity="0.2" points="200.897667 74.2113636 193.388593 74.2113636 193.388593 96.565 200.897667 96.565"></polygon>
                                <g opacity="0.2" transform="translate(200.444444, 65.151515)" fill-rule="nonzero" id="Path">
                                    <path d="M0.454740741,31.4134848 L9.33503704,31.4134848 L9.33503704,1.99969697 C9.33503704,1.05272727 8.62437037,0.288484848 7.74362963,0.288484848 L2.034,0.288484848 C1.15477778,0.288484848 0.444111111,1.05272727 0.444111111,1.99969697 L0.444111111,31.4134848 L0.454740741,31.4134848 Z" fill="#56CC81"></path>
                                    <polygon fill="#10995B" points="9.33351852 4.52924242 0.453222222 4.52924242 0.453222222 7.55348485 9.33351852 7.55348485"></polygon>
                                    <polygon fill="#90E8B0" points="9.33351852 25.5371212 0.453222222 25.5371212 0.453222222 28.5613636 9.33351852 28.5613636"></polygon>
                                </g>
                                <polygon id="Path" fill="#00BB31" fill-rule="nonzero" opacity="0.2" points="217.287037 74.2113636 209.777963 74.2113636 209.777963 96.565 217.287037 96.565"></polygon>
                                <path d="M217.287037,96.5654545 L226.837,96.5654545 L226.837,71.2306061 C226.837,70.2834848 226.126333,69.5193939 225.247111,69.5193939 L218.876926,69.5193939 C217.997704,69.5193939 217.287037,70.2834848 217.287037,71.2306061 L217.287037,96.5654545 Z" id="Path" fill="#56CC81" fill-rule="nonzero" opacity="0.2"></path>
                                <polygon id="Path" fill="#90E8B0" fill-rule="nonzero" opacity="0.2" points="151.89963 74.2113636 144.389037 74.2113636 144.389037 96.565 151.89963 96.565"></polygon>
                                <g opacity="0.2" transform="translate(151.851852, 65.151515)" fill-rule="nonzero" id="Path">
                                    <path d="M0.0477777778,31.4134848 L8.92807407,31.4134848 L8.92807407,1.99969697 C8.92807407,1.05272727 8.21740741,0.288484848 7.33818519,0.288484848 L1.62855556,0.288484848 C0.747814815,0.288484848 0.0386666667,1.05272727 0.0386666667,1.99969697 L0.0386666667,31.4134848 L0.0477777778,31.4134848 Z" fill="#56CC81"></path>
                                    <polygon fill="#10995B" points="8.92655556 4.52924242 0.0462592593 4.52924242 0.0462592593 7.55348485 8.92655556 7.55348485"></polygon>
                                    <polygon fill="#90E8B0" points="8.92655556 25.5371212 0.0462592593 25.5371212 0.0462592593 28.5613636 8.92655556 28.5613636"></polygon>
                                </g>
                                <polygon id="Path" fill="#00BB31" fill-rule="nonzero" opacity="0.2" points="168.289 74.2113636 160.778407 74.2113636 160.778407 96.565 168.289 96.565"></polygon>
                                <path d="M168.287481,96.5654545 L177.837444,96.5654545 L177.837444,71.2306061 C177.837444,70.2834848 177.128296,69.5193939 176.247556,69.5193939 L169.87737,69.5193939 C168.998148,69.5193939 168.287481,70.2834848 168.287481,71.2306061 L168.287481,96.5654545 Z" id="Path" fill="#56CC81" fill-rule="nonzero" opacity="0.2"></path>
                                <polygon id="Path" fill="#90E8B0" fill-rule="nonzero" opacity="0.2" points="64.8988444 74.2113636 57.3888593 74.2113636 57.3888593 96.565 64.8988444 96.565"></polygon>
                                <g opacity="0.2" transform="translate(64.296296, 65.151515)" fill-rule="nonzero" id="Path">
                                    <path d="M0.603155556,31.4134848 L9.48314815,31.4134848 L9.48314815,1.99969697 C9.48314815,1.05272727 8.77324074,0.288484848 7.89310741,0.288484848 L2.18317407,0.288484848 C1.30319259,0.288484848 0.593133333,1.05272727 0.593133333,1.99969697 L0.593133333,31.4134848 L0.603155556,31.4134848 Z" fill="#56CC81"></path>
                                    <polygon fill="#10995B" points="9.48208519 4.52924242 0.602092593 4.52924242 0.602092593 7.55348485 9.48208519 7.55348485"></polygon>
                                    <polygon fill="#90E8B0" points="9.48208519 25.5371212 0.602092593 25.5371212 0.602092593 28.5613636 9.48208519 28.5613636"></polygon>
                                </g>
                                <polygon id="Path" fill="#10995B" fill-rule="nonzero" opacity="0.2" points="81.288063 74.2113636 73.7780778 74.2113636 73.7780778 96.565 81.288063 96.565"></polygon>
                                <path d="M81.2877593,96.5654545 L90.8377222,96.5654545 L90.8377222,71.2306061 C90.8377222,70.2834848 90.127663,69.5193939 89.2476815,69.5193939 L82.8776481,69.5193939 C81.9976667,69.5193939 81.2877593,70.2834848 81.2877593,71.2306061 L81.2877593,96.5654545 Z" id="Path" fill="#56CC81" fill-rule="nonzero" opacity="0.2"></path>
                                <polygon id="Path" fill="#90E8B0" fill-rule="nonzero" opacity="0.2" points="208.449259 113.375909 200.938667 113.375909 200.938667 135.729545 208.449259 135.729545"></polygon>
                                <g opacity="0.2" transform="translate(208.037037, 104.545455)" fill-rule="nonzero" id="Path">
                                    <path d="M0.412222222,31.1842424 L9.29251852,31.1842424 L9.29251852,1.77045455 C9.29251852,0.823333333 8.58337037,0.0592424242 7.70262963,0.0592424242 L1.993,0.0592424242 C1.11225926,0.0592424242 0.403111111,0.823333333 0.403111111,1.77045455 L0.403111111,31.1842424 L0.412222222,31.1842424 Z" fill="#56CC81"></path>
                                    <polygon fill="#10995B" points="9.291 4.29984848 0.412222222 4.29984848 0.412222222 7.32409091 9.291 7.32409091"></polygon>
                                    <polygon fill="#90E8B0" points="9.291 25.3077273 0.412222222 25.3077273 0.412222222 28.3319697 9.291 28.3319697"></polygon>
                                </g>
                                <polygon id="Path" fill="#00BB31" fill-rule="nonzero" opacity="0.2" points="224.83863 113.375909 217.328037 113.375909 217.328037 135.729545 224.83863 135.729545"></polygon>
                                <path d="M224.83863,135.730152 L234.388593,135.730152 L234.388593,110.395303 C234.388593,109.448182 233.677926,108.683939 232.798704,108.683939 L226.428519,108.683939 C225.547778,108.683939 224.83863,109.448182 224.83863,110.395303 L224.83863,135.730152 Z" id="Path" fill="#56CC81" fill-rule="nonzero" opacity="0.2"></path>
                            </g>
                            <path d="M154.418852,206.621212 C188.239296,198.851515 102.958841,135.976515 127.868922,168.856061 C135.118937,178.434848 148.999259,142.552424 148.999259,187.248485 C148.999259,193.642424 170.419481,207.589394 169.449148,205.642424 L204.209556,205.642424 C204.648407,201.519697 204.909593,197.257576 204.098704,193.10303 C191.988519,130.530758 164.579259,74.9319697 106.508833,74.9319697 C66.8988852,74.9319697 48.5289111,111.104545 41.6989185,137.365 C37.9288926,151.862121 38.8688556,172.268182 42.3889333,186.828788 C43.4488593,191.219697 44.7988222,195.321212 46.4688889,198.119697 C52.4389444,208.106061 63.7689148,213.165152 74.8688296,210.862121 L92.4288259,207.6 C118.728807,207.589394 148.408556,207.998485 154.418852,206.621212 Z" id="Path" stroke="none" fill="#66D683" fill-rule="nonzero"></path>
                            <path d="M88.2284519,202.381818 C80.8584741,200.357576 48.9083889,126.193788 88.768437,90.6560606 C91.5884778,88.1377273 95.7883963,86.5448485 100.398467,86.2219697 C102.078404,86.1036364 103.90837,86.0928788 105.878496,86.1789394 C137.998504,87.5672727 164.577741,113.580152 169.377778,147.783333 L176.748667,200.293939 L94.3184704,201.262121" id="Path" stroke="none" fill="#001F60" fill-rule="nonzero" opacity="0.1"></path>
                            <path d="M132.810333,92.9375758 C132.500252,86.8243939 141.170385,89.3751515 146.030556,84.1769697 L129.360259,71.4233333 L113.460307,65.6116667 C112.450341,73.920303 109.980319,79.0539394 105.160389,87.2334848 C102.540337,91.6783333 97.6502519,96.2631818 97.6502519,96.2631818 L115.920307,108.04803 L141.450248,105.91697 C141.450248,105.906212 133.110393,98.9 132.810333,92.9375758 Z" id="Path" stroke="none" fill="#F6BD68" fill-rule="nonzero"></path>
                            <path d="M113.659537,64.0295455 C113.659537,64.0295455 109.379441,35.8533333 110.069456,38.4901515 C110.369515,39.6633333 108.289448,25.5536364 116.509493,19.709697 C124.579507,13.9733333 137.119433,10.5077273 147.618926,15.404697 C158.119481,20.3016667 175.309111,27.3510606 164.378815,44.8077273 C153.450037,62.2751515 113.659537,64.0295455 113.659537,64.0295455 Z" id="Path" stroke="none" fill="#001F60" fill-rule="nonzero"></path>
                            <path d="M163.059222,49.8125758 C167.349037,38.5012121 160.019148,31.0751515 148.479926,26.275 C133.199226,19.9251515 121.569348,26.7163636 117.089263,39.2007576 C116.779333,40.0725758 114.24933,55.5489394 114.139237,56.4745455 C112.449278,70.7669697 113.329259,79.7751515 124.919352,84.5860606 C135.899304,89.1493939 148.968889,89.6228788 154.608667,73.8559091 C158.86963,61.9525758 158.769407,61.1239394 163.059222,49.8125758 Z" id="Path" stroke="none" fill="#F6BD68" fill-rule="nonzero"></path>
                            <path d="M148.800333,67.7648485 C148.410074,67.7863636 147.969704,67.7540909 147.459481,67.6463636 C145.099704,67.1298485 144.029148,65.0633333 144.349556,63.3628788 C144.439148,62.8678788 144.890148,62.545 145.35937,62.6418182 C145.819481,62.7387879 146.120148,63.2230303 146.029037,63.7289394 C145.880222,64.5468182 146.499778,65.5692424 147.810259,65.8490909 C148.589259,66.0212121 149.219444,65.9459091 149.629444,65.6230303 C150.080444,65.2893939 150.209519,64.7406061 150.249,64.4392424 C150.370481,63.599697 150.159407,62.9216667 149.919481,62.1360606 C149.769148,61.6624242 149.620333,61.1674242 149.539852,60.6184848 C148.899037,56.2381818 150.189778,50.7063636 153.450037,49.0381818 C154.759,48.3709091 156.300296,48.5968182 156.900111,48.7260606 C157.059556,48.7583333 157.220519,48.7906061 157.379963,48.8228788 C158.239444,48.995 159.129296,49.1672727 159.929556,49.8668182 C160.300074,50.189697 160.359296,50.7601515 160.060148,51.1583333 C159.759481,51.5565152 159.229519,51.6210606 158.860519,51.2981818 C158.389778,50.9 157.809704,50.7816667 157.070185,50.6309091 C156.900111,50.5986364 156.730037,50.5663636 156.559963,50.5233333 C155.869037,50.3727273 154.880481,50.340303 154.189556,50.6956061 C151.679444,51.9869697 150.7,56.7009091 151.229963,60.3386364 C151.289185,60.7477273 151.409148,61.1459091 151.539741,61.5763636 C151.810037,62.4589394 152.109185,63.4490909 151.939111,64.7189394 C151.799407,65.7415152 151.330185,66.5916667 150.610407,67.1406061 C150.220148,67.4204545 149.629444,67.7109091 148.800333,67.7648485 Z" id="Path" stroke="none" fill="#FB9301" fill-rule="nonzero"></path>
                            <path d="M149.04937,43.8066667 C148.739593,43.8281818 148.438926,43.6668182 148.268852,43.3654545 C147.688778,42.3213636 146.949259,41.4927273 146.068519,40.9007576 C145.31837,40.395 144.168852,39.8998485 143.198519,39.9859091 C142.738407,40.0290909 142.319296,39.6631818 142.269185,39.1572727 C142.228185,38.6515152 142.568333,38.2101515 143.039074,38.1563636 C144.799037,37.995 146.489148,39.0174242 146.95837,39.340303 C148.068407,40.0828788 148.999259,41.1160606 149.728148,42.4183333 C149.969593,42.8487879 149.839,43.4192424 149.43963,43.6775758 C149.318148,43.7636364 149.189074,43.8066667 149.04937,43.8066667 Z" id="Path" stroke="none" fill="#262C61" fill-rule="nonzero"></path>
                            <path d="M161.549815,54.1063636 C161.240037,54.1278788 160.93937,53.9665152 160.769296,53.6651515 C160.189222,52.6212121 159.449704,51.7924242 158.570481,51.2006061 C157.820333,50.694697 156.669296,50.1889394 155.700481,50.2857576 C155.229741,50.3287879 154.819741,49.9628788 154.76963,49.4571212 C154.730148,48.9512121 155.070296,48.51 155.539519,48.4562121 C157.29037,48.294697 158.989593,49.3171212 159.460333,49.64 C160.57037,50.3825758 161.499704,51.4157576 162.230111,52.7180303 C162.470037,53.1486364 162.339444,53.7189394 161.940074,53.9772727 C161.809481,54.0525758 161.680407,54.0956061 161.549815,54.1063636 Z" id="Path" stroke="none" fill="#262C61" fill-rule="nonzero"></path>
                            <path d="M143.558407,52.9010606 C143.26837,52.9225758 142.988963,52.7504545 142.867481,52.4490909 C141.12817,48.1978788 137.098174,48.3809091 137.058237,48.3916667 C136.668281,48.4131818 136.328285,48.090303 136.308241,47.6704545 C136.288196,47.2507576 136.588256,46.8848485 136.978211,46.8633333 C137.02817,46.8633333 142.03837,46.6265152 144.168852,51.8356061 C144.328296,52.2230303 144.158222,52.675 143.808963,52.8472727 C143.728481,52.8795455 143.648,52.890303 143.558407,52.9010606 Z" id="Path" stroke="none" fill="#262C61" fill-rule="nonzero"></path>
                            <path d="M159.068556,59.4133333 C158.82863,59.4240909 158.588704,59.3163636 158.449,59.0904545 C156.889481,56.6795455 153.768926,57.1209091 153.738556,57.1316667 C153.349815,57.1962121 152.989926,56.8948485 152.939815,56.4859091 C152.879074,56.0660606 153.14937,55.6786364 153.53963,55.6248485 C153.699074,55.6033333 157.559148,55.0328788 159.619778,58.2293939 C159.839963,58.5737879 159.768593,59.0581818 159.439074,59.2948485 C159.329741,59.3593939 159.199148,59.4025758 159.068556,59.4133333 Z" id="Path" stroke="none" fill="#262C61" fill-rule="nonzero"></path>
                            <path d="M120.57973,48.7259091 C121.459711,46.2721212 120.399785,43.5492424 118.11973,42.6021212 C115.839674,41.655 113.169663,42.8281818 112.289681,45.2819697 C111.429744,47.6712121 112.799752,50.480303 114.549693,51.319697 L118.759785,52.9663636 C118.759785,52.9556061 120.449744,49.070303 120.57973,48.7259091 Z" id="Path" stroke="none" fill="#F6BD68" fill-rule="nonzero"></path>
                            <path d="M116.608196,48.5745455 C117.381426,48.5745455 118.008119,47.9 118.008119,47.0678788 C118.008119,46.2356061 117.381426,45.5610606 116.608196,45.5610606 C115.834967,45.5610606 115.208122,46.2356061 115.208122,47.0678788 C115.208122,47.9 115.834967,48.5745455 116.608196,48.5745455 Z" id="Path" stroke="none" fill="#FB9301" fill-rule="nonzero"></path>
                            <path d="M119.760185,41.8380303 L122.530115,35.7895455 L127.670148,37.4362121 C127.670148,37.4362121 121.550063,50.7278788 118.340067,51.3628788 L119.3801,43.1510606 C119.440081,42.6990909 119.570067,42.2577273 119.760185,41.8380303 Z" id="Path" stroke="none" fill="#3C4B99" fill-rule="nonzero"></path>
                            <path d="M146.240111,73.6406061 C142.619963,72.9733333 130.970496,63.5022727 129.460481,60.1443939 C129.460481,60.1443939 126.13037,69.5615152 132.260478,74.6090909 C138.510396,79.7643939 146.240111,73.6406061 146.240111,73.6406061 Z" id="Path" stroke="none" fill="#333366" fill-rule="nonzero"></path>
                            <path d="M130.450859,61.63 C130.1508,64.8048485 130.540756,69.1528788 134.070856,72.0695455 C137.690852,75.0615152 141.821222,74.2543939 144.641111,73.0489394 C140.800778,70.950303 133.8408,65.1277273 130.450859,61.63 Z" id="Path" stroke="none" fill="#FFFFFF" fill-rule="nonzero"></path>
                            <path d="M132.060033,74.7387879 C134.000093,76.3424242 136.490159,76.8590909 138.2401,76.665303 C135.22007,74.6957576 131.550115,71.725303 128.940085,69.174697 C129.270059,71.1010606 130.19013,73.2106061 132.060033,74.7387879 Z" id="Path" stroke="none" fill="#FFFFFF" fill-rule="nonzero"></path>
                            <path d="M126.859715,57.8839394 C126.709837,57.894697 126.549785,57.8409091 126.429822,57.7116667 C126.199767,57.475 126.199767,57.0874242 126.4198,56.8507576 C128.039756,55.0533333 130.499756,55.5162121 130.599826,55.5377273 C130.909756,55.6022727 131.109744,55.9143939 131.059785,56.2480303 C130.999804,56.5816667 130.709767,56.7969697 130.399685,56.7430303 C130.359748,56.7322727 128.429711,56.3878788 127.2398,57.7009091 C127.129707,57.8086364 126.999722,57.8731818 126.859715,57.8839394 Z" id="Path" stroke="none" fill="#FB9301" fill-rule="nonzero"></path>
                            <path d="M124.260011,15.5775758 C124.260011,15.5775758 129.219948,20.6036364 131.009978,24.9839394 C132.96993,29.7731818 130.550019,26.6951515 140.819911,27.4592424 C145.40037,27.8036364 147.699407,28.2772727 154.989815,37.0378788 C159.850593,42.8818182 160.459519,44.4101515 164.489667,44.4426807 C173.609889,44.5069697 177.589926,32.3669697 175.249889,32.1516667 C167.239704,31.3983333 159.789852,8.50660606 142.689815,8.34516667 C125.02003,8.1729697 124.260011,15.5775758 124.260011,15.5775758 Z" id="Path" stroke="none" fill="#001F60" fill-rule="nonzero"></path>
                            <path d="M133.700793,32.7977273 C133.700793,32.7977273 128.150911,36.5430303 127.140793,38.5771212 C126.130826,40.6113636 119.720856,48.9630303 119.720856,48.9630303 C119.720856,48.9630303 122.220793,43.6140909 116.490815,42.2687879 C116.490815,42.2687879 113.310885,35.2409091 117.070889,30.7313636 C120.830893,26.2219697 123.440922,21.7662121 127.450874,22.1428788 C131.460826,22.5195455 133.700793,32.7977273 133.700793,32.7977273 Z" id="Path" stroke="none" fill="#001F60" fill-rule="nonzero"></path>
                            <path d="M143.900074,105.702424 C143.869704,105.659394 143.880333,105.691667 143.889444,105.702424 L143.919815,105.745455 L143.989667,105.863939 L144.159741,106.132879 L144.55,106.714091 L145.389741,107.908788 C145.969815,108.715909 146.56963,109.52303 147.180074,110.319545 C148.410074,111.912424 149.679556,113.472879 150.990037,114.958182 C153.60037,117.939394 156.359519,120.662273 159.100444,122.868485 C161.830741,125.074848 164.589889,126.710758 166.770481,127.474848 C167.320185,127.679394 167.819778,127.819242 168.279889,127.916212 C168.74,128.01303 169.16063,128.088333 169.540259,128.099091 C170.310148,128.142121 170.979815,128.077576 171.760333,127.797727 C172.540852,127.507121 173.450444,126.969091 174.410148,126.075758 L174.770037,125.731364 C174.830778,125.666818 174.89,125.634545 174.959852,125.548333 L175.190667,125.290152 L176.10937,124.278485 C176.429778,123.944848 176.689444,123.578788 176.979481,123.234394 C177.260407,122.879242 177.570185,122.545606 177.820741,122.179697 C179.999815,119.31697 181.759778,116.206515 182.959407,112.837879 C184.189407,109.48 184.880333,105.853182 184.989667,102.09697 C185.039778,100.224394 184.969926,98.3193939 184.74063,96.4359091 C184.629778,95.499697 184.479444,94.5633333 184.28963,93.6592424 C184.200037,93.2072727 184.099815,92.7659091 183.999593,92.3462121 L183.850778,91.7542424 L183.779407,91.4960606 C183.770296,91.4636364 183.759667,91.4098485 183.750556,91.3990909 C183.750556,91.3883333 183.730815,91.3130303 183.779407,91.4206061 C181.82963,87.0080303 183.580481,81.7343939 187.680481,79.6357576 C191.780481,77.5371212 196.680741,79.4204545 198.630519,83.8331818 L198.970667,84.5757576 L199.219704,85.1462121 C199.380667,85.5228788 199.52037,85.8672727 199.660074,86.2331818 C199.93037,86.9434848 200.190037,87.6430303 200.420852,88.3318182 C200.890074,89.7309091 201.300074,91.1192424 201.650852,92.5292424 C202.36,95.3489394 202.839852,98.2225758 203.120778,101.139091 C203.679593,106.972424 203.319704,113.020909 202.010741,118.875606 C200.72,124.730455 198.460444,130.32697 195.570704,135.363788 C195.219926,136.009545 194.829667,136.612121 194.460667,137.225606 C194.070407,137.828333 193.710519,138.463333 193.300519,139.044545 C192.480519,140.228333 191.760741,141.347727 190.640074,142.703788 C188.539963,145.297424 185.920519,147.793939 182.769593,149.784848 C179.630815,151.787879 175.969667,153.19697 172.310037,153.789394 C170.480222,154.101515 168.659519,154.209091 166.890444,154.177273 C165.119852,154.143939 163.41,153.960606 161.77,153.671212 C160.13,153.380303 158.550741,152.992424 157.050444,152.530303 C155.539519,152.066667 154.090852,151.539394 152.710519,150.948485 C149.930111,149.784848 147.380519,148.418182 144.979741,146.965152 C140.170137,144.038333 135.940152,140.734242 131.980159,137.225606 C130.000163,135.471364 128.100193,133.652576 126.250181,131.769091 C125.320089,130.832727 124.410193,129.874848 123.500144,128.884697 L122.140159,127.367273 L121.450144,126.570758 L121.090104,126.140303 L120.900137,125.914394 L120.650189,125.602273 C115.54007,118.692727 116.61017,108.629848 123.040185,103.130152 C129.440133,97.6413636 138.790107,98.7928788 143.900074,105.702424 Z" id="Path" stroke="none" fill="#6AAAE4" fill-rule="nonzero"></path>
                            <path d="M101.309426,92.4212121 C101.309426,92.4212121 124.0295,110.631364 135.869541,97.0490909 C135.869541,97.0490909 148.839815,105.476212 153.57,130.940152 C158.300185,156.415152 174.03963,174.474242 182.499296,172.751515 C182.499296,172.751515 174.609074,196.525758 125.97943,203.715152 C125.97943,203.715152 109.099426,207.783333 107.389422,207.890909 C107.389422,207.880303 48.6494815,129.228939 101.309426,92.4212121 Z" id="Path" stroke="none" fill="#6AAAE4" fill-rule="nonzero"></path>
                            <path d="M110.098459,126.94697 C108.988422,128.93803 108.018393,132.188333 107.498452,135.890606 C106.958467,139.603636 106.768348,143.747273 106.878441,147.998485 C106.988381,152.260606 107.378489,156.640909 107.988478,161.010606 C108.608489,165.357576 109.458404,169.75 110.518481,173.784848 C110.778452,174.786364 111.058467,175.754545 111.338481,176.637879 C111.478489,177.078788 111.618344,177.498485 111.748481,177.874242 L112.078456,178.789394 C112.128415,178.940909 112.098348,178.89697 112.158481,179.048485 L112.288467,179.413636 L112.508348,180.016667 C112.638485,180.339394 112.708489,180.575758 112.748426,180.737879 C112.798385,180.910606 112.81843,181.060606 112.968459,181.243939 C113.108467,181.415152 113.388481,181.619697 113.828396,181.781818 C114.708378,182.125758 116.238437,182.277273 118.008422,182.180303 C119.78843,182.093939 121.798341,181.813636 123.898452,181.427273 C125.998411,181.05 128.188419,180.575758 130.438407,180.081818 C134.928363,179.101515 139.618459,178.101515 144.389037,177.325758 C148.277963,176.701515 151.908741,179.586364 152.488815,183.772727 C152.999037,187.45303 150.988519,190.919697 147.858852,192.124242 L147.789,192.145455 C143.67837,193.739394 139.598415,195.589394 135.338363,197.472727 C133.198467,198.409091 131.008459,199.368182 128.698489,200.281818 C126.388367,201.19697 123.948411,202.090909 121.208396,202.822727 C118.468381,203.533333 115.398393,204.134848 111.718415,203.974242 C109.888448,203.887879 107.908452,203.586364 105.888367,202.951515 C103.878456,202.316667 101.838478,201.337879 100.018381,200.077273 C98.1884148,198.828788 96.5883519,197.343939 95.2283667,195.804545 C94.5583963,195.040909 93.928363,194.256061 93.3684852,193.469697 C93.0784481,193.071212 92.8184778,192.684848 92.5484852,192.286364 C92.2983852,191.919697 91.9684111,191.35 91.7483778,190.962121 C91.2683741,190.101515 90.8683963,189.315152 90.5183778,188.583333 C90.1584889,187.840909 89.8383852,187.130303 89.5384778,186.442424 C88.9383593,185.05303 88.3983741,183.719697 87.8984778,182.406061 C85.9184815,177.142424 84.3884222,171.998485 83.0884185,166.725758 C81.798437,161.451515 80.7584037,156.092424 80.0583667,150.537879 C79.3683519,144.985 78.9683741,139.237727 79.2483889,133.135455 C79.3883963,130.078939 79.7083481,126.936364 80.2984444,123.664545 C80.8984111,120.392727 81.7783926,116.991818 83.1383778,113.515455 L83.5684222,112.428485 C86.7683963,104.249091 95.5184037,100.406818 103.118437,103.850758 C110.71847,107.294848 114.288356,116.71197 111.088381,124.891364 C110.798344,125.580152 110.438456,126.322879 110.098459,126.94697 Z" id="Path" stroke="none" fill="#6AAAE4" fill-rule="nonzero"></path>
                            <path d="M119.057263,184.056061 L119.058326,184.056061 C123.932163,183.762121 132.729396,182.580303 146.199111,178.462121 C146.665296,178.330303 146.832333,177.854545 146.744259,177.489394 C146.639481,177.043939 146.197593,176.787879 145.76937,176.910606 L145.76937,176.910606 L145.761778,176.913636 C126.395807,182.834848 116.911748,182.627273 114.890752,182.490909 C105.123033,161.059091 108.075641,135.756212 108.124537,135.337727 C108.124689,135.336364 108.124841,135.335303 108.124993,135.334394 C108.169637,134.949242 107.938822,134.503333 107.455022,134.438182 C107.006148,134.377727 106.622419,134.695606 106.571548,135.133485 C106.571548,135.134394 106.571396,135.135606 106.571093,135.137273 C106.519159,135.582879 103.477263,161.634848 113.67457,183.595455 L113.67457,183.595455 C113.783752,183.830303 114.012289,184.001515 114.268615,184.039394 C114.289267,184.042424 114.304604,184.045455 114.304907,184.045455 C114.323585,184.04697 114.347274,184.05 114.375215,184.05303 C114.431552,184.059091 114.510059,184.068182 114.611193,184.075758 C114.813915,184.092424 115.109722,184.110606 115.502563,184.122727 C116.288244,184.148485 117.463122,184.148485 119.057263,184.056061 Z" id="Path" stroke="#4A8CD8" stroke-width="0.658537" fill="#4A8CD8" fill-rule="nonzero"></path>
                            <path d="M119.590111,199.336364 C110.850126,199.85303 107.550081,196.784848 107.410074,196.656061 C107.300133,196.559091 107.300133,196.375758 107.390181,196.268182 C107.480078,196.15 107.650152,196.139394 107.75007,196.24697 C107.780137,196.280303 111.050115,199.304545 119.560196,198.787879 C128.14013,198.271212 145.070852,189.04697 145.239407,188.960606 C145.37,188.89697 145.520333,188.95 145.590185,189.078788 C145.649407,189.219697 145.600815,189.380303 145.480852,189.456061 C145.310778,189.542424 128.290159,198.819697 119.590111,199.336364 Z" id="Path" stroke="none" fill="#4A8CD8" fill-rule="nonzero"></path>
                            <path d="M192.087222,72.3057576 L195.70737,77.0306061 C198.387556,80.5283333 197.927444,85.6943939 194.677815,88.5786364 C191.426667,91.4630303 186.62663,90.9678788 183.947963,87.4701515 C182.096889,85.0593939 181.74763,81.8413636 182.777185,79.1292424 L184.938037,73.4681818 C185.817259,71.1434848 188.287889,70.035 190.438111,70.9928788 C191.097148,71.2940909 191.657481,71.7569697 192.087222,72.3057576 Z" id="Path" stroke="none" fill="#F6BD68" fill-rule="nonzero"></path>
                            <path d="M195.736222,68.9698485 C195.736222,68.9698485 199.827111,74.9215152 196.165963,84.2525758 L185.436111,86.1143939 C185.436111,86.1143939 177.637,80.0766667 176.845852,73.9851515 C176.066852,67.8936364 195.736222,68.9698485 195.736222,68.9698485 Z" id="Path" stroke="none" fill="#F7BE67" fill-rule="nonzero"></path>
                            <path d="M176.646926,70.3471212 C176.646926,70.3471212 175.406296,66.2359091 178.696926,65.4393939 C180.677074,64.9551515 181.355852,66.225 182.827296,64.8474242 C184.336704,63.4375758 186.316852,64.9659091 186.827074,65.5362121 C187.326667,66.1066667 188.626519,64.8366667 190.096444,65.4286364 C191.56637,66.0206061 191.967259,66.289697 193.376444,66.5263636 C194.796259,66.7739394 196.695926,70.7237879 196.695926,70.7237879 L180.247333,71.4878788 L176.646926,70.3471212 Z" id="Path" stroke="none" fill="#F7BE67" fill-rule="nonzero"></path>
                            <path d="M178.947481,66.6342424 C178.947481,66.6342424 176.016741,66.7525758 176.817,72.9193939 C177.617259,79.0756061 179.357481,78.3222727 181.087074,77.5687879 C182.827296,76.8154545 184.497667,78.6019697 185.776259,77.3751515 C188.046444,75.2225758 188.707,77.2566667 191.007556,75.7822727 C192.636926,74.7383333 193.967148,76.3527273 195.677,74.899697 C197.386852,73.4575758 197.746741,73.2962121 196.706556,70.7239394 C194.787148,65.9884848 178.947481,66.6342424 178.947481,66.6342424 Z" id="Path" stroke="none" fill="#F7BE67" fill-rule="nonzero"></path>
                            <path d="M177.207259,76.9772727 C176.367519,76.1378788 175.517148,75.2768182 174.757889,73.985303 C174.38737,73.350303 174.007741,72.5324242 173.887778,71.4562121 C173.827037,70.9287879 173.868037,70.3045455 174.027481,69.745 C174.097333,69.4651515 174.227926,69.2068182 174.337259,68.9484848 C174.467852,68.7225758 174.607556,68.4857576 174.757889,68.3027273 C175.357704,67.5386364 176.00763,67.1404545 176.596815,66.8390909 C177.198148,66.5377273 177.767593,66.3439394 178.327926,66.1933333 C179.457704,65.9027273 180.487259,65.7736364 181.636778,65.7090909 C182.417296,65.6766667 183.077852,66.3224242 183.117333,67.1619697 C183.147704,67.9045455 182.676963,68.5395455 182.037667,68.7118182 L181.948074,68.7333333 C181.117444,68.9484848 180.188111,69.2713636 179.427333,69.6587879 C179.047704,69.8525758 178.687815,70.0678788 178.417519,70.2937879 C178.147222,70.5090909 177.968037,70.7566667 177.957407,70.8534848 C177.957407,70.875 177.977148,70.8857576 177.977148,70.8857576 C178.007519,70.8857576 178.007519,70.8642424 178.027259,70.8534848 C178.066741,70.8104545 178.07737,70.7459091 178.107741,70.7459091 C178.157852,70.7243939 178.236815,70.8965152 178.457,71.1118182 C178.867,71.5637879 179.577667,72.0912121 180.308074,72.564697 C181.527444,73.350303 181.917704,75.0507576 181.187296,76.3637879 C180.456889,77.6768182 178.87763,78.0966667 177.656741,77.3109091 C177.507926,77.2140909 177.366704,77.1065152 177.23763,76.9772727 L177.207259,76.9772727 Z" id="Path" stroke="none" fill="#F7BE67" fill-rule="nonzero"></path>
                            <path d="M191.780481,75.2869697 C190.949852,75.3409091 190.000778,75.0180303 189.030444,74.0709091 C186.280407,71.380303 190.350037,66.6448485 190.539852,66.4080303 C190.750926,66.1604545 191.110815,66.1281818 191.340111,66.3542424 C191.580037,66.5801515 191.599778,66.9677273 191.390222,67.2151515 C191.350741,67.2581818 187.900667,71.3048485 189.789704,73.1560606 C191.270259,74.6089394 192.369667,73.9524242 192.770556,73.6080303 C193.270148,73.1775758 193.440222,72.6178788 193.330889,72.4134848 C193.180556,72.1228788 193.270148,71.7462121 193.549556,71.5739394 C193.819852,71.4125758 194.17063,71.5093939 194.330074,71.8107576 C194.750704,72.6071212 194.380185,73.7910606 193.490333,74.5551515 C193.030222,74.9640909 192.439519,75.2439394 191.780481,75.2869697 Z" id="Path" stroke="none" fill="#FB9301" fill-rule="nonzero"></path>
                            <path d="M186.628148,76.2568182 C185.997963,76.3 185.288815,76.1277273 184.558407,75.6327273 C183.548593,74.9439394 182.97763,74.0075758 182.857667,72.8451515 C182.508407,69.530303 185.487741,66.2154545 185.638074,66.0433333 C185.858259,65.8065152 186.218148,65.7957576 186.438333,66.0325758 C186.658519,66.2693939 186.66763,66.6568182 186.448963,66.8934848 C186.418593,66.9259091 183.698926,69.9609091 183.988963,72.6945455 C184.067926,73.4801515 184.458185,74.0936364 185.168852,74.5778788 C186.288,75.3421212 187.278074,74.9977273 187.838407,74.4272727 C188.237778,74.0183333 188.36837,73.5339394 188.257519,73.3295455 C188.098074,73.0389394 188.198296,72.6622727 188.468593,72.49 C188.738889,72.3178788 189.088148,72.4254545 189.247593,72.7160606 C189.648481,73.4693939 189.397926,74.5133333 188.628037,75.3098485 C188.158815,75.8156061 187.458778,76.2137879 186.628148,76.2568182 Z" id="Path" stroke="none" fill="#FB9301" fill-rule="nonzero"></path>
                            <path d="M181.509222,76.589697 C180.869926,76.6327273 180.159259,76.4498485 179.439481,75.9331818 C178.689333,75.395 178.239852,74.6309091 178.09863,73.6622727 C177.640037,70.4334848 180.658852,66.2577273 180.800074,66.0639394 C180.999,65.8057576 181.349778,65.7625758 181.598815,65.9671212 C181.84937,66.1824242 181.879741,66.5590909 181.689926,66.8281818 C180.809185,68.0119697 178.909519,71.2407576 179.229926,73.4686364 C179.319519,74.0927273 179.598926,74.5556061 180.078778,74.9 C181.428741,75.8686364 182.429444,75.0506061 182.699741,74.7816667 C183.109741,74.3725758 183.269185,73.8560606 183.149222,73.6407576 C182.989778,73.3501515 183.09,72.9734848 183.358778,72.8013636 C183.629074,72.6290909 183.979852,72.7366667 184.139296,73.0272727 C184.538667,73.7807576 184.269889,74.8677273 183.478741,75.6640909 C182.998889,76.1592424 182.309481,76.5359091 181.509222,76.589697 Z" id="Path" stroke="none" fill="#FB9301" fill-rule="nonzero"></path>
                            <g id="Group" opacity="0.2" stroke="none" stroke-width="1" fill="none" fill-rule="evenodd" transform="translate(181.222222, 73.727273)">
                                <path d="M0.536037037,1.88378788 C1.04474074,1.84075758 1.80551852,1.17348485 2.77585185,1.14121212 C4.46596296,1.06590909 4.94581481,1.7330303 5.64585185,1.58242424 C6.33525926,1.43181818 7.3147037,1.09818182 8.42474074,0.194090909 C8.1347037,0.667575758 12.4351481,0.570757576 9.65474074,1.95909091 C8.82562963,2.3680303 6.9047037,3.96090909 6.37474074,4.60666667 C4.63603704,4.09015152 0.324962963,2.52954545 0.536037037,1.88378788 Z" id="Path" fill="#FB9301" fill-rule="nonzero"></path>
                            </g>
                            <path d="M146.747296,177.865152 C146.747296,177.865152 169.48863,167.909091 172.557556,170.998485 C177.248259,175.722727 183.847741,184.139394 167.367259,190.843939 C160.628074,193.589394 161.838333,188.498485 158.818,189.04697 C150.718222,190.510606 144.90837,185.990909 146.747296,177.865152 Z" id="Path" stroke="none" fill="#F6BD68" fill-rule="nonzero"></path>
                            <path d="M176.267296,184.765152 C176.256667,184.765152 176.236926,184.765152 176.226296,184.765152 C175.916519,184.754545 175.665963,184.474242 175.665963,184.140909 C175.816296,176.789394 170.786963,175.928788 170.566778,175.89697 C170.257,175.85303 170.036815,175.540909 170.086926,175.207576 C170.126407,174.874242 170.416444,174.637879 170.726222,174.690909 C170.786963,174.701515 176.967333,175.745455 176.797259,184.172727 C176.797259,184.495455 176.566444,184.754545 176.267296,184.765152 Z" id="Path" stroke="none" fill="#FB9301" fill-rule="nonzero"></path>
                            <path d="M172.988815,187.412121 C172.969074,187.412121 172.959963,187.412121 172.938704,187.412121 C172.628926,187.401515 172.379889,187.121212 172.389,186.787879 C172.559074,180.060606 166.469815,179.25303 166.20863,179.231818 C165.898852,179.2 165.669556,178.887879 165.709037,178.554545 C165.739407,178.219697 166.018815,177.972727 166.339222,178.016667 C166.409074,178.027273 173.738963,178.984848 173.529407,186.830303 C173.518778,187.142424 173.278852,187.401515 172.988815,187.412121 Z" id="Path" stroke="none" fill="#FB9301" fill-rule="nonzero"></path>
                            <path d="M167.437111,190.198485 C167.147074,190.219697 166.887407,189.993939 166.847926,189.671212 C166.527519,187.218182 165.77737,185.581818 164.617222,184.784848 C163.406963,183.956061 162.157222,184.354545 162.146593,184.365152 C161.847444,184.462121 161.527037,184.278788 161.437444,183.956061 C161.347852,183.633333 161.517926,183.289394 161.817074,183.192424 C161.886926,183.171212 163.587667,182.622727 165.236778,183.751515 C166.686963,184.742424 167.617815,186.678788 167.977704,189.498485 C168.017185,189.833333 167.80763,190.145455 167.497852,190.187879 C167.467481,190.198485 167.447741,190.198485 167.437111,190.198485 Z" id="Path" stroke="none" fill="#FB9301" fill-rule="nonzero"></path>
                            <path d="M122.748933,104.93803 C109.848967,105.702121 99.7289519,93.7666667 99.5988148,93.6051515 L102.148863,91.1621212 L100.878926,92.3890909 L102.148863,91.1621212 C102.808963,91.9584848 118.488881,110.362273 134.768919,95.6392424 L137.088911,98.2115152 C132.21887,102.613333 127.248911,104.668939 122.748933,104.93803 Z" id="Path" stroke="none" fill="#4A8CD8" fill-rule="nonzero"></path>
                            <path d="M132.648156,78.8398485 C132.598044,78.8398485 132.558107,78.8398485 132.508148,78.8290909 C129.928033,78.2909091 129.148122,76.2675758 129.118056,76.1815152 C128.998093,75.8693939 129.148122,75.5142424 129.438159,75.385 C129.728044,75.2559091 130.058019,75.4172727 130.178133,75.7293939 C130.208048,75.7939394 130.788122,77.2362121 132.72803,77.6343939 C133.038111,77.6989394 133.2381,78.0218182 133.178119,78.3554545 C133.128159,78.6245455 132.898104,78.8290909 132.648156,78.8398485 Z" id="Path" stroke="none" fill="#FB9301" fill-rule="nonzero"></path>
                            <path d="M140.666844,57.5178788 C136.906841,57.7439394 133.686822,54.6334848 133.476811,50.5868182 C133.2668,46.5401515 136.156693,43.074697 139.916848,42.8486364 C143.676852,42.6225758 146.896111,45.7330303 147.107185,49.779697 C147.306111,53.8156061 144.427,57.2918182 140.666844,57.5178788 Z M139.966807,44.0648485 C136.836837,44.2477273 134.426796,47.1428788 134.606741,50.5115152 C134.776815,53.8801515 137.466719,56.4739394 140.596841,56.2801515 C143.726963,56.0865152 146.136852,53.2021212 145.956148,49.8334848 C145.776963,46.4648485 143.107407,43.8818182 139.966807,44.0648485 Z" id="Shape" stroke="none" fill="#282C64" fill-rule="nonzero"></path>
                            <path d="M158.467222,65.9665152 C157.496889,66.020303 156.526556,65.8589394 155.597222,65.4713636 C153.896481,64.750303 152.566259,63.3727273 151.835852,61.5754545 C151.106963,59.7780303 151.076593,57.7762121 151.737148,55.9574242 C152.406815,54.1277273 153.686926,52.6963636 155.355778,51.9107576 C157.026148,51.125 158.886333,51.0927273 160.576444,51.8030303 C162.277185,52.5242424 163.605889,53.9018182 164.336296,55.6990909 C165.066704,57.4963636 165.097074,59.4981818 164.436519,61.3171212 C163.766852,63.1466667 162.486741,64.5781818 160.81637,65.3637879 C160.066222,65.7081818 159.276593,65.9127273 158.467222,65.9665152 Z M157.786926,52.5027273 C157.115741,52.5457576 156.456704,52.7071212 155.826519,53.0084848 C154.437074,53.665 153.355889,54.859697 152.806185,56.3878788 C152.256481,57.9054545 152.276222,59.5736364 152.886667,61.0695455 C153.497111,62.5656061 154.607148,63.7278788 156.026963,64.3198485 C157.436148,64.9118182 158.986556,64.890303 160.376,64.2337879 C161.766963,63.5772727 162.84663,62.3825758 163.396333,60.8543939 C163.946037,59.3368182 163.926296,57.6686364 163.315852,56.1727273 C162.706926,54.6766667 161.596889,53.5143939 160.177074,52.9224242 C159.396556,52.5995455 158.587185,52.4595455 157.786926,52.5027273 Z" id="Shape" stroke="none" fill="#282C64" fill-rule="nonzero"></path>
                            <path d="M151.717407,56.3122727 C151.526074,55.1607576 151.076593,54.3751515 150.346185,53.9337879 C148.646963,52.9006061 146.006259,53.9768182 145.977407,53.9875758 L145.567407,52.8468182 C145.696481,52.7930303 148.736556,51.555303 150.906519,52.8683333 C151.946704,53.5033333 152.59663,54.590303 152.847185,56.1078788 L151.717407,56.3122727 Z" id="Path" stroke="none" fill="#282C64" fill-rule="nonzero"></path>
                            <polygon id="Path" stroke="none" fill="#282C64" fill-rule="nonzero" points="125.822263 38.3133333 125.1201 39.28 134.645767 47.2939394 135.34793 46.3272727"></polygon>
                            <path d="M121.579674,16.7186364 L124.259556,15.534697 C124.259556,15.534697 132.719678,24.8765152 133.689556,32.7869697 L124.53957,32.1089394 L119.339556,19.5383333 L121.579674,16.7186364 Z" id="Path" stroke="none" fill="#001F60" fill-rule="nonzero"></path>
                            <path d="M239.509037,193.84697 L153.55937,193.857576 C151.479,193.857576 149.799519,192.05 149.799519,189.812121 L149.799519,188.789394 L244.228593,188.778788 C244.219481,191.577273 242.108741,193.84697 239.509037,193.84697 Z" id="Path" stroke="none" fill="#001F60" fill-rule="nonzero"></path>
                            <path d="M240.368519,189.392424 L172.628926,189.40303 C171.008667,189.40303 169.689074,187.981818 169.689074,186.239394 L169.678444,131.350303 C169.678444,129.606667 170.999556,128.186061 172.619815,128.186061 L240.359407,128.175303 C241.979667,128.175303 243.299259,129.595909 243.299259,131.339545 L243.30837,186.227273 C243.30837,187.971212 241.999407,189.392424 240.368519,189.392424 Z" id="Path" stroke="none" fill="#334C80" fill-rule="nonzero"></path>
                            <path d="M243.419222,189.390909 L177.960444,189.401515 C175.71,189.401515 173.880185,187.442424 173.880185,185.010606 L173.869556,132.565303 C173.869556,130.143788 175.690259,128.174242 177.949815,128.174242 L243.410111,128.163485 C245.660556,128.163485 247.49037,130.122273 247.49037,132.554545 L247.499481,185 C247.499481,187.421212 245.669667,189.390909 243.419222,189.390909 Z" id="Path" stroke="none" fill="#FBFBFB" fill-rule="nonzero"></path>
                            <path d="M210.648074,160.622727 C211.592593,160.622727 212.357926,159.8 212.357926,158.783333 C212.357926,157.766667 211.592593,156.942424 210.648074,156.942424 C209.703556,156.942424 208.938222,157.766667 208.938222,158.783333 C208.938222,159.8 209.703556,160.622727 210.648074,160.622727 Z" id="Path" stroke="none" fill="#222A63" fill-rule="nonzero"></path>
                            <path d="M218.889074,46.8219697 C225.515889,46.8219697 230.888407,41.4613636 230.888407,34.8486364 C230.888407,28.2359091 225.515889,22.875303 218.889074,22.875303 C212.260741,22.875303 206.888222,28.2359091 206.888222,34.8486364 C206.888222,41.4613636 212.260741,46.8219697 218.889074,46.8219697 Z" id="Path" stroke="#33C95A" stroke-width="1.31707" fill="#FFFFFF" fill-rule="nonzero"></path>
                            <polyline id="Path" stroke="#33C95A" stroke-width="1.31707" fill="none" points="212.889407 35.4377273 216.858815 40.0656061 224.629074 28.8618182"></polyline>
                            <line x1="229.388111" y1="58.9828788" x2="232.387185" y2="62.2116667" id="Path" stroke="#66D683" stroke-width="0.658537" fill="none"></line>
                            <line x1="229.388111" y1="62.2116667" x2="232.387185" y2="58.9828788" id="Path" stroke="#66D683" stroke-width="0.658537" fill="none"></line>
                            <line x1="247.387111" y1="85.8901515" x2="250.387704" y2="89.1189394" id="Path" stroke="#66D683" stroke-width="0.658537" fill="none"></line>
                            <line x1="247.387111" y1="89.1189394" x2="250.387704" y2="85.8901515" id="Path" stroke="#66D683" stroke-width="0.658537" fill="none"></line>
                            <line x1="234.388593" y1="24.5427273" x2="237.387667" y2="27.7715152" id="Path" stroke="#66D683" stroke-width="0.658537" fill="none"></line>
                            <line x1="234.388593" y1="27.7715152" x2="237.387667" y2="24.5427273" id="Path" stroke="#66D683" stroke-width="0.658537" fill="none"></line>
                            <polygon id="Path" stroke="none" fill="#99E4AD" fill-rule="nonzero" points="204.387222 47.1401515 202.891481 49.2963636 201.38663 47.1401515 202.891481 44.9913636"></polygon>
                            <polygon id="Path" stroke="none" fill="#99E4AD" fill-rule="nonzero" points="246.389444 113.867576 244.893704 116.023788 243.388852 113.867576 244.893704 111.718788"></polygon>
                            <polygon id="Path" stroke="none" fill="#99E4AD" fill-rule="nonzero" points="211.389111 14.8528788 209.89337 17.0092424 208.390037 14.8528788 209.89337 12.7042424"></polygon>
                            <g id="Group" opacity="0.6" stroke="none" stroke-width="1" fill="none" fill-rule="evenodd" transform="translate(231.333333, 38.878788)">
                                <g id="Path" stroke="#33C95A" stroke-width="0.658537">
                                    <path d="M0.0531481481,0.731212121 C0.0531481481,0.731212121 0.613481481,0.849545455 1.50333333,1.11863636"></path>
                                    <path d="M4.29437037,2.16348485 C9.9052963,4.6280303 18.3740741,10.8057576 12.054,24.4093939 C3.05525926,43.7818182 5.05514815,50.2393939 17.0544815,63.1542424 C25.7252222,72.485303 20.705,79.4486364 17.2549259,82.5913636" stroke-linecap="round" stroke-dasharray="1.98"></path>
                                    <path d="M16.0826296,83.5584848 C15.334,84.1289394 14.8237778,84.430303 14.8237778,84.430303"></path>
                                </g>
                            </g>
                        </g>
                    </g>
                </g>
            </g>
        </g>
    </g>
</svg>