<?xml version="1.0" encoding="UTF-8"?>
<svg width="165px" height="140px" viewBox="0 0 165 140" version="1.1" xmlns="http://www.w3.org/2000/svg" xmlns:xlink="http://www.w3.org/1999/xlink">
    <title>IMG_</title>
    <defs>
        <rect id="path-1" x="0" y="0" width="164" height="140"></rect>
        <polygon id="path-3" points="0 283.210313 142 283.210313 142 0 0 0"></polygon>
        <path d="M46.2899899,4.08077122e-14 L46.2899899,8.61476239 L47.9052578,8.61476239 L47.9052578,5.12578362 L48.0344793,5.290182 C48.7846815,6.31605662 49.5973407,7.29455005 50.4681496,8.21920121 L50.4681496,8.21920121 C50.7675126,8.49846309 51.1580485,8.6564004 51.5665319,8.66429727 L51.5665319,8.66429727 C51.8903033,8.70449949 52.212639,8.58676441 52.4351871,8.34914055 L52.4351871,8.34914055 C51.990091,7.82435794 50.152275,5.69938322 49.6066734,5.04609707 L49.6066734,5.04609707 L49.6353893,5.02456016 L49.5994944,4.98148635 L49.6353893,4.93841254 C50.5083519,3.86228514 51.440182,2.83712841 52.428726,1.86581395 L52.428726,1.86581395 L51.5449949,1.86581395 C51.0561072,1.81197169 50.5665015,1.96560162 50.1953488,2.28865521 L50.1953488,2.28865521 C49.4128413,3.06183013 48.6927907,3.8945905 48.0416582,4.78047523 L48.0416582,4.78047523 L47.9124368,4.94559151 L47.9124368,4.08077122e-14 L46.2899899,4.08077122e-14 Z M25.2268959,4.08077122e-14 L25.2268959,5.34761375 C25.2268959,7.61616785 26.6052578,8.74326593 28.407179,8.74326593 L28.407179,8.74326593 C30.460364,8.74326593 31.7525784,7.14953488 31.7525784,5.11070779 L31.7525784,5.11070779 C31.7525784,3.07116279 30.460364,1.72869565 28.7517695,1.72869565 L28.7517695,1.72869565 L28.7445905,1.72869565 C28.0108999,1.73731041 27.3317695,2.11923155 26.9426694,2.74164813 L26.9426694,2.74164813 L26.8134479,2.92901921 L26.8134479,4.08077122e-14 L25.2268959,4.08077122e-14 Z M27.2872599,6.86955511 C26.9354904,6.35123357 26.7732457,5.72738119 26.8278059,5.10352882 L26.8278059,5.10352882 C26.8278059,4.00586451 27.4954499,3.10849343 28.4143579,3.10849343 L28.4143579,3.10849343 C28.8967846,3.06757331 29.3684429,3.25925177 29.6850354,3.62537917 L29.6850354,3.62537917 C30.0281901,4.15159757 30.1846916,4.77903943 30.1301314,5.4043276 L30.1301314,5.4043276 C30.1373104,6.53932255 29.5055612,7.39361982 28.6010111,7.39361982 L28.6010111,7.39361982 L28.5938322,7.40079879 C28.5572194,7.40367037 28.5206067,7.40439026 28.4847118,7.40439026 L28.4847118,7.40439026 C28.0295652,7.40510617 27.5938018,7.21127401 27.2872599,6.86955511 L27.2872599,6.86955511 Z M10.1015268,4.08077122e-14 L10.1015268,6.22416582 C10.1015268,7.80210313 10.9120324,8.73680485 12.6565217,8.74326593 L12.6565217,8.74326593 C13.3744186,8.74326593 13.8410516,8.50635996 14.0205258,8.12587462 L14.0205258,8.12587462 L14.0205258,7.14163802 C13.6522447,7.2830637 13.2588372,7.34695652 12.8647118,7.3290091 L12.8647118,7.3290091 C12.5452477,7.35341759 12.2293731,7.24070779 11.9960566,7.01959555 L11.9960566,7.01959555 C11.7670475,6.74105157 11.6564914,6.38282103 11.687361,6.0224368 L11.687361,6.0224368 L11.687361,3.08623862 L13.0807988,3.08623862 C13.7986957,3.08623862 14.0499596,2.65550051 14.0499596,2.36834176 L14.0499596,2.36834176 L14.0499596,1.73659252 L11.687361,1.73659252 L11.6945399,4.08077122e-14 L10.1015268,4.08077122e-14 Z M1.02019281e-14,8.62840243 L1.60808898,8.62840243 L1.60808898,0.0129221436 L1.02019281e-14,0.0129221436 L1.02019281e-14,8.62840243 Z M14.2502528,5.36915066 C14.234459,7.20481294 15.7097371,8.70593529 17.5453994,8.72244692 L17.5453994,8.72244692 C17.5719616,8.72244692 17.5978059,8.72244692 17.624368,8.72172902 L17.624368,8.72172902 C18.327907,8.7942366 19.0364712,8.6348635 19.6416582,8.26945399 L19.6416582,8.26945399 L19.6416582,7.12153691 C19.1096967,7.35916077 18.5303539,7.47474216 17.9474216,7.45823054 L17.9474216,7.45823054 C16.9954904,7.55371082 16.1225278,6.92124368 15.9164914,5.98654196 L15.9164914,5.98654196 L15.9164914,5.90111223 L17.144095,5.90111223 C17.986906,5.95854398 18.8333064,5.83793731 19.6273003,5.54862487 L19.6273003,5.54862487 C20.1068554,5.32607685 20.3947321,4.82570273 20.3451972,4.29876643 L20.3451972,4.29876643 C20.3243782,2.85651163 19.1362588,1.70356926 17.694004,1.72582406 L17.694004,1.72582406 C17.6559555,1.72582406 17.6186249,1.72725986 17.5812942,1.72869565 L17.5812942,1.72869565 L17.610728,1.70787664 C15.6501517,1.70787664 14.2574317,3.14367037 14.2502528,5.36915066 L14.2502528,5.36915066 Z M15.9014156,4.75893832 L15.9014156,4.52921132 C15.9093124,3.68065723 16.5970576,2.99650152 17.4448938,2.99362993 L17.4448938,2.99362993 C17.8002528,2.9764004 18.1520222,3.07116279 18.4506673,3.26571284 L18.4506673,3.26571284 C18.710546,3.46098079 18.856997,3.77398382 18.8376138,4.09847321 L18.8376138,4.09847321 C18.8648938,4.38634985 18.6696259,4.64694641 18.3860566,4.70150657 L18.3860566,4.70150657 L18.4140546,4.67996967 C17.8713246,4.8091911 17.3135187,4.86016178 16.7564307,4.83072801 L16.7564307,4.83072801 L15.9014156,4.83072801 L15.9014156,4.75893832 Z M39.0090799,4.26430738 C38.9975935,4.37629929 38.9932861,4.4882912 38.9961577,4.60100101 L38.9961577,4.60100101 L38.9961577,8.62840243 L40.5827098,8.62840243 L40.5827098,4.72376138 C40.5618908,4.29445905 40.6939838,3.8716178 40.9560162,3.53133468 L40.9560162,3.53133468 C41.2015369,3.2513549 41.5597674,3.09557128 41.9323559,3.10849343 L41.9323559,3.10849343 C42.3437108,3.07905966 42.7450152,3.23484328 43.0307381,3.53133468 L43.0307381,3.53133468 C43.3178969,3.90679474 43.4550152,4.3741456 43.4184024,4.84580384 L43.4184024,4.84580384 L43.4184024,8.62840243 L45.0121335,8.62840243 L45.0121335,4.6943276 C45.1083316,3.15515672 43.9395956,1.82920121 42.4004247,1.73228514 L42.4004247,1.73228514 C42.2992012,1.72582406 42.1986957,1.72510617 42.0974722,1.72869565 L42.0974722,1.72869565 L42.0910111,1.72869565 C41.9984024,1.72008089 41.9057937,1.71577315 41.8146208,1.71577315 L41.8146208,1.71577315 C40.3788271,1.71505561 39.1512235,2.80625885 39.0090799,4.26430738 L39.0090799,4.26430738 Z M2.87015167,4.26430738 C2.85938322,4.37629929 2.85435794,4.4882912 2.85722952,4.60100101 L2.85722952,4.60100101 L2.85722952,8.62840243 L4.45813953,8.62840243 L4.45813953,4.71586451 C4.43803842,4.28943377 4.57084934,3.86946411 4.8314459,3.53133468 L4.8314459,3.53133468 C5.07624874,3.2513549 5.43519717,3.09557128 5.80778564,3.10849343 L5.80778564,3.10849343 C6.21842265,3.07905966 6.62044489,3.23484328 6.90616785,3.53133468 L6.90616785,3.53133468 C7.19332659,3.90679474 7.33116279,4.3741456 7.29383215,4.84580384 L7.29383215,4.84580384 L7.29383215,8.62840243 L8.8875632,8.62840243 L8.8875632,4.6943276 C8.98160768,3.15084934 7.80712841,1.82417594 6.26365015,1.72869565 L6.26365015,1.72869565 C6.15596562,1.72367037 6.04899899,1.72295248 5.94203236,1.72797776 L5.94203236,1.72797776 C5.85229525,1.71936299 5.76327604,1.71577315 5.67569262,1.71577315 L5.67569262,1.71577315 C4.23989889,1.71505561 3.01157735,2.80625885 2.87015167,4.26430738 L2.87015167,4.26430738 Z M23.7121335,1.72223458 C21.8750354,1.72869565 21.1707786,2.99362993 21.1635996,4.34327604 L21.1635996,4.34327604 L21.1923155,4.32102123 L21.1923155,8.62840243 L22.8075834,8.62840243 L22.8075834,4.65125379 C22.7724065,4.23415571 22.8894237,3.81849343 23.137816,3.4810819 L23.137816,3.4810819 C23.3847725,3.22120324 23.7358241,3.08623862 24.0926188,3.1156724 L24.0926188,3.1156724 C24.2383519,3.10275025 24.3848028,3.10275025 24.5305359,3.1156724 L24.5305359,3.1156724 L24.5305359,1.88806876 C24.2893225,1.77823054 24.0272902,1.72151668 23.7631041,1.72151668 L23.7631041,1.72151668 C23.7458746,1.72151668 23.729363,1.72223458 23.7121335,1.72223458 L23.7121335,1.72223458 Z M32.9945399,2.33316481 L32.9945399,3.44590495 C33.5566532,3.17669363 34.1740445,3.04244692 34.797179,3.05106168 L34.797179,3.05106168 C35.2322245,3.01875632 35.66727,3.11926188 36.0456016,3.33750253 L36.0456016,3.33750253 C36.3385035,3.60312437 36.4849545,3.99294237 36.4404449,4.38563195 L36.4404449,4.38563195 L36.4404449,4.52203236 L35.722548,4.52203236 C33.1596562,4.52203236 32.3125379,5.42658241 32.3125379,6.61111223 L32.3125379,6.61111223 C32.3125379,7.79564206 33.4037412,8.72172902 35.0484429,8.72172902 L35.0484429,8.72172902 L35.4497472,8.72172902 C36.7613448,8.83300303 37.9150051,7.85881699 38.0255612,6.54721941 L38.0255612,6.54721941 C38.0320222,6.47542973 38.0348938,6.40364004 38.033458,6.33113246 L38.033458,6.33113246 L38.033458,4.76611729 C38.012639,2.36834176 36.5912032,1.73659252 35.0549039,1.72869565 L35.0549039,1.72869565 C34.9974722,1.72582406 34.9407583,1.72438827 34.8833266,1.72438827 L34.8833266,1.72438827 C34.2070677,1.72438827 33.5458847,1.93544995 32.9945399,2.33316481 L32.9945399,2.33316481 Z M34.330546,7.25004044 C34.0965116,7.08851365 33.9651365,6.81571284 33.9852376,6.53214358 L33.9852376,6.53214358 C33.9529323,6.23565217 34.1065622,5.94992922 34.3729019,5.81424671 L34.3729019,5.81424671 C34.8086653,5.62328615 35.283913,5.5421638 35.7584429,5.57734075 L35.7584429,5.57734075 L36.4763397,5.57734075 L36.4476239,6.35984833 C36.4705966,6.67069767 36.3643478,6.97723964 36.154004,7.20696663 L36.154004,7.20696663 C35.9048938,7.41300303 35.5854297,7.51638018 35.263094,7.49412538 L35.263094,7.49412538 C35.2379676,7.49556117 35.2121234,7.49556117 35.186997,7.49556117 L35.186997,7.49556117 C34.8840445,7.49556117 34.5868352,7.41156724 34.330546,7.25004044 L34.330546,7.25004044 Z" id="path-5"></path>
        <path d="M1.67271821,4.08077122e-14 C0.743759662,0.00430738119 -0.00428887233,0.759534884 -8.8817842e-16,1.68633974 L-8.8817842e-16,1.68633974 L-8.8817842e-16,12.5488372 L10.8682592,12.5488372 C11.7957819,12.5452477 12.5452662,11.7900202 12.5409773,10.8617796 L12.5409773,10.8617796 L12.5409773,4.08077122e-14 L1.67271821,4.08077122e-14 Z M2.92831982,3.55358948 L9.61193964,2.34034378 L9.61193964,9.05267947 L2.92831982,10.2659252 L2.92831982,3.55358948 Z" id="path-7"></path>
    </defs>
    <g id="Desktop-v2" stroke="none" stroke-width="1" fill="none" fill-rule="evenodd">
        <g id="D:-Cross-Selling-Cuenta" transform="translate(-292.000000, -1329.000000)">
            <g id="Destacado" transform="translate(168.500000, 1329.000000)">
                <g id="IMG_" transform="translate(124.000000, 0.000000)">
                    <mask id="mask-2" fill="white">
                        <use xlink:href="#path-1"></use>
                    </mask>
                    <g id="Mask"></g>
                    <g id="Group-30" mask="url(#mask-2)">
                        <g transform="translate(10.500000, 0.000000)">
                            <g id="Group-6">
                                <path d="M120.951192,7.49498686 L109.701748,7.49498686 C107.303973,7.49498686 106.413781,7.29397573 106.270201,10.3665743 C106.230717,11.7722164 105.664296,13.1125298 104.683649,14.1211749 C103.667107,15.1592538 102.402173,15.9202245 101.008017,16.3322973 C99.992911,16.7056036 98.9289879,16.9281517 97.849271,16.9927624 L45.9453276,16.9927624 C44.8692002,16.9489707 43.805277,16.7486775 42.7865814,16.396908 C41.3852467,15.965452 40.1188766,15.1793549 39.1109494,14.113996 C38.1374813,13.0744813 37.5732144,11.7176562 37.5243974,10.2947846 C37.380818,7.25090192 36.4906259,7.52370273 34.0928504,7.52370273 L22.7357219,7.52370273 C15.851091,7.52370273 9.86383114,12.5489808 9.86383114,19.4479697 L9.86383114,54.8115693 L132.925712,54.8115693 L132.925712,19.4192538 C132.925712,12.5633387 127.843002,7.49498686 120.951192,7.49498686" id="Fill-1" fill="#FFFFFF"></path>
                                <mask id="mask-4" fill="white">
                                    <use xlink:href="#path-3"></use>
                                </mask>
                                <g id="Clip-4"></g>
                                <polygon id="Fill-3" fill="#F3F3E3" mask="url(#mask-4)" points="9.97158746 240.502629 133.169869 240.502629 133.169869 42.6933266 9.97158746 42.6933266"></polygon>
                                <path d="M120.951551,274.128846 L22.735363,274.128846 C15.7021274,273.996035 10.0242811,268.340444 9.86419009,261.307208 L9.86419009,19.4190384 C9.86419009,12.5272285 15.8514499,7.49477149 22.735363,7.49477149 L34.0932093,7.49477149 C36.4909848,7.49477149 37.3811769,7.22197068 37.5247563,10.2658534 C37.5735733,11.6894429 38.1371223,13.0462679 39.1113084,14.0850647 C40.1192356,15.1504237 41.3848878,15.9365207 42.7869403,16.3679767 C43.8049181,16.7197462 44.8695592,16.9207573 45.9456866,16.9638311 L97.8496299,16.9638311 C98.9286289,16.8992204 99.99327,16.6766724 101.008376,16.303366 C102.401814,15.8920111 103.666748,15.1303225 104.684008,14.0922437 C105.664655,13.0835986 106.230358,11.744003 106.27056,10.3376431 C106.41414,7.29376036 107.304332,7.46427376 109.702107,7.46427376 L120.951551,7.46427376 C127.843361,7.46427376 132.926071,12.4913337 132.926071,19.3903225 L132.926071,261.307208 C132.926071,268.199018 127.843361,274.128846 120.951551,274.128846 L120.951551,274.128846 Z M63.0388109,7.91115167 L80.7565056,7.91115167 C81.5117331,7.96642973 82.0795895,8.62258746 82.0243114,9.37781496 C81.9754944,10.0569454 81.435636,10.5975217 80.7565056,10.6463387 L63.0388109,10.6463387 C62.2835834,10.5917786 61.7150091,9.93490293 61.7702872,9.17967543 C61.8191041,8.50054499 62.3596805,7.96068655 63.0388109,7.91115167 L63.0388109,7.91115167 Z M142.000287,95.8391598 L142.000287,65.4728402 C142.000287,64.8217078 141.472633,64.2947715 140.822936,64.2947715 L140.815757,64.2947715 L140.420914,64.2947715 L140.420914,20.194367 C140.420914,9.04112133 131.379003,-7.17896866e-05 120.226475,-7.17896866e-05 L22.1043316,-7.17896866e-05 C10.5634216,0.0315156724 1.21640445,9.37925076 1.18481699,20.9194429 L1.18481699,37.0793013 C0.534402427,37.0757118 0.00387664307,37.5990586 0.000198954201,38.2501911 L0.000198954201,38.2566522 L0.000198954201,46.541182 C-0.00760970677,47.1959039 0.515737108,47.7321729 1.16974115,47.7400698 L1.18481699,47.7400698 L1.18481699,57.6046906 C0.534402427,57.6003832 0.00387664307,58.12373 0.000198954201,58.7748625 L0.000198954201,58.7813236 L0.000198954201,76.534913 C0.000198954201,77.189635 0.530095046,77.7194429 1.18481699,77.7194429 L1.18481699,83.634913 C0.530095046,83.634913 0.000198954201,84.1654388 0.000198954201,84.8194429 L0.000198954201,102.566571 C0.00818402427,103.214832 0.53583822,103.736025 1.18481699,103.736025 L1.18481699,262.218937 C1.21640445,273.802203 10.6000344,283.182244 22.1833003,283.210242 L120.226475,283.210242 C131.366081,283.178654 140.389327,274.156126 140.420914,263.016521 L140.420914,97.0315865 L140.815757,97.0315865 C141.469761,97.0315865 142.000287,96.5003428 142.000287,95.8463387 L142.000287,95.8391598 Z" id="Fill-5" fill="#05BE50" mask="url(#mask-4)"></path>
                            </g>
                            <g id="Group-9" transform="translate(52.779778, 27.424378)">
                                <mask id="mask-6" fill="white">
                                    <use xlink:href="#path-5"></use>
                                </mask>
                                <g id="Clip-8"></g>
                                <polygon id="Fill-7" fill="#05BE50" mask="url(#mask-6)" points="-1.93114257 10.6456926 54.3376138 10.6456926 54.3376138 -1.90314459 -1.93114257 -1.90314459"></polygon>
                            </g>
                            <g id="Group-12" transform="translate(36.785735, 25.521234)">
                                <mask id="mask-8" fill="white">
                                    <use xlink:href="#path-7"></use>
                                </mask>
                                <g id="Clip-11"></g>
                                <polygon id="Fill-10" fill="#0039A6" mask="url(#mask-8)" points="-1.90312608 14.4448028 14.4433855 14.4448028 14.4433855 -1.90242669 -1.90312608 -1.90242669"></polygon>
                            </g>
                            <g id="Group-29" transform="translate(21.005375, 55.952666)">
                                <path d="M0.841016178,10.7312659 L2.32849848,9.24378362 C2.40962083,9.16194338 2.54171385,9.16194338 2.6228362,9.24378362 L5.99336198,12.6143094 C6.07520222,12.6954317 6.07520222,12.8275248 5.99336198,12.9086471 L2.6228362,16.2798908 C2.54171385,16.3610131 2.40962083,16.3610131 2.32849848,16.2798908 L0.841016178,14.7924085 C-0.280338726,13.6710536 -0.280338726,11.8526208 0.841016178,10.7312659" id="Fill-13" fill="#69D890"></path>
                                <path d="M8.20577654,0 L75.2501648,0 C78.4225511,0 80.9933397,2.57150657 80.9933397,5.74317492 L80.9933397,19.7787765 C80.9933397,22.9504449 78.4225511,25.5219515 75.2501648,25.5219515 L8.20577654,25.5219515 C5.03410819,25.5219515 2.46260162,22.9504449 2.46260162,19.7787765 L2.46260162,5.74317492 C2.46260162,2.57150657 5.03410819,0 8.20577654,0" id="Fill-15" fill="#69D890"></path>
                                <path d="M9.54831547,7.85407887 L71.4525622,7.85407887 C72.2494277,7.85407887 72.8955349,8.49946815 72.8955349,9.29705157 L72.8955349,9.35448332 C72.8955349,10.1513488 72.2494277,10.797456 71.4525622,10.797456 L9.54831547,10.797456 C8.75144995,10.797456 8.10534277,10.1513488 8.10534277,9.35448332 L8.10534277,9.29705157 C8.10534277,8.49946815 8.75144995,7.85407887 9.54831547,7.85407887" id="Fill-17" fill="#F3F3E3"></path>
                                <path d="M9.54831547,14.7245672 L62.1270819,14.7245672 C62.9239474,14.7245672 63.5700546,15.3699565 63.5700546,16.1675399 L63.5700546,16.2249717 C63.5700546,17.0211193 62.9239474,17.6679444 62.1270819,17.6679444 L9.54831547,17.6679444 C8.75144995,17.6679444 8.10534277,17.0211193 8.10534277,16.2249717 L8.10534277,16.1675399 C8.10534277,15.3699565 8.75144995,14.7245672 9.54831547,14.7245672" id="Fill-19" fill="#F3F3E3"></path>
                                <path d="M97.6270101,54.5685612 L94.2564843,51.1980354 C94.1746441,51.1161951 94.1746441,50.98482 94.2564843,50.9036977 L97.6270101,47.532454 C97.7081325,47.4513316 97.8402255,47.4513316 97.9213478,47.532454 L99.4088301,49.0199363 C100.530185,50.1412912 100.530185,51.9590061 99.4088301,53.0810789 L97.9213478,54.5685612 C97.8402255,54.6496835 97.7081325,54.6496835 97.6270101,54.5685612" id="Fill-21" fill="#6688CA"></path>
                                <path d="M92.0489515,63.8066016 L25.0045632,63.8066016 C21.8328948,63.8066016 19.2613883,61.2358129 19.2613883,58.0634267 L19.2613883,44.028543 C19.2613883,40.8568746 21.8328948,38.285368 25.0045632,38.285368 L92.0489515,38.285368 C95.2206198,38.285368 97.7921264,40.8568746 97.7921264,44.028543 L97.7921264,58.0634267 C97.7921264,61.2358129 95.2206198,63.8066016 92.0489515,63.8066016" id="Fill-23" fill="#6688CA"></path>
                                <path d="M90.7067715,49.0826805 L28.8025248,49.0826805 C28.0056593,49.0826805 27.3595521,48.4372912 27.3595521,47.6397078 L27.3595521,47.582276 C27.3595521,46.7854105 28.0056593,46.1393033 28.8025248,46.1393033 L90.7067715,46.1393033 C91.503637,46.1393033 92.1497442,46.7854105 92.1497442,47.582276 L92.1497442,47.6397078 C92.1497442,48.4372912 91.503637,49.0826805 90.7067715,49.0826805" id="Fill-25" fill="#F3F3E3"></path>
                                <path d="M90.7067715,55.9531689 L38.1280051,55.9531689 C37.3311395,55.9531689 36.6850324,55.3070617 36.6850324,54.5101962 L36.6850324,54.4527644 C36.6850324,53.6558989 37.3311395,53.0097917 38.1280051,53.0097917 L90.7067715,53.0097917 C91.503637,53.0097917 92.1497442,53.6558989 92.1497442,54.4527644 L92.1497442,54.5101962 C92.1497442,55.3070617 91.503637,55.9531689 90.7067715,55.9531689" id="Fill-27" fill="#F3F3E3"></path>
                            </g>
                        </g>
                    </g>
                </g>
            </g>
        </g>
    </g>
</svg>