<svg width="36" height="34" viewBox="0 0 36 34" fill="none" xmlns="http://www.w3.org/2000/svg">
<path d="M16.6881 0.955049C17.2229 -0.0585846 18.6745 -0.0585835 19.2093 0.95505L23.7208 9.50592C23.9271 9.89682 24.3029 10.1699 24.7385 10.2453L34.265 11.8936C35.3943 12.089 35.8429 13.4696 35.0441 14.2914L28.3059 21.2245C27.9979 21.5415 27.8542 21.9833 27.9172 22.4208L29.2934 31.9905C29.4566 33.1249 28.2821 33.9781 27.2536 33.4724L18.5776 29.2065C18.1811 29.0113 17.7164 29.0113 17.3199 29.2065L8.64385 33.4724C7.61539 33.9781 6.44094 33.1249 6.60407 31.9905L7.98028 22.4208C8.04318 21.9833 7.8996 21.5415 7.59157 21.2245L0.853337 14.2914C0.0545782 13.4696 0.503178 12.089 1.63246 11.8936L11.159 10.2453C11.5944 10.1699 11.9704 9.89681 12.1766 9.50592L16.6881 0.955049Z" fill="#FFCD00"/>
</svg>
