<svg width="36" height="34" viewBox="0 0 36 34" fill="none" xmlns="http://www.w3.org/2000/svg">
<path d="M27.9172 22.4208L29.2934 31.9905M27.9172 22.4208C27.8542 21.9833 27.9979 21.5415 28.3059 21.2245L29.2934 31.9905M27.9172 22.4208L27.0443 22.5465L28.4204 32.116L28.4204 32.116C28.4826 32.5484 28.035 32.8738 27.6427 32.6809L18.967 28.4151C18.9669 28.4151 18.9668 28.4151 18.9667 28.415C18.3247 28.0992 17.5725 28.0992 16.9305 28.4151L8.2547 32.6809L8.63936 33.4633L8.25468 32.681C7.86256 32.8738 7.41485 32.5485 7.47704 32.116L8.85324 22.5463L7.98028 22.4208L8.85324 22.5463C8.95507 21.8382 8.72262 21.1229 8.22408 20.6099L8.22402 20.6098L1.48579 13.6768L1.48577 13.6767C1.1813 13.3635 1.35226 12.8371 1.78282 12.7626L1.63246 11.8936L1.78283 12.7626L11.3093 11.1143L11.3093 11.1143C12.0143 10.9923 12.6228 10.5502 12.9566 9.91747C12.9566 9.91747 12.9566 9.91747 12.9566 9.91747L17.4682 1.3666L16.7049 0.963912L17.4682 1.36659C17.6721 0.980161 18.2254 0.980159 18.4293 1.3666L22.9408 9.91747L23.7208 9.50592L22.9408 9.91748C23.2747 10.5502 23.8831 10.9923 24.5882 11.1143C24.5882 11.1143 24.5882 11.1143 24.5882 11.1143L34.1146 12.7626L34.265 11.8936L34.1147 12.7626C34.5452 12.8371 34.7162 13.3635 34.4117 13.6767L34.4117 13.6768L27.6735 20.6098L27.6734 20.6099C27.175 21.1228 26.9423 21.838 27.0442 22.5463L27.9172 22.4208ZM29.2934 31.9905C29.4566 33.1249 28.2821 33.9781 27.2536 33.4724L29.2934 31.9905Z" stroke="#0F191E" stroke-width="1.76389"/>
</svg>
