<svg width="30" height="31" viewBox="0 0 30 31" fill="none" xmlns="http://www.w3.org/2000/svg">
<path fill-rule="evenodd" clip-rule="evenodd" d="M15 30.1519C6.71573 30.1519 0 23.4022 0 15.0759C0 6.74973 6.71573 0 15 0C23.2843 0 30 6.74973 30 15.0759C30 19.0743 28.4196 22.909 25.6066 25.7362C22.7936 28.5635 18.9782 30.1519 15 30.1519ZM14.9993 2.74117C8.22125 2.74117 2.72656 8.26367 2.72656 15.076C2.72656 21.8884 8.22125 27.4109 14.9993 27.4109C21.7773 27.4109 27.272 21.8884 27.272 15.076C27.272 8.26367 21.7773 2.74117 14.9993 2.74117ZM15.0043 20.5583C14.2511 20.5583 13.6406 21.1719 13.6406 21.9288C13.6406 22.6857 14.2511 23.2993 15.0043 23.2993C15.7574 23.2993 16.3679 22.6857 16.3679 21.9288C16.3679 21.1719 15.7574 20.5583 15.0043 20.5583ZM16.3679 17.8168V8.22299C16.3679 7.46606 15.7574 6.85245 15.0043 6.85245C14.2511 6.85245 13.6406 7.46606 13.6406 8.22299V17.8168C13.6406 18.5737 14.2511 19.1873 15.0043 19.1873C15.7574 19.1873 16.3679 18.5737 16.3679 17.8168Z" fill="#33C95A"/>
</svg>
