<svg width="288" height="98" viewBox="0 0 288 98" fill="none" xmlns="http://www.w3.org/2000/svg">
<path fill-rule="evenodd" clip-rule="evenodd" d="M0 7.99999C0 3.58171 3.58172 0 8 0H279.972C284.374 0 287.949 3.54412 287.962 7.94664C287.997 19.3321 288.024 39.7562 287.805 47.4093C287.345 63.5185 287.579 71.1442 282.12 77.0736C267.884 92.5357 252.512 98 197.702 98C170.158 98 128.377 82.4182 67.4667 76.1076C58.9214 75.2223 42.2592 79.8583 23.6226 81.9244C14.1719 82.9721 8.23153 82.8072 4.67158 82.3902C1.73269 82.0459 0 79.4917 0 76.5327V7.99999Z" fill="#DEEDFB"/>
<mask id="mask0_416_21129" style="mask-type:luminance" maskUnits="userSpaceOnUse" x="87" y="1" width="13" height="14">
<path fill-rule="evenodd" clip-rule="evenodd" d="M87.1111 8.14481C87.1111 11.7865 89.8962 14.7394 93.3333 14.7394C96.7697 14.7394 99.5555 11.7865 99.5555 8.14481C99.5555 4.50375 96.7697 1.55151 93.3333 1.55151C89.8962 1.55151 87.1111 4.50375 87.1111 8.14481Z" fill="white"/>
</mask>
<g mask="url(#mask0_416_21129)">
<path fill-rule="evenodd" clip-rule="evenodd" d="M86.47 15.3825H100.196V0.907761H86.47V15.3825Z" fill="#FF9100"/>
</g>
<path fill-rule="evenodd" clip-rule="evenodd" d="M217 67.4909H232.556L224.778 55.0788L217 67.4909Z" fill="#56CC81"/>
<path fill-rule="evenodd" clip-rule="evenodd" d="M55.2222 72.1448L63.7783 80.6788L72.3333 72.1448L63.7783 63.6121L55.2222 72.1448Z" fill="#FFD691"/>
</svg>
