<svg width="16" height="16" viewBox="0 0 16 16" fill="none" xmlns="http://www.w3.org/2000/svg">
<path fill-rule="evenodd" clip-rule="evenodd" d="M9.77659 8L15.632 2.14466C15.8693 1.90735 16 1.59187 16 1.25631C16 0.920717 15.8694 0.605278 15.6322 0.368184C15.3949 0.130759 15.0794 0 14.7437 0C14.408 0 14.0925 0.130722 13.8554 0.368037L8 6.22345L2.14477 0.368184C1.90753 0.130759 1.59194 0 1.25631 0C0.920644 0 0.605131 0.130722 0.368037 0.367926C0.130722 0.605241 0 0.920717 0 1.25631C0 1.59191 0.130685 1.90735 0.367963 2.14455L6.22341 8L0.368037 13.8553C0.130722 14.0927 0 14.4081 0 14.7437C0 15.0793 0.130648 15.3947 0.367816 15.6319C0.605057 15.8692 0.920644 16 1.25631 16C1.59198 16 1.90749 15.8693 2.14463 15.632L8 9.77655L13.8553 15.6319C14.0925 15.8692 14.408 16 14.7437 16C15.0794 16 15.3949 15.8693 15.632 15.6321C15.8693 15.3948 16 15.0793 16 14.7437C16 14.4081 15.8693 14.0927 15.632 13.8554L9.77659 8Z" fill="#9B9B9B"/>
</svg>
