<?xml version="1.0" encoding="UTF-8"?>
<svg width="360px" height="124px" viewBox="0 0 360 124" version="1.1" xmlns="http://www.w3.org/2000/svg" xmlns:xlink="http://www.w3.org/1999/xlink">
    <title>Group 17</title>
    <defs>
        <path d="M0,8.49917016 C0,13.1935468 3.58089749,17 8,17 L8,17 C12.4182791,17 16,13.1935468 16,8.49917016 L16,8.49917016 C16,3.80562335 12.4182791,0 8,0 L8,0 C3.58089749,0 0,3.80562335 0,8.49917016 L0,8.49917016 Z" id="path-1"></path>
    </defs>
    <g id="Page-2" stroke="none" stroke-width="1" fill="none" fill-rule="evenodd">
        <g id="Group-4-Copy-2" transform="translate(-170.000000, 0.000000)">
            <g id="Group-17" transform="translate(170.000000, 0.000000)">
                <path d="M8,0 L351.948273,0 C356.354029,-0.0011358495 359.931462,3.56014436 359.95027,7.96586085 C360.056783,34.3034482 359.992197,51.6439035 359.756514,59.9872269 C359.18073,80.3703164 359.47404,90.0191439 352.649956,97.5216596 C334.854762,117.086001 315.639676,124 247.127178,124 C212.697163,124 160.471659,104.284241 84.3333907,96.299433 C73.6517296,95.1792208 52.8240174,101.045201 29.528208,103.659388 C19.985854,104.730202 12.5907497,105.050234 7.34289509,104.619483 C3.19456029,104.277382 0.00148605744,100.811569 0,96.649152 L0,8 C-2.31743984e-15,3.581722 3.581722,2.58798134e-15 8,0 Z" id="Bg-Copy-2" fill="#DEEDFB"></path>
                <g id="oval-naranja" transform="translate(112.000000, 2.000000)">
                    <mask id="mask-2" fill="white">
                        <use xlink:href="#path-1"></use>
                    </mask>
                    <g id="Clip-7"></g>
                    <polygon id="Fill-6" fill="#FF9100" mask="url(#mask-2)" points="-0.824207493 17.8290052 16.8233841 17.8290052 16.8233841 -0.829835009 -0.824207493 -0.829835009"></polygon>
                </g>
                <polygon id="Fill-4" fill="#56CC81" points="279 87 299 87 289 71"></polygon>
                <polygon id="Fill-5" fill="#FFD691" points="71 92.9992045 82.0007966 104 93 92.9992045 82.0007966 82"></polygon>
            </g>
        </g>
    </g>
</svg>