<svg width="113" height="32" viewBox="0 0 113 32" fill="none" xmlns="http://www.w3.org/2000/svg">
<path fill-rule="evenodd" clip-rule="evenodd" d="M35.176 29.0001V27.7881H30.364V25.1241H34.156V23.9121H30.364V21.8121H35.02V20.6001H29.044V29.0001H35.176ZM37.512 29.0001V25.1121C37.656 24.8401 37.87 24.6141 38.154 24.4341C38.438 24.2541 38.732 24.1641 39.036 24.1641C39.844 24.1641 40.248 24.6481 40.248 25.6161V29.0001H41.544V25.1481C41.672 24.8681 41.878 24.6341 42.162 24.4461C42.446 24.2581 42.744 24.1641 43.056 24.1641C43.856 24.1641 44.256 24.6481 44.256 25.6161V29.0001H45.552V25.3161C45.552 24.5561 45.368 23.9721 45 23.5641C44.632 23.1561 44.12 22.9521 43.464 22.9521C43.008 22.9521 42.59 23.0481 42.21 23.2401C41.83 23.4321 41.532 23.6881 41.316 24.0081C41.188 23.6881 40.96 23.4321 40.632 23.2401C40.304 23.0481 39.912 22.9521 39.456 22.9521C38.608 22.9521 37.96 23.2601 37.512 23.8761V23.1081H36.216V29.0001H37.512ZM48.176 28.1961V31.4001H46.88V23.1081H48.176V23.9121C48.672 23.2721 49.372 22.9521 50.276 22.9521C51.108 22.9521 51.792 23.2521 52.328 23.8521C52.864 24.4441 53.132 25.1801 53.132 26.0601C53.132 26.9321 52.864 27.6641 52.328 28.2561C51.792 28.8561 51.108 29.1561 50.276 29.1561C49.372 29.1561 48.672 28.8361 48.176 28.1961ZM49.928 28.0161C49.56 28.0161 49.218 27.9181 48.902 27.7221C48.586 27.5261 48.344 27.2761 48.176 26.9721V25.1481C48.344 24.8361 48.584 24.5821 48.896 24.3861C49.208 24.1901 49.552 24.0921 49.928 24.0921C50.472 24.0921 50.924 24.2841 51.284 24.6681C51.644 25.0441 51.824 25.5081 51.824 26.0601C51.824 26.6041 51.644 27.0681 51.284 27.4521C50.924 27.8281 50.472 28.0161 49.928 28.0161ZM55.456 25.3881V29.0001H54.16V23.1081H55.456V24.1281C55.656 23.7841 55.956 23.5021 56.356 23.2821C56.756 23.0621 57.18 22.9521 57.628 22.9521C57.684 22.9521 57.724 22.9561 57.748 22.9641V24.2601C57.604 24.2441 57.484 24.2361 57.388 24.2361C56.948 24.2361 56.552 24.3481 56.2 24.5721C55.848 24.7961 55.6 25.0681 55.456 25.3881ZM61.356 29.1561C62.26 29.1561 62.984 28.9641 63.528 28.5801V27.4881C62.936 27.8401 62.304 28.0161 61.632 28.0161C61.024 28.0161 60.522 27.8761 60.126 27.5961C59.73 27.3161 59.492 26.9281 59.412 26.4321H63.924V26.0961C63.924 24.9121 63.508 24.0241 62.676 23.4321C62.252 23.1121 61.736 22.9521 61.128 22.9521C60.24 22.9521 59.512 23.2481 58.944 23.8401C58.384 24.4241 58.104 25.1601 58.104 26.0481C58.104 26.9681 58.416 27.7161 59.04 28.2921C59.68 28.8681 60.452 29.1561 61.356 29.1561ZM59.424 25.4481H62.616C62.6 25.0801 62.46 24.7561 62.196 24.4761C61.924 24.1881 61.548 24.0441 61.068 24.0441C60.612 24.0441 60.234 24.1781 59.934 24.4461C59.634 24.7141 59.464 25.0481 59.424 25.4481ZM67.088 29.1561C67.856 29.1561 68.476 28.9921 68.948 28.6641C69.42 28.3361 69.656 27.9041 69.656 27.3681C69.656 26.4241 68.984 25.8041 67.64 25.5081L66.956 25.3641C66.612 25.2601 66.424 25.2001 66.392 25.1841C66.144 25.0561 66.02 24.9001 66.02 24.7161C66.02 24.5161 66.124 24.3581 66.332 24.2421C66.54 24.1261 66.84 24.0681 67.232 24.0681C67.936 24.0681 68.644 24.2681 69.356 24.6681V23.4801C68.812 23.1281 68.088 22.9521 67.184 22.9521C66.4 22.9521 65.788 23.1061 65.348 23.4141C64.908 23.7221 64.688 24.1441 64.688 24.6801C64.688 25.1761 64.844 25.5621 65.156 25.8381C65.468 26.1141 65.972 26.3401 66.668 26.5161L67.4 26.6961C67.672 26.7681 67.86 26.8281 67.964 26.8761C68.204 26.9961 68.324 27.1521 68.324 27.3441C68.324 27.5601 68.21 27.7301 67.982 27.8541C67.754 27.9781 67.436 28.0401 67.028 28.0401C66.116 28.0401 65.316 27.8041 64.628 27.3321V28.5561C65.22 28.9561 66.04 29.1561 67.088 29.1561ZM74.62 28.2441C74.084 28.8521 73.36 29.1561 72.448 29.1561C71.816 29.1561 71.288 28.9801 70.864 28.6281C70.448 28.2841 70.24 27.8001 70.24 27.1761C70.24 26.5521 70.468 26.0721 70.924 25.7361C71.372 25.3921 71.932 25.2201 72.604 25.2201C73.316 25.2201 73.944 25.3721 74.488 25.6761V25.3521C74.488 24.4961 73.912 24.0681 72.76 24.0681C72.088 24.0681 71.468 24.2441 70.9 24.5961V23.4561C71.484 23.1201 72.2 22.9521 73.048 22.9521C73.88 22.9521 74.542 23.1501 75.034 23.5461C75.526 23.9421 75.772 24.4961 75.772 25.2081V27.4041C75.772 27.5881 75.818 27.7321 75.91 27.8361C76.002 27.9401 76.12 27.9921 76.264 27.9921C76.392 27.9921 76.508 27.9641 76.612 27.9081V28.8921C76.436 29.0201 76.184 29.0841 75.856 29.0841C75.184 29.0841 74.772 28.8041 74.62 28.2441ZM72.808 28.0401C72.416 28.0401 72.106 27.9601 71.878 27.8001C71.65 27.6401 71.536 27.4081 71.536 27.1041C71.536 26.8161 71.658 26.5921 71.902 26.4321C72.146 26.2721 72.484 26.1921 72.916 26.1921C73.468 26.1921 73.992 26.3321 74.488 26.6121V27.3321C74.296 27.5401 74.048 27.7101 73.744 27.8421C73.44 27.9741 73.128 28.0401 72.808 28.0401ZM81.456 28.6641C80.984 28.9921 80.364 29.1561 79.596 29.1561C78.548 29.1561 77.728 28.9561 77.136 28.5561V27.3321C77.824 27.8041 78.624 28.0401 79.536 28.0401C79.944 28.0401 80.262 27.9781 80.49 27.8541C80.718 27.7301 80.832 27.5601 80.832 27.3441C80.832 27.1521 80.712 26.9961 80.472 26.8761C80.368 26.8281 80.18 26.7681 79.908 26.6961L79.176 26.5161C78.48 26.3401 77.976 26.1141 77.664 25.8381C77.352 25.5621 77.196 25.1761 77.196 24.6801C77.196 24.1441 77.416 23.7221 77.856 23.4141C78.296 23.1061 78.908 22.9521 79.692 22.9521C80.596 22.9521 81.32 23.1281 81.864 23.4801V24.6681C81.152 24.2681 80.444 24.0681 79.74 24.0681C79.348 24.0681 79.048 24.1261 78.84 24.2421C78.632 24.3581 78.528 24.5161 78.528 24.7161C78.528 24.9001 78.652 25.0561 78.9 25.1841C78.932 25.2001 79.12 25.2601 79.464 25.3641L80.148 25.5081C81.492 25.8041 82.164 26.4241 82.164 27.3681C82.164 27.9041 81.928 28.3361 81.456 28.6641Z" fill="#0039A6"/>
<path fill-rule="evenodd" clip-rule="evenodd" d="M107.844 11.5099L107.785 11.4379L107.844 11.3678C108.958 9.95744 111.367 7.21216 112.273 6.38833H110.868C109.984 6.39042 109.372 6.48535 108.734 7.07915C107.463 8.28946 106.412 9.70813 105.337 11.114L105.132 11.3834L105.144 3.3335H102.571L102.574 17.2879L105.132 17.2941V11.6332L105.338 11.9084C106.557 13.5393 107.794 15.1867 109.212 16.6466C109.662 17.0967 110.365 17.3797 110.951 17.3768C111.654 17.3742 112.053 17.1966 112.333 16.8591C111.628 16.0087 108.709 12.5734 107.844 11.5099M56.9748 6.1354C53.8545 6.13983 51.6414 8.40162 51.6334 12.0743C51.6334 15.4175 54.2857 17.4981 56.9955 17.5002C58.607 17.5009 59.6116 17.2482 60.1938 16.7692V14.9095C59.3633 15.3208 58.3813 15.4517 57.5117 15.4517C55.8414 15.4559 54.4969 14.5358 54.2785 13.0637L54.2606 12.9322H56.2107C58.0442 12.933 59.3385 12.7643 60.1521 12.358C60.9636 11.9478 61.3178 11.3339 61.322 10.338C61.322 7.74262 59.2377 6.13775 56.9748 6.1354V6.1354ZM58.2455 10.9482C57.7402 11.1263 56.9282 11.1959 55.6108 11.1972H54.2513L54.2593 11.0768L54.2777 10.7033C54.3399 9.37566 55.3173 8.22038 56.7276 8.22038C57.3837 8.22038 57.9346 8.36485 58.3305 8.66319C58.7262 8.96101 58.9506 9.42364 58.9485 10.006C58.9596 10.4311 58.7557 10.7761 58.2455 10.9482V10.9482ZM62.6655 10.3729L62.6663 17.3106H65.2263V10.8707C65.2276 10.0075 65.3981 9.38609 65.7492 8.97248C66.1011 8.55862 66.6227 8.3792 67.2622 8.37998C67.5223 8.37998 67.7524 8.40162 67.9584 8.43813V6.39697C67.6363 6.23398 67.2148 6.12888 66.6623 6.12888C63.7952 6.13357 62.6761 8.17839 62.6655 10.3729V10.3729ZM29 17.3106H31.5549V3.33483H29V17.3106ZM38.4473 6.1354C35.0366 6.13983 33.5493 8.48664 33.5407 10.7925V17.3106H36.0821V10.9808C36.0821 10.1656 36.2925 9.51205 36.6708 9.05958C37.0497 8.60712 37.5917 8.36537 38.2206 8.3659C38.9547 8.36537 39.5553 8.58 39.9676 9.0515C40.3764 9.52509 40.585 10.2318 40.585 11.1845L40.5884 17.3106H43.1256V10.9404C43.1202 7.83624 41.0196 6.14114 38.4473 6.1354V6.1354ZM47.6169 3.33483H45.0892L45.0972 13.4186C45.1099 15.9785 46.3913 17.4871 49.1563 17.5002C50.3306 17.4986 51.0364 17.1155 51.3266 16.5008V14.9113C50.8708 15.114 50.2529 15.205 49.4872 15.205C48.913 15.205 48.4349 15.0587 48.1063 14.7077C47.7799 14.3569 47.6169 13.8265 47.6169 13.0866V8.36668H49.8331C50.9149 8.36485 51.3694 7.6709 51.3722 7.15716V6.1354H47.6169V3.33483ZM95.9073 6.1354C92.4953 6.13983 91.0075 8.48664 91.0002 10.7925L91.015 17.3106H93.5416V10.9816C93.5416 10.1656 93.7528 9.51205 94.1301 9.05958C94.5071 8.60712 95.052 8.36537 95.6801 8.3659C96.4126 8.36537 97.0169 8.58 97.426 9.05306C97.8375 9.52509 98.0463 10.2318 98.0463 11.1852L98.052 17.3106H100.587V10.9396C100.581 7.83598 98.4814 6.14114 95.9073 6.1354V6.1354ZM74.7177 6.1354C73.2869 6.1354 72.3914 6.9913 71.8532 7.78148L71.6477 8.08294L71.6555 3.33483H69.1327V11.9937C69.1327 15.6749 71.3324 17.5002 74.1919 17.5002C77.4459 17.5002 79.502 14.9192 79.5064 11.621C79.502 8.38598 77.4262 6.13696 74.7177 6.1354V6.1354ZM74.4741 15.3273H74.4687C73.6398 15.3273 72.8876 15.0809 72.396 14.4693C71.9024 13.8557 71.6677 12.8944 71.6677 11.5994C71.6715 9.82342 72.7324 8.36824 74.1919 8.3659C75.039 8.36537 75.737 8.60086 76.2055 9.20249C76.6774 9.79917 76.9147 10.7297 76.9147 12.0956C76.9134 13.9292 75.913 15.3249 74.4741 15.3273V15.3273ZM84.7239 6.13696C83.1778 6.13696 82.1631 6.555 81.4547 7.11569V8.91172C82.1755 8.56748 83.0804 8.28244 84.3104 8.28244C85.1447 8.28323 85.87 8.40032 86.2981 8.74299C86.7295 9.0854 86.921 9.64192 86.9204 10.4404V10.6997H85.8355C81.7617 10.7153 80.4177 12.1668 80.4102 14.0784C80.4117 16.0471 82.1533 17.496 84.7589 17.5002H85.3183C87.746 17.4947 89.4136 15.919 89.4188 13.6246V11.0616C89.4188 7.15377 87.1684 6.15339 84.7239 6.13696V6.13696ZM86.9407 13.6439C86.9407 14.2307 86.7904 14.6946 86.4678 15.0099C86.1447 15.3223 85.6674 15.4728 85.053 15.4728H85.0486C84.4252 15.4728 83.9199 15.3401 83.5646 15.0824C83.2078 14.8295 83.0114 14.4393 83.0138 13.9746C83.0096 13.4966 83.1835 13.0866 83.6336 12.8308C84.0798 12.5776 84.7716 12.4571 85.8355 12.4547H86.9407V13.6439Z" fill="#05BE50"/>
<path fill-rule="evenodd" clip-rule="evenodd" d="M2.6679 0C1.19325 0 0 1.20165 0 2.68425V20H17.3261C18.8013 20 19.9971 18.7981 19.9971 17.3158L20 0H2.6679ZM15.3265 14.435L4.66798 16.3616V5.60213L15.3265 3.67526V14.435Z" fill="#0039A6"/>
</svg>
