<?xml version="1.0" encoding="UTF-8"?>
<svg width="44px" height="39px" viewBox="0 0 44 39" version="1.1" xmlns="http://www.w3.org/2000/svg" xmlns:xlink="http://www.w3.org/1999/xlink">
    <title>Icono/I/Informacion Copy 2</title>
    <g id="Bocetos" stroke="none" stroke-width="1" fill="none" fill-rule="evenodd">
        <g id="AG_Desktop_Cambio-TIE/DI_U.Multiempresa_Banner-OP2" transform="translate(-263.000000, -443.000000)">
            <g id="Group-3" transform="translate(263.000000, 443.000000)">
                <g id="Icono/C/Campana" transform="translate(3.227037, 8.125000)" fill="#00A94F">
                    <path d="M29.4860899,-3.55271368e-15 C30.9996336,-3.55271368e-15 32.2324099,1.24984568 32.2670509,2.79874486 L32.2690007,2.83886831 C32.2691307,2.8476286 32.2703655,2.85605453 32.2703655,2.86488169 L32.2703655,21.5101852 C32.2703655,23.0898457 31.021341,24.375 29.4860899,24.375 L2.78427563,24.375 C1.24902449,24.375 4.4408921e-16,23.0898457 4.4408921e-16,21.5101852 L0.000528063481,2.85422389 L0.00110487128,2.84361626 C0.00149482585,2.82977366 0.00227473499,2.81599794 0.00311963656,2.80215535 C0.0360707978,1.25158436 1.26969208,-3.55271368e-15 2.78427563,-3.55271368e-15 Z M2.23846922,4.92147634 L2.23846922,21.5101852 C2.23846922,21.8199383 2.4832307,22.0718467 2.78427563,22.0718467 L29.4860899,22.0718467 C29.7871348,22.0718467 30.0318963,21.8199383 30.0318963,21.5101852 L30.0318963,4.93458333 L16.8130213,13.2654835 C16.6336422,13.3784311 16.4311258,13.435072 16.2284794,13.435072 C16.0279128,13.435072 15.8272811,13.3798354 15.6492019,13.2687603 L2.23846922,4.92147634 Z M29.4860899,2.30322016 L2.78427563,2.30322016 C2.678143,2.30322016 2.57980945,2.33578704 2.49590423,2.3899537 L16.2248398,10.9353138 L29.7797907,2.39289609 C29.6947806,2.33672325 29.5943673,2.30322016 29.4860899,2.30322016 Z" id="Combined-Shape"></path>
                </g>
                <g id="Group-2" transform="translate(24.442203, 1.772727)">
                    <ellipse id="Oval" fill="#D93549" fill-rule="nonzero" cx="9.77889864" cy="9.84848485" rx="9.77889864" ry="9.84848485"></ellipse>
                    <text id="15" font-family="Omnes-Semibold, Omnes" font-size="12" font-weight="500" fill="#FFFFFF">
                        <tspan x="7.24461455" y="13.4621212">1</tspan>
                    </text>
                </g>
            </g>
        </g>
    </g>
</svg>