<svg width="20" height="21" viewBox="0 0 20 21" fill="none" xmlns="http://www.w3.org/2000/svg">
<path fill-rule="evenodd" clip-rule="evenodd" d="M14.75 9.1875H4.25V7.875H14.75V9.1875ZM14.75 3.9375H4.25V5.25H14.75V3.9375ZM4.25 13.125H9.5V11.8125H4.25V13.125ZM4.25 17.0625H8.1875V15.75H4.25V17.0625ZM19.3438 15.75C19.3438 18.2871 17.2871 20.3438 14.75 20.3438H0.96875V3.9375C0.96875 2.12532 2.43782 0.65625 4.25 0.65625H18.0312V12.5475C18.8695 13.4031 19.3405 14.5522 19.3438 15.75V15.75ZM11.5344 19.0312C10.201 17.7249 9.79082 15.7416 10.4965 14.0134C11.2021 12.2853 12.8833 11.156 14.75 11.1563C15.432 11.1566 16.1051 11.3114 16.7188 11.6091V1.96875H4.25C3.16269 1.96875 2.28125 2.85019 2.28125 3.9375V19.0312H11.5344ZM18.0312 15.75C18.0306 13.9491 16.5786 12.4852 14.7777 12.47C12.9768 12.4548 11.5003 13.8939 11.4692 15.6946C11.4382 17.4953 12.8644 18.9844 14.6647 19.0312H14.75C16.5622 19.0312 18.0312 17.5622 18.0312 15.75V15.75ZM14.0938 16.1306L13.2472 15.2775L12.3153 16.2094L14.0938 17.9878L17.1847 14.9034L16.2528 13.9716L14.0938 16.1306Z" fill="white"/>
</svg>
