<svg width="48" height="48" viewBox="0 0 48 48" fill="none" xmlns="http://www.w3.org/2000/svg">
<path fill-rule="evenodd" clip-rule="evenodd" d="M24.0148 48C37.2643 48 48 37.2578 48 24C48 10.7422 37.2643 0 24.0148 0C10.7653 0 0 10.7422 0 24C0 37.2578 10.7653 48 24.0148 48Z" fill="#05BE50"/>
<path fill-rule="evenodd" clip-rule="evenodd" d="M16.1374 22.5316L20.3234 26.5898L31.9176 15.5321C32.5784 14.8511 33.6525 14.8238 34.3411 15.4502L34.4514 15.5591C35.1397 16.1855 35.195 17.2478 34.5339 17.9013L21.5628 32.3908C21.067 32.8811 20.6539 33.0445 19.9378 32.99C19.2217 32.9354 18.8362 32.636 18.4781 32.1729L13.356 24.6017C12.7777 23.8664 12.9152 22.8041 13.6866 22.2322C14.4849 21.633 15.559 21.7964 16.1374 22.5316Z" fill="white"/>
</svg>
