<svg width="32" height="32" viewBox="0 0 32 32" fill="none" xmlns="http://www.w3.org/2000/svg">
<path fill-rule="evenodd" clip-rule="evenodd" d="M6 19H13V13H6V19ZM8 15H11V17H8V15ZM6 23H26V25H6V23ZM29.7 7.99996L28.5 4.75996C28.1707 3.74791 27.4517 2.90881 26.502 2.42836C25.5524 1.9479 24.4504 1.86571 23.44 2.19996L6.83 7.99996H6C3.23858 7.99996 1 10.2385 1 13V30H26C28.7614 30 31 27.7614 31 25V7.99996H29.7ZM24.08 4.09996C24.5826 3.93768 25.1291 3.98082 25.6 4.21996C26.0822 4.46787 26.4431 4.90095 26.6 5.41996L27.56 7.99996H12.9L24.08 4.09996ZM29 25C29 26.6568 27.6569 28 26 28H3V13C3 11.3431 4.34315 9.99996 6 9.99996H29V25Z" fill="#33C95A"/>
</svg>
