<?xml version="1.0" encoding="UTF-8"?>
<svg width="98px" height="105px" viewBox="0 0 98 105" version="1.1" xmlns="http://www.w3.org/2000/svg" xmlns:xlink="http://www.w3.org/1999/xlink">
    <title>Group</title>
    <defs>
        <path d="M1.30623046,14.4641493 C0.681092992,17.8290934 1.11730538,21.1353021 2.38081711,24.082051 L2.38081711,24.082051 L0,28.5453447 L5.0895456,28.4531303 C7.79165569,31.6483294 11.6766534,33.9648487 16.2638027,34.7319314 L16.2638027,34.7319314 C26.2954842,36.4076489 35.8626747,30.0530792 37.6327945,20.5356149 L37.6327945,20.5356149 C39.4035159,11.0193253 32.7063021,1.94531238 22.6758239,0.269007569 L22.6758239,0.269007569 C21.5940172,0.0881029157 20.5158205,0.000587352771 19.453869,0 L19.453869,0 C10.6694541,0 2.8862218,5.97396504 1.30623046,14.4641493 L1.30623046,14.4641493 Z" id="path-1"></path>
        <path d="M0,22.828887 C0,33.4691586 9.28807967,53.2790462 9.28807967,53.2790462 L9.28807967,53.2790462 C9.28807967,53.2790462 11.8131218,51.8481381 15.6394126,53.6271375 L15.6394126,53.6271375 C17.9457925,54.7003186 22.1110992,53.5000661 24.4889763,53.4988617 L24.4889763,53.4988617 C31.7804971,53.4952483 43.3421872,62.2222222 43.3421872,62.2222222 L43.3421872,62.2222222 C43.3421872,62.2222222 39.9240261,54.441358 40.8207199,48.4250396 L40.8207199,48.4250396 C42.2375557,38.9229904 45.6944444,26.271257 45.6944444,22.828887 L45.6944444,22.828887 C45.6944444,14.3434089 37.9804944,0.0258960652 23.0274547,0 L23.0274547,0 C8.07501083,0.0258960652 0,13.7821268 0,22.828887 L0,22.828887 Z" id="path-3"></path>
        <path d="M0,17.7770166 C0,18.5325323 1.31966448,25.5209036 1.31966448,26.2776138 L1.31966448,26.2776138 C1.31966448,36.5000703 7.89697495,49.5833333 17.501751,49.5833333 L17.501751,49.5833333 C26.0565154,49.5833333 33.7667178,40.5470067 33.5595171,26.2776138 L33.5595171,26.2776138 L35,17.6205382 C35,8.37875913 31.5890671,0 17.501751,0 L17.501751,0 C4.43584698,0 0,7.90215711 0,17.7770166 L0,17.7770166 Z" id="path-5"></path>
        <path d="M21.6873015,0 C7.57064994,0.00179366048 3.36407407,17.089997 3.36407407,17.089997 L3.36407407,17.089997 C7.48224658,40.1433173 3.37238043,41.4849753 0,40.9193744 L0,40.9193744 C0,40.9193744 2.71914488,47.155334 7.62642118,45.1858948 L7.62642118,45.1858948 C7.40511613,46.1156088 6.98564517,47.0453228 6.17518217,47.5660822 L6.17518217,47.5660822 C7.03251675,49.5337278 11.9688653,50.5830191 16.9129269,48.2470753 L16.9129269,48.2470753 C16.9129269,48.2470753 9.62884622,33.3447462 9.50128433,31.8416587 L9.50128433,31.8416587 C9.50365758,18.6600478 16.5171884,15.4302632 16.5171884,3.76011025 L16.5171884,3.76011025 C16.5171884,1.45824597 26.4509965,4.1977634 26.2468975,0.55184954 L26.2468975,0.55184954 C24.6253782,0.172789293 23.1106549,0 21.6938279,0 L21.6938279,0 C21.692048,0 21.6896747,0 21.6873015,0 L21.6873015,0 Z" id="path-7"></path>
        <path d="M0,3.89281127 C0,5.99098284 1.93686717,7.69631296 3.61494138,7.77777778 L3.61494138,7.77777778 L7.53005929,7.69691641 C7.53005929,7.69691641 7.77777778,4.20298101 7.77777778,3.89281127 L7.77777778,3.89281127 C7.77777778,1.74334704 6.11427525,0 3.97690181,0 L3.97690181,0 C1.83836264,0 0,1.74334704 0,3.89281127 L0,3.89281127 Z" id="path-9"></path>
        <path d="M0,1.45833333 C0,2.26479547 0.652996112,2.91666667 1.45833333,2.91666667 L1.45833333,2.91666667 C2.26367055,2.91666667 2.91666667,2.26479547 2.91666667,1.45833333 L2.91666667,1.45833333 C2.91666667,0.651871192 2.26367055,0 1.45833333,0 L1.45833333,0 C0.652996112,0 0,0.651871192 0,1.45833333 L0,1.45833333 Z" id="path-11"></path>
        <path d="M0,1.03540898 L0,1.88125768 C0,2.45045085 0.6564777,2.91666667 1.45868364,2.91666667 L1.45868364,2.91666667 C2.26088958,2.91666667 2.91666667,2.45045085 2.91666667,1.88125768 L2.91666667,1.88125768 L2.91666667,1.03540898 C2.91666667,0.465703496 2.26088958,0 1.45868364,0 L1.45868364,0 C0.6564777,0 0,0.465703496 0,1.03540898 L0,1.03540898 Z" id="path-13"></path>
        <path d="M0,1.03540898 L0,1.88125768 C0,2.45045085 0.656635432,2.91666667 1.45903412,2.91666667 L1.45903412,2.91666667 C2.26073202,2.91666667 2.91666667,2.45045085 2.91666667,1.88125768 L2.91666667,1.88125768 L2.91666667,1.03540898 C2.91666667,0.465703496 2.26073202,0 1.45903412,0 L1.45903412,0 C0.656635432,0 0,0.465703496 0,1.03540898 L0,1.03540898 Z" id="path-15"></path>
        <path d="M0,3.89281127 C0,4.20298101 0.247737057,7.69691641 0.247737057,7.69691641 L0.247737057,7.69691641 L4.16314838,7.77777778 C5.84134836,7.69631296 7.77777778,5.99098284 7.77777778,3.89281127 L7.77777778,3.89281127 C7.77777778,1.74334704 5.93927736,0 3.80116083,0 L3.80116083,0 C1.66304429,0 0,1.74334704 0,3.89281127 L0,3.89281127 Z" id="path-17"></path>
        <path d="M0,1.45868946 C0,2.26353276 0.652221168,2.91666667 1.45867916,2.91666667 L1.45867916,2.91666667 C2.26306221,2.91666667 2.91666667,2.26353276 2.91666667,1.45868946 L2.91666667,1.45868946 C2.91666667,0.652421652 2.26306221,0 1.45867916,0 L1.45867916,0 C0.652221168,0 0,0.652421652 0,1.45868946 L0,1.45868946 Z" id="path-19"></path>
        <path d="M9.09736919,0.506039148 C8.89134129,4.06993379 -0.839284681,3.05668682 0.0584938824,5.13927749 L0.0584938824,5.13927749 C7.46471785,22.3177288 21.3548316,12.0537824 25.384354,32.1124496 L25.384354,32.1124496 C25.384354,35.2526972 22.4831937,43.1664249 21.0386027,45.5838428 L21.0386027,45.5838428 C21.0386027,45.5838428 26.7786359,53.7599396 29.7001594,56.3888889 L29.7001594,56.3888889 C29.7001594,43.2733592 32.3365979,33.6393322 32.0634911,18.1659873 L32.0634911,18.1659873 C32.0634911,18.1659873 27.8740575,0.00233736327 13.4257519,0 L13.4257519,0 C12.0733943,0 10.6341936,0.158940702 9.09736919,0.506039148 L9.09736919,0.506039148 Z" id="path-21"></path>
        <path d="M46.3754995,0 C45.6431826,0 45.0502979,0.574790614 45.0502979,1.28373879 L45.0502979,1.28373879 C45.0502979,1.96048915 45.5907466,2.51441081 46.2759902,2.56330378 L46.2759902,2.56330378 L46.3754995,2.56688132 L63.4618998,2.56628506 L63.4613039,12.4247788 C63.4613039,13.1015292 64.0017525,13.6548546 64.6869961,13.7043438 L64.6869961,13.7043438 L64.7865054,13.7085176 C65.4842622,13.7085176 66.0568875,13.1844088 66.1075359,12.5201798 L66.1075359,12.5201798 L66.1111111,12.4247788 L66.1111111,0 L46.3754995,0 Z M0,0 L0,12.4247788 L0.00417104802,12.5201798 C0.0542236243,13.1844088 0.626253067,13.7085176 1.32520154,13.7085176 L1.32520154,13.7085176 L1.42411497,13.7043438 C2.10995443,13.6548546 2.65040308,13.1015292 2.65040308,12.4247788 L2.65040308,12.4247788 L2.64980722,2.56628506 L19.7362075,2.56688132 L19.8351209,2.56330378 C20.5209604,2.51441081 21.061409,1.96048915 21.061409,1.28373879 L21.061409,1.28373879 C21.061409,0.574790614 20.4685244,0 19.7362075,0 L19.7362075,0 L0,0 Z M63.4648791,51.6464869 L63.4613039,51.7418878 L63.4618998,61.5991891 L46.3754995,61.5997853 C45.676551,61.5997853 45.1045216,62.123298 45.0538731,62.7869307 L45.0538731,62.7869307 L45.0502979,62.8829279 C45.0502979,63.5596782 45.5907466,64.1141962 46.276586,64.1624929 L46.276586,64.1624929 L46.3754995,64.1666667 L66.1111111,64.1666667 L66.1111111,51.7418878 C66.1111111,51.0329396 65.5176306,50.458149 64.7865054,50.458149 L64.7865054,50.458149 C64.087557,50.458149 63.5155275,50.9822579 63.4648791,51.6464869 L63.4648791,51.6464869 Z M0,51.7418878 L0,64.1666667 L19.7362075,64.1666667 L19.8351209,64.1624929 C20.5209604,64.1141962 21.061409,63.5596782 21.061409,62.8829279 L21.061409,62.8829279 L21.0578339,62.7869307 C21.0071854,62.123298 20.4345601,61.5997853 19.7362075,61.5997853 L19.7362075,61.5997853 L2.65040308,61.5991891 L2.65040308,51.7418878 L2.6468279,51.6464869 C2.59617946,50.9822579 2.02415002,50.458149 1.32520154,50.458149 L1.32520154,50.458149 C0.594076411,50.458149 0,51.0329396 0,51.7418878 L0,51.7418878 Z" id="path-23"></path>
        <path d="M0,3.5109666 L0,7.77825048 C0,11.9964919 2.37495732,15.8791175 6.26032776,18.0564841 L6.26032776,18.0564841 L8.75,19.4444444 L11.2241379,18.0541206 C15.117873,15.8785267 17.5,12.0024006 17.5,7.77825048 L17.5,7.77825048 L17.5,3.5109666 L8.75,0 L0,3.5109666 Z M5.88929669,7.72448104 C5.88929669,7.35754899 6.20834756,7.05620383 6.59610789,7.05620383 L6.59610789,7.05620383 L11.6113008,7.05620383 L11.6113008,11.7205543 C11.6113008,12.0874863 11.2934449,12.3876497 10.9038921,12.3876497 L10.9038921,12.3876497 L5.88929669,12.3876497 L5.88929669,7.72448104 Z M7.24018436,8.61315384 L7.24018436,11.5379746 L10.2162001,11.0487318 L10.2162001,8.12095674 L7.24018436,8.61315384 Z" id="path-25"></path>
    </defs>
    <g id="Page-2" stroke="none" stroke-width="1" fill="none" fill-rule="evenodd">
        <g id="Group-4-Copy-2" transform="translate(-0.000000, -133.000000)">
            <g id="Group" transform="translate(0.000000, 133.000000)">
                <g id="Group-23" transform="translate(13.611111, 41.805556)">
                    <path d="M30.1857194,19.9999299 C28.2514575,10.9714649 27.7764778,13.8663325 32.9785537,0.154083581 L21.4777574,1.16068366 L4.95824136,0 C10.1603173,13.7122489 14.2686593,10.920302 12.7162438,20.0261062 C12.1824737,23.1553713 6.92509989,28.3882638 6.92509989,28.3882638 L22.1762571,53.0487759 L36.1514883,28.3882638 C36.1514883,28.3882638 30.8620999,23.1553713 30.1857194,19.9999299" id="Fill-9" fill="#F8BF68"></path>
                    <path d="M38.3110163,60.6692501 C37.9291698,57.7606994 41.947871,53.6403021 42.3000312,46.1901528 C42.4228507,43.5867946 40.6696167,40.3641276 39.1329175,36.7452457 C38.7784289,35.9105767 40.2941731,33.2489167 41.4106083,31.9650851 L36.1514883,27.1980128 C33.408131,32.6070009 26.3468819,41.3338428 21.5382941,41.8764074 C16.7297063,41.3338428 10.5503129,33.1977538 6.92509989,27.1980128 L1.66539773,31.9650851 C2.78183296,33.2489167 4.29757714,35.9105767 3.94308858,36.7452457 C2.40638941,40.3641276 0.775974873,43.5832251 0.775974873,46.1901528 C0.775974873,54.5326781 4.70270692,56.3180249 5.51471273,60.6644907 C5.89481294,62.6991079 10.109094,62.3290693 15.9770729,63.0382108 L29.5035181,62.7823963 C32.0163705,62.4046238 38.5485061,62.4772038 38.3110163,60.6692501" id="Fill-11" fill="#131A3F"></path>
                    <path d="M39.6684339,60.8766382 C39.6358372,56.3487227 43.75,54.597881 43.75,46.0626025 C43.75,43.3955882 42.0817501,40.102126 40.5095438,36.3993607 C40.1469061,35.5456544 41.6975753,32.822123 42.8396222,31.5091405 L37.4588467,26.6320085 L29.2648641,31.7607905 C27.9935948,32.556195 27.2188423,33.9697185 27.2188423,35.4933017 L27.6292108,62.8017906 C27.6292108,62.8017906 32.8865846,63.1046035 38.9990384,61.9349961 C38.9990384,61.9349961 39.6760009,61.9100096 39.6684339,60.8766382" id="Fill-13" fill="#3C62AF"></path>
                    <path d="M16.315787,63.0808663 L16.3384883,35.9217016 C16.3384883,34.415966 15.572467,33.0191001 14.3163319,32.2320245 L6.21722873,27.1633291 L0.899318264,31.983944 C2.02797724,33.2820536 3.56060183,35.9734595 3.20262077,36.8176471 C1.64845911,40.4769834 0,43.7323709 0,46.3678546 C0,54.803187 4.62173917,57.0269879 4.62173917,61.5025507 C4.62173917,61.5025507 13.1835983,63.7126685 16.315787,63.0808663" id="Fill-15" fill="#3C62AF"></path>
                    <path d="M30.9087829,36.4385658 C30.9087829,37.2660958 30.2527754,37.9365676 29.44368,37.9365676 C28.6345846,37.9365676 27.978577,37.2660958 27.978577,36.4385658 C27.978577,35.6116307 28.6345846,34.9411589 29.44368,34.9411589 C30.2527754,34.9411589 30.9087829,35.6116307 30.9087829,36.4385658" id="Fill-17" fill="#131A3F"></path>
                    <path d="M30.9087829,59.4102861 C30.9087829,60.237816 30.2527754,60.9076929 29.44368,60.9076929 C28.6345846,60.9076929 27.978577,60.237816 27.978577,59.4102861 C27.978577,58.583351 28.6345846,57.9128792 29.44368,57.9128792 C30.2527754,57.9128792 30.9087829,58.583351 30.9087829,59.4102861" id="Fill-19" fill="#131A3F"></path>
                    <line x1="42.1190034" y1="31.6193787" x2="27.8888198" y2="41.2237236" id="Stroke-21" stroke="#3C4B9B" stroke-width="2"></line>
                </g>
                <g id="Group-26" transform="translate(59.305556, 16.527778)">
                    <mask id="mask-2" fill="white">
                        <use xlink:href="#path-1"></use>
                    </mask>
                    <g id="Clip-25"></g>
                    <polygon id="Fill-24" fill="#FFFFFF" mask="url(#mask-2)" points="-0.602273926 36.9950016 40.0045865 36.9950016 40.0045865 -1.99582472 -0.602273926 -1.99582472"></polygon>
                </g>
                <g id="Group-29" transform="translate(10.694444, 0.972222)">
                    <mask id="mask-4" fill="white">
                        <use xlink:href="#path-3"></use>
                    </mask>
                    <g id="Clip-28"></g>
                    <polygon id="Fill-27" fill="#0036A9" mask="url(#mask-4)" points="-0.595809845 62.8244563 46.2896585 62.8244563 46.2896585 -0.601631839 -0.595809845 -0.601631839"></polygon>
                </g>
                <g id="Group-32" transform="translate(17.500000, 6.805556)">
                    <mask id="mask-6" fill="white">
                        <use xlink:href="#path-5"></use>
                    </mask>
                    <g id="Clip-31"></g>
                    <polygon id="Fill-30" fill="#FFBE5D" mask="url(#mask-6)" points="-0.583664076 50.1811762 35.5842477 50.1811762 35.5842477 -0.597245644 -0.583664076 -0.597245644"></polygon>
                </g>
                <g id="Group-39" transform="translate(25.277778, 24.305556)" stroke="#001861" stroke-linecap="round" stroke-width="0.694">
                    <path d="M5.92347662,0.696419177 C5.0466462,0.266127034 4.07711384,0 3.03436467,0 C1.93847426,0 0.918162494,0.291777832 0,0.763752523" id="Stroke-33"></path>
                    <path d="M17.5,0.696419177 C16.6231696,0.266127034 15.6536372,0 14.610888,0 C13.4571327,0 12.3618328,0.373219117 11.7406708,0.763752523 C10.5444025,1.51724473 8.75059046,2.41245759 10.5119273,9.25288426 C10.8431743,10.5405543 11.3049126,11.2728846 11.2476382,12.4945039 C11.1903637,13.7039391 10.430444,14.2688979 9.6935522,14.4792344 C9.05408597,14.6619964 8.11643836,14.6292916 7.31164384,14.1771963" id="Stroke-35"></path>
                    <path d="M17.5,0.696419177 C16.6231696,0.266127034 15.6536372,0 14.610888,0 C13.4571327,0 12.3618328,0.373219117 11.7406708,0.763752523" id="Stroke-37"></path>
                </g>
                <g id="Group-42" transform="translate(8.750000, 6.805556)">
                    <mask id="mask-8" fill="white">
                        <use xlink:href="#path-7"></use>
                    </mask>
                    <g id="Clip-41"></g>
                    <polygon id="Fill-40" fill="#0036A9" mask="url(#mask-8)" points="-0.593311124 51.180906 27.0449009 51.180906 27.0449009 -4.20314439 -0.593311124 -4.20314439"></polygon>
                </g>
                <g id="Group-45" transform="translate(13.611111, 30.138889)">
                    <mask id="mask-10" fill="white">
                        <use xlink:href="#path-9"></use>
                    </mask>
                    <g id="Clip-44"></g>
                    <polygon id="Fill-43" fill="#FFBE5D" mask="url(#mask-10)" points="-0.58286704 8.38182429 8.36064482 8.38182429 8.36064482 -0.603443074 -0.58286704 -0.603443074"></polygon>
                </g>
                <g id="Group-48" transform="translate(16.527778, 34.027778)">
                    <mask id="mask-12" fill="white">
                        <use xlink:href="#path-11"></use>
                    </mask>
                    <g id="Clip-47"></g>
                    <polygon id="Fill-46" fill="#33C95A" mask="url(#mask-12)" points="-0.739519946 3.67819843 3.65692613 3.67819843 3.65692613 -0.761531767 -0.739519946 -0.761531767"></polygon>
                </g>
                <path d="M28.1944444,41.6955004 C32.7042962,44.6578001 38.4269021,44.4562545 41.8055556,40.8333333" id="Stroke-49" stroke="#001861" stroke-width="0.694" stroke-linecap="round"></path>
                <g id="Group-53" transform="translate(39.861111, 26.250000)">
                    <mask id="mask-14" fill="white">
                        <use xlink:href="#path-13"></use>
                    </mask>
                    <g id="Clip-52"></g>
                    <polygon id="Fill-51" fill="#001861" mask="url(#mask-14)" points="-0.700616543 3.42847942 3.61658259 3.42847942 3.61658259 -0.512325078 -0.700616543 -0.512325078"></polygon>
                </g>
                <g id="Group-56" transform="translate(26.250000, 26.250000)">
                    <mask id="mask-16" fill="white">
                        <use xlink:href="#path-15"></use>
                    </mask>
                    <g id="Clip-55"></g>
                    <polygon id="Fill-54" fill="#001861" mask="url(#mask-16)" points="-0.700784879 3.42847942 3.61745155 3.42847942 3.61745155 -0.512325078 -0.700784879 -0.512325078"></polygon>
                </g>
                <g id="Group-59" transform="translate(47.638889, 30.138889)">
                    <mask id="mask-18" fill="white">
                        <use xlink:href="#path-17"></use>
                    </mask>
                    <g id="Clip-58"></g>
                    <polygon id="Fill-57" fill="#F6BD68" mask="url(#mask-18)" points="-0.582910723 8.38182429 8.3606885 8.38182429 8.3606885 -0.603443074 -0.582910723 -0.603443074"></polygon>
                </g>
                <g id="Group-62" transform="translate(50.555556, 32.083333)">
                    <mask id="mask-20" fill="white">
                        <use xlink:href="#path-19"></use>
                    </mask>
                    <g id="Clip-61"></g>
                    <polygon id="Fill-60" fill="#FB9302" mask="url(#mask-20)" points="-0.691644929 3.62891738 3.60761995 3.62891738 3.60761995 -0.712250712 -0.691644929 -0.712250712"></polygon>
                </g>
                <g id="Group-65" transform="translate(24.305556, 6.805556)">
                    <mask id="mask-22" fill="white">
                        <use xlink:href="#path-21"></use>
                    </mask>
                    <g id="Clip-64"></g>
                    <polygon id="Fill-63" fill="#0036A9" mask="url(#mask-22)" points="-1.438203 56.9732297 32.9361151 56.9732297 32.9361151 -4.14063903 -1.438203 -4.14063903"></polygon>
                </g>
                <g id="Group-68">
                    <mask id="mask-24" fill="white">
                        <use xlink:href="#path-23"></use>
                    </mask>
                    <g id="Clip-67"></g>
                    <polygon id="Fill-66" fill="#FFFFFF" mask="url(#mask-24)" points="-0.595864003 64.7623262 66.7063792 64.7623262 66.7063792 -0.596255823 -0.595864003 -0.596255823"></polygon>
                </g>
                <g id="Group-71" transform="translate(70.972222, 24.305556)">
                    <mask id="mask-26" fill="white">
                        <use xlink:href="#path-25"></use>
                    </mask>
                    <g id="Clip-70"></g>
                    <polygon id="Fill-69" fill="#05BE50" mask="url(#mask-26)" points="-0.59747354 20.0347264 18.098071 20.0347264 18.098071 -0.590872871 -0.59747354 -0.590872871"></polygon>
                </g>
                <g id="Group-78" transform="translate(6.805556, 71.944444)">
                    <path d="M51.2386899,1.02587097 L47.4209006,6.31847767 L51.0378483,31.1111111 C51.0378483,31.1111111 60.4618165,29.339092 61.1686591,28.9843274 C61.8761012,28.6301641 57.9192216,3.55071255 51.2386899,1.02587097" id="Fill-72" fill="#3C62AF"></path>
                    <path d="M10.0117815,0 L13.8295708,5.29200541 L9.63947507,30.8236315 C9.63947507,30.8236315 0.788055303,28.3132211 0.0812127192,27.9584565 C-0.625629864,27.6036919 3.33124974,2.52484157 10.0117815,0" id="Fill-74" fill="#3C62AF"></path>
                    <line x1="8.64809687" y1="1.4603674" x2="23.3047386" y2="11.1676888" id="Stroke-76" stroke="#3C4B9B" stroke-width="2"></line>
                </g>
            </g>
        </g>
    </g>
</svg>