<svg width="100" height="84" viewBox="0 0 100 84" xmlns="http://www.w3.org/2000/svg">
    <g transform="translate(1.096)" fill-rule="nonzero" fill="none">
        <path d="M87.712 44.83c.108 7.081-.937 13.49-3.182 19.705a32.039 32.039 0 0 1-5.871 10.07c-2.553 2.979-5.548 5.284-9.315 6.439a72.23 72.23 0 0 1-11.189 2.359c-3.025.443-6.08.64-9.137.59-6.182-.148-12.218-1.166-18.02-3.36-4.252-1.61-8.031-3.992-11.026-7.457-1.694-1.965-2.867-4.282-3.895-6.655a44.205 44.205 0 0 1-3.087-10.478 79.078 79.078 0 0 1-.782-6.638 64.363 64.363 0 0 1-.048-7.907c.162-3.491.307-7.007 1.572-10.347a16.897 16.897 0 0 1 7.853-9.023 24.212 24.212 0 0 1 8.173-2.748 30.518 30.518 0 0 1 6.503-.29c6.077.375 11.82 2.224 17.66 3.678 3.346.836 6.7 1.648 10.113 2.136 2.376.341 4.766.655 7.185.605 1.75-.037 3.501 0 5.253.021a10.296 10.296 0 0 1 9.454 6.592c.99 2.533 1.437 5.143 1.694 7.832.157 1.793.007 3.572.092 4.877z" fill="#55ACED" opacity=".1"/>
        <rect fill="#90E8B0" x="48.246" width="3.728" height="12.906" rx="1.864"/>
        <path d="M31.686 6.375a1.818 1.818 0 0 1 2.567 0l6.675 6.657a1.808 1.808 0 0 1 0 2.56 1.818 1.818 0 0 1-2.567 0l-6.675-6.657a1.808 1.808 0 0 1 0-2.56zM68.519 6.375a1.808 1.808 0 0 1 0 2.56l-6.675 6.657a1.818 1.818 0 0 1-2.567 0 1.808 1.808 0 0 1 0-2.56l6.675-6.657a1.818 1.818 0 0 1 2.567 0z" fill="#90E8B0"/>
        <path d="M88.903 20.352a8.289 8.289 0 0 1 0 11.738l-38.606 38.5a8.334 8.334 0 0 1-11.77 0 8.289 8.289 0 0 1 0-11.737l38.606-38.5a8.334 8.334 0 0 1 11.77 0z" fill="#4A8EDA"/>
        <path d="M20.198 40.49a8.336 8.336 0 0 1 5.882-2.428c2.207 0 4.323.873 5.883 2.427L56.14 64.68l-5.73 5.887c-3.247 3.235-8.68 3.372-11.93.135L20.198 52.2a8.258 8.258 0 0 1 0-11.71z" fill="#55ACED"/>
        <ellipse fill="#FF9100" cx="1.864" cy="48.234" rx="1.864" ry="1.859"/>
        <ellipse fill="#FF9100" cx="87.39" cy="73.609" rx="1.864" ry="1.859"/>
        <path fill="#FFD691" d="m17.064 14.362 2.42 2.414-2.42 2.413-2.42-2.413z"/>
        <path fill="#56CC81" d="m98.026 45.938-2.85-4.376-2.851 4.376zM15.79 77.656l-2.851-4.375-2.851 4.375z"/>
    </g>
</svg>
