<?xml version="1.0" encoding="UTF-8"?>
<svg width="176px" height="124px" viewBox="0 0 176 124" version="1.1" xmlns="http://www.w3.org/2000/svg" xmlns:xlink="http://www.w3.org/1999/xlink">
    <title>Group 12 Copy</title>
    <defs>
        <rect id="path-1" x="0" y="0" width="162" height="118"></rect>
    </defs>
    <g id="Encuesta-satisfacción-CN" stroke="none" stroke-width="1" fill="none" fill-rule="evenodd">
        <g id="Group-12-Copy">
            <path d="M107,0 L176,0 L176,0 L176,63 C176,85.09139 158.09139,103 136,103 L67,103 L67,103 L67,40 C67,17.90861 84.90861,1.11635499e-14 107,0 Z" id="Rectangle-Copy" fill="#E5F6ED"></path>
            <g id="Group-10" transform="translate(0.000000, 6.000000)">
                <mask id="mask-2" fill="white">
                    <use xlink:href="#path-1"></use>
                </mask>
                <g id="Mask"></g>
                <g mask="url(#mask-2)">
                    <g transform="translate(8.725995, 4.173633)">
                        <g id="Group-7-Copy" stroke-width="1" fill="none" fill-rule="evenodd" transform="translate(111.540984, 85.749196)">
                            <path d="M12.035126,1.89710611 C12.035126,1.89710611 13.094977,5.55581642 12.2402554,10.9422399 C11.3855338,16.2947718 11.5906632,18.1918821 13.5394398,18.9710611 C13.5394398,18.9710611 16.2403733,10.7389839 14.7018791,6.3011039 C13.5394398,3.01504667 12.035126,1.89710611 12.035126,1.89710611 Z" id="Path" fill="#2F4A9F" fill-rule="nonzero"></path>
                            <path d="M0,3.27127135 C0,3.27127135 5.52447787,-0.475235715 9.41822034,0.0505900885 C13.5449316,0.609278773 15.1423726,5.44028674 15.175644,8.7266881 C15.175644,8.7266881 13.8111717,3.92854257 8.78590279,4.29004513 C3.86047105,4.6515477 1.66398389,8.10227252 1.66398389,8.10227252 L0,3.27127135 Z" id="Path" fill="#00A94F" fill-rule="nonzero"></path>
                            <path d="M20.9071795,19.5075243 L20.367245,22.4294708 L22.763466,23.9899729 C22.763466,23.9899729 16.8911085,25.2850723 14.2924469,22.4294708 C11.6937853,19.5739379 11.7612888,15.5562701 11.7612888,15.5562701 C11.7612888,15.5562701 14.326187,22.4294708 20.9071795,19.5075243 Z" id="Path" fill="#00A94F" fill-rule="nonzero"></path>
                        </g>
                        <path d="M95.372504,62.1940367 C95.372504,62.1940367 92.2338393,62.1389447 89.4806626,60.3217068 C89.4806626,60.3217068 87.5534393,62.5244367 86.1217799,62.5244367 C86.1217799,62.5244367 90.8572567,67.9762644 95.372504,62.1940367 Z" id="Path-Copy" fill="#2F4A9F" fill-rule="nonzero"></path>
                        <path d="M84.5995799,60.7566373 C84.5995799,60.7566373 81.9565138,64.1706695 79.0932112,64.5561615 C79.0932112,64.5561615 79.4786726,70.1731132 76.7254693,74.6335891 C76.7254693,74.6335891 79.6438595,74.964065 82.8375358,71.8251132 C82.8375358,71.8251132 86.0862998,65.6026052 84.5995799,60.7566373 Z" id="Path-Copy-2" fill="#00A94F" fill-rule="nonzero"></path>
                        <path d="M130.864617,61.386856 C130.864617,61.386856 134.00332,64.4707917 138.518453,65.4622193 C138.518453,65.4622193 138.243395,69.5372033 139.674837,71.0237756 C139.674837,71.0237756 129.543198,71.6297113 130.864617,61.386856 Z" id="Path-Copy-3" fill="#00A94F" fill-rule="nonzero"></path>
                        <g id="Group-5754-Copy" stroke-width="1" fill="none" fill-rule="evenodd" transform="translate(22.384075, 0.000000)">
                            <path d="M100.538642,63.455257 C100.538642,63.455257 91.2002778,85.7446913 90.2141587,87.8008859 C89.2280397,89.8376528 82.5772195,103.499467 76.2162368,101.001574 C69.8552541,98.503682 69.429786,97.4851869 69.429786,97.4851869 C69.429786,97.4851869 69.1784443,89.4725488 75.9069275,84.553358 C78.3623774,82.7664696 80.643701,80.7104983 82.2097189,78.1355658 C85.2840111,73.062741 90.8327772,62.4367618 92.3795472,59.6697868 C94.7770296,55.4234146 100.538642,63.455257 100.538642,63.455257 Z" id="Path" fill="#F8BF68" fill-rule="nonzero"></path>
                            <path d="M58.3651627,68.6752412 L74.0990681,86.5301196 C74.0990681,86.5301196 65.9058188,97.098104 80.4309133,100.836943 C77.2264851,104.327918 70.7027792,107.799571 63.5458443,101.981427 C56.3889094,96.1635052 47.0444965,81.1890477 47.0444965,81.1890477 L58.3651627,68.6752412 Z" id="Path" fill="#3C62AF" fill-rule="nonzero"></path>
                            <path d="M17.8313817,64.8493805 C17.8313817,64.8493805 19.6528593,47.4121182 37.7898111,49.9581236 C55.9269853,52.5043527 51.9966602,67.9163987 51.9966602,67.9163987 L17.8313817,64.8493805 Z" id="Path" fill="#001E5F" fill-rule="nonzero"></path>
                            <path d="M54.3874615,18.5656216 C54.4065984,18.4885535 54.4257353,18.4114853 54.4448722,18.3344172 C55.5002954,9.27892256 52.1809306,1.43722981 42.3955137,0.165605816 C32.5141896,-1.12528454 23.6306555,5.27137957 22.4410514,14.4424876 C22.3642812,15.0782941 22.0956968,21.6676084 24.0336433,27.9871955 C27.1609713,38.1602339 36.9272513,42.4951768 36.9272513,42.4951768 C36.9272513,42.4951768 43.6042547,39.4124515 49.8784927,30.4342037 C50.5500649,29.4706844 51.6820357,28.1027195 51.8929868,26.9275924 L54.3874615,18.5656216 Z" id="Path" fill="#0034A0" fill-rule="nonzero"></path>
                            <path d="M25.4192037,31.1125402 L25.2123286,25.3479291 C24.5914632,24.5784069 23.1428571,23.4833606 23.1428571,25.1761308 C23.1428571,26.8691242 24.6949007,29.8941115 25.4192037,31.1125402 Z" id="Path" fill="#001E5F" fill-rule="nonzero"></path>
                            <path d="M53.1982013,22.5045517 C54.7192536,10.7668906 50.2909641,6.91846611 41.8965957,5.82167072 C33.4830244,4.72485301 25.7625455,10.6706855 24.6650746,19.0987239 C24.5880395,19.6952353 25.4930344,27.0264783 25.4930344,27.6229897 C25.300335,36.6860349 28.2846073,44.7100389 36.7176049,45.7874639 C44.6883919,46.8267282 50.1371172,41.1309707 51.5425052,33.357131 C52.1393596,30.1436017 53.1982013,22.5045517 53.1982013,22.5045517 Z" id="Path" fill="#F8BF68" fill-rule="nonzero"></path>
                            <path d="M45.1508207,56.3002226 C42.3069167,48.1338562 46.944862,43.7440896 49.4259735,38.932354 L37.3637298,37.3605308 L26.1986174,34.9067524 C26.6946626,39.0090554 29.2331037,49.7250215 26.9427959,55.3991477 C25.5305833,58.9074038 19.7283372,66.0192926 19.7283372,66.0192926 L35.2642256,66.0192926 L50.8384075,66.0192926 C50.8384075,66.0001728 46.3914872,59.8658381 45.1508207,56.3002226 Z" id="Path" fill="#F8BF68" fill-rule="nonzero"></path>
                            <path d="M33.765808,7.07004609 C32.6076978,9.14777638 33.4573069,13.187841 32.6851588,15.150153 C31.3918276,18.4591308 29.2296338,17.4587422 27.9170493,22.9030814 L23.7278828,23.903537 C23.7278828,23.903537 21.3149481,20.0558883 22.9557348,12.5529845 C24.5965215,5.05005842 29.3259005,3.414791 29.3259005,3.414791 C29.3259005,3.414791 28.6421834,5.55365528 29.3259005,6.58909558 C30.284985,8.04093871 33.765808,7.07004609 33.765808,7.07004609 Z" id="Path" fill="#0034A0" fill-rule="nonzero"></path>
                            <path d="M28.8080283,23.963077 C29.0195611,22.2683396 27.9036585,20.7311475 26.2491059,20.5143599 C24.5943301,20.2975952 22.9975697,21.4800418 22.7858137,23.1747792 C22.5742809,24.8302274 23.9017163,26.3675109 25.1907724,26.6040688 L28.2307757,26.9389068 C28.2499654,26.9389068 28.7886154,24.2192909 28.8080283,23.963077 Z" id="Path" fill="#F8BF68" fill-rule="nonzero"></path>
                            <path d="M25.9882904,24.6623794 C25.4644385,24.6623794 25.0398126,24.2377199 25.0398126,23.7138264 C25.0398126,23.1899329 25.4644385,22.7652733 25.9882904,22.7652733 C26.5121423,22.7652733 26.9367681,23.1899329 26.9367681,23.7138264 C26.9367681,24.2377199 26.5121423,24.6623794 25.9882904,24.6623794 Z" id="Path" fill="#FD9500" fill-rule="nonzero"></path>
                            <path d="M46.6651054,16.6945338 C44.533735,17.8761285 43.8358933,21.5733309 44.4770764,24.5081328 C44.6846788,25.4801967 45.3070486,26.2425087 45.1939501,27.4431115 C45.1184782,28.4151754 44.4016045,29.4252554 42.6285616,29.1774874 C41.1950329,28.9677356 40.4783779,27.9006313 40.6102897,26.9858127" id="Path" stroke="#001E5F" stroke-linecap="round"></path>
                            <path d="M50.8384075,17.4533762 C50.5036443,16.9645919 49.7784678,16.4577098 49.0157599,16.3491028 C48.4206493,16.276691 47.7325729,16.2947887 47.0444965,16.6568473" id="Path" stroke="#001E5F" stroke-linecap="round"></path>
                            <path d="M40.9742389,15.5562701 C40.3718919,14.9888028 39.4492684,14.5582947 38.6587289,14.4408978 C38.0563819,14.3626257 36.7385978,14.4800225 36.0421546,14.8713832" id="Path" stroke="#001E5F" stroke-linecap="round"></path>
                            <path d="M37.7257745,21.9926483 C37.1441359,21.9150276 36.7176309,21.3522838 36.814758,20.7701179 L36.9309958,19.8968916 C37.0085626,19.3147257 37.5706409,18.8878236 38.1522795,18.9848437 C38.7339181,19.0624643 39.1604231,19.6252082 39.0635208,20.2073741 L38.9470582,21.0806004 C38.8694914,21.6627663 38.3267486,22.0896684 37.7257745,21.9926483 Z" id="Path" fill="#001E5F" fill-rule="nonzero"></path>
                            <path d="M47.9694329,23.5103393 C47.3878367,23.4326954 46.9613628,22.8700587 47.0582581,22.2878196 L47.1747122,21.4145849 C47.2522733,20.8324359 47.8143106,20.4055071 48.3959067,20.5025282 C48.9775029,20.5801495 49.4039767,21.1429213 49.3070815,21.7250703 L49.1906274,22.5984176 C49.1130663,23.1804091 48.5703631,23.6073379 47.9694329,23.5103393 Z" id="Path" fill="#001E5F" fill-rule="nonzero"></path>
                            <path d="M59.9068993,101.286539 C60.2321502,96.8973406 58.2999469,69.353762 58.2999469,69.353762 C57.3816566,67.3028762 53.2687637,61.5143366 50.6478982,58.792567 C48.7922375,56.8759469 48.3332034,63.0286043 48.6582324,66.6319924 C50.5522753,86.891881 49.729608,117.176346 48.8497,147.594855 L59.9068993,147.594855 L59.9068993,101.286539 Z" id="Path" fill="#3C62AF" fill-rule="nonzero"></path>
                            <path d="M24.5489522,55.4218457 C13.6272554,54.7507008 12.3729986,67.0992773 10.462655,69.8988277 C10.462655,69.8988277 8.74528606,100.846879 8.72599532,101.268735 L8.72599532,147.594855 L32.2482436,147.594855 L31.5728436,103.531236 L24.5489522,55.4218457 Z" id="Path" fill="#3C62AF" fill-rule="nonzero"></path>
                            <path d="M45.9063232,58.2158787 L47.4760016,56.1543408 L52.2236684,61.6327359 L54.2529274,73.1815098 L49.7157352,86.8874598 C50.0412159,72.5326301 47.9355822,62.396293 45.9063232,58.2158787 Z" id="Path" fill="#3C62AF" fill-rule="nonzero"></path>
                            <path d="M49.3208431,74.3665595 L54.5214116,80.0628753 C55.2868169,80.909634 55.5810986,82.0835799 55.2670161,83.1803043 L49.9685813,102.44373 L49.3208431,74.3665595 Z" id="Path" fill="#3C62AF" fill-rule="nonzero"></path>
                            <path d="M30.4194858,67.4786896 C28.2285302,57.1911768 25.4279691,53.8778135 25.4279691,53.8778135 L18.969555,61.3524305 L31.4864609,93.7170418 C31.4864609,89.70995 31.6006929,73.0653821 30.4194858,67.4786896 Z" id="Path" fill="#001E5F" fill-rule="nonzero"></path>
                            <path d="M31.4706113,85.2703553 L28.9946793,74.7459807 L24.1565733,79.5842109 C23.1737405,80.5671476 22.871263,82.0515004 23.4005986,83.3429321 L31.4894614,103.581994 L31.4894614,85.2703553 L31.4706113,85.2703553 Z" id="Path" fill="#001E5F" fill-rule="nonzero"></path>
                            <path d="M44.2970661,53.7086023 C44.2970661,53.7086023 47.0706618,59.5524678 43.083618,63.422676 C43.083618,63.422676 32.5474838,54.8965298 27.3659799,52.310021 L27.5393296,49.7041801 C27.5393296,49.7041801 21.7993536,50.0490479 22.3386142,51.9651532 C22.3386142,51.9651532 18.9294773,50.3556958 16.6757744,52.5015649 C13.9598577,55.1071836 9.8186085,59.9931076 18.5441315,64.8214795 C25.4783442,68.6534678 29.7928761,145.465668 30.0627298,145.98297 C30.3131487,146.500271 51.5971897,144.71838 51.5971897,144.71838 L51.5971897,64.0550818 L49.2473626,55.5287134 C49.2473626,55.5287134 48.9582974,52.099145 44.1045049,50.9496596 L44.2970661,53.7086023 Z" id="Path" fill="#3C62AF" fill-rule="nonzero"></path>
                            <path d="M50.4590164,3.414791 C50.4590164,3.414791 56.9121565,4.72398204 57.285901,10.9233979 L54.3938301,9.01736415 C54.3938301,9.01736415 59.2730447,13.5225327 56.3611229,18.9710611 L54.5314174,15.6403306 L50.4590164,3.414791 Z" id="Path" fill="#0034A0" fill-rule="nonzero"></path>
                            <path d="M40.2154567,5.69131833 C40.2154567,5.69131833 44.0517726,6.10957967 47.6387113,11.471082 C47.6387113,11.471082 48.6936148,9.4937944 47.331717,7.49749998 C47.331717,7.49749998 50.6118839,11.6041741 50.9380097,14.4180064 C50.9380097,14.4180064 52.894542,12.6498606 51.4367642,9.72194297 C49.9789864,6.79404741 45.0492815,5.69131833 45.0492815,5.69131833 L40.2154567,5.69131833 Z" id="Path" fill="#0034A0" fill-rule="nonzero"></path>
                            <path d="M44.0093677,34.55782 L36.0421546,31.1125402 C36.0421546,31.1125402 36.1372019,35.0717312 38.3239513,36.1377437 C40.7197608,37.2989003 44.0093677,34.55782 44.0093677,34.55782 Z" id="Path" fill="#FFFFFF" fill-rule="nonzero"></path>
                            <path d="M52.6121565,61.3040385 C53.5699505,64.3614221 48.6832738,64.8610975 46.9436024,64.8810289 C46.572273,64.8810289 46.572273,64.2814647 46.9436024,64.2814647 C48.25323,64.2615333 52.8467877,64.0017299 52.0454144,61.4637214 C51.9279854,61.0840978 52.4949542,60.9241831 52.6121565,61.3040385 Z" id="Path" fill="#0034A0" fill-rule="nonzero"></path>
                            <path d="M23.9559806,52.0169481 C25.1140591,52.6382478 26.3298849,53.2012232 27.4107432,53.9391714 C28.626569,54.7739514 29.8231457,55.6283229 31.0197223,56.5022859 C33.046024,57.9583656 35.0533004,59.434262 37.0603529,60.9099332 C37.3499845,61.1234135 37.0603529,61.6282899 36.7709452,61.4145844 C34.7636688,59.9389132 32.7566163,58.463242 30.7300908,57.0069371 C29.5337379,56.1331993 28.3371613,55.2788277 27.1211117,54.4440478 C26.0212281,53.7060996 24.8246514,53.1624905 23.6665729,52.5215992 C23.3384432,52.3468517 23.6280747,51.8422005 23.9559806,52.0169481 Z" id="Path" fill="#0034A0" fill-rule="nonzero"></path>
                            <path d="M49.6544135,55.6030776 C50.0454608,58.1633254 47.856049,60.6471248 46.0381888,62.1565942 C45.7450733,62.3859395 45.3345302,61.9846405 45.6278724,61.7552951 C47.0156938,60.6090114 48.2860877,59.2333823 48.833554,57.5329026 C49.0094687,57.0168201 49.1461652,56.1189385 49.0876781,55.7559745 C49.0289644,55.3927889 49.5956997,55.2401136 49.6544135,55.6030776 Z" id="Path" fill="#0034A0" fill-rule="nonzero"></path>
                            <path d="M59.7163091,100.636438 C59.4939209,94.1280063 59.2309492,87.6003122 58.8061126,81.0918806 C58.7859381,80.7250002 59.392814,80.7250002 59.4129885,81.0918806 C59.8378251,87.6003122 60.1007968,94.1087439 60.323185,100.636438 C60.323185,101.022581 59.7163091,101.022581 59.7163091,100.636438 Z" id="Path" fill="#3C62AF" fill-rule="nonzero"></path>
                            <path d="M8.72599532,102.064309 C8.72599532,102.064309 14.3118574,95.3385304 15.175644,94.096463 L8.72599532,102.064309 Z" id="Path" fill="#0034A0" fill-rule="nonzero"></path>
                            <path d="M8.41712756,101.932878 C10.6215377,99.277925 12.9834056,96.6619161 14.990982,93.8505102 C15.2074922,93.5382827 15.7192189,93.8310384 15.5027314,94.1434923 C13.4557792,96.9938417 11.0742347,99.6487942 8.83044875,102.342917 C8.59426195,102.635899 8.18094077,102.22586 8.41712756,101.932878 Z" id="Path" fill="#06348D" fill-rule="nonzero"></path>
                            <path d="M29.6673253,137.729904 C29.6673253,137.729904 10.8707035,120.299726 9.1931862,118.576509 C7.51564655,116.853291 -3.64159477,105.270021 1.215249,99.8954836 C6.07209949,94.5209458 7.27988688,94.4758842 7.27988688,94.4758842 C7.27988688,94.4758842 15.3773815,97.1682587 17.7806986,105.644943 C18.6550672,108.717344 19.8466154,111.731587 21.852362,114.226179 C25.7844485,119.131898 34.3084803,128.514032 36.5036846,131.06878 C39.8550956,134.991358 29.6673253,137.729904 29.6673253,137.729904 Z" id="Path" fill="#F8BF68" fill-rule="nonzero"></path>
                            <path d="M74.9489552,85.4393067 C74.9489552,85.4393067 71.9529609,84.2799521 68.208078,91.4293424 C66.5416084,94.6175113 65.7738051,103.602677 74.3870138,104.955295 C76.4467324,105.53486 77.0084538,104.182466 77.0084538,104.182466 C77.0084538,104.182466 79.0681724,105.921386 80.1918352,104.182466 C81.3152781,102.443323 83.3749967,99.7380872 81.6896124,99.7380872 C80.0044481,99.7380872 73.8252924,95.7383029 73.8252924,90.2699879 C73.8252924,86.9851874 74.7615681,87.3717137 74.9489552,85.4393067 Z" id="Path" fill="#0034A0" fill-rule="nonzero"></path>
                            <path d="M98.2586525,68.7315418 C98.39042,68.2730437 98.5221875,67.8249509 98.6526503,67.2852027 C98.6852661,67.1419636 98.7167946,67.0089084 98.7483231,66.8576992 C98.7798516,66.70649 98.810293,66.5539525 98.8350809,66.392338 C98.8879184,66.0784073 98.9216213,65.7620414 98.9329281,65.6039692 C98.9442349,65.4458969 98.954237,65.3095208 98.9757634,65.1580903 C98.982504,65.0870242 98.9959851,65.0068811 99.0094663,64.9289519 L99.0286009,64.807409 L99.0523016,64.677896 C99.1153587,64.3340777 99.205378,63.9524018 99.2953974,63.5720543 L99.3123576,63.5020952 C99.4993544,62.7172686 99.3862866,61.8894924 98.9962026,61.1863587 C98.6061186,60.4832249 97.9681551,59.9574243 97.2114705,59.7154453 C96.4547858,59.4734664 95.6361313,59.5332416 94.9211947,59.882816 C94.2062582,60.2326117 93.6487468,60.8458613 93.3612936,61.5985863 C93.1958232,62.0294107 93.03144,62.4580212 92.871623,62.9371086 L92.8120449,63.1159915 L92.7535541,63.30373 C92.715285,63.4299221 92.6757112,63.5558929 92.6409211,63.6935973 C92.5643829,63.9559441 92.4967597,64.2550416 92.4417478,64.5014484 C92.4113065,64.6606276 92.3695584,64.8171501 92.3167209,64.9701304 C92.3010654,65.017065 92.2784518,65.0721911 92.25823,65.1259888 L92.1849534,65.3139486 C92.0725379,65.590243 91.9205486,65.9409243 91.766385,66.2858495 C91.5693861,66.7098108 91.4574054,67.1696373 91.4367488,67.6380979 C91.4160922,68.10678 91.4871945,68.5747979 91.6459243,69.015142 C91.8046541,69.4554862 92.0479674,69.8590796 92.3617306,70.2026765 C92.6752764,70.5462733 93.0529664,70.8230105 93.472622,71.0165051 C93.8922775,71.2099997 94.3454186,71.3164882 94.8059525,71.3297716 C95.2664865,71.3430549 95.7250635,71.2629119 96.1547212,71.0939915 C96.5845964,70.9250711 96.9768547,70.6706944 97.3091002,70.3456942 C97.6413456,70.0209155 97.9068376,69.6317124 98.0899205,69.2013308 C98.1523252,69.0589772 98.2062499,68.91286 98.2508247,68.7636433 L98.2586525,68.7315418 Z" id="Path" fill="#FFBF62" fill-rule="nonzero"></path>
                            <path d="M96.1975473,61.3049245 C95.8109897,61.0854435 95.4414504,60.8369201 95.0924656,60.5611278 C94.8391809,60.3655902 94.6163965,60.1336941 94.4311848,59.8725339 C94.4141665,59.8448216 94.3958222,59.8179962 94.3761517,59.7922792 C94.3602385,59.7647887 94.3487457,59.7359679 94.3339376,59.7073689 C94.3010062,59.6508359 94.2738212,59.5911992 94.2526036,59.5295671 C94.2382375,59.4978643 94.2269657,59.4648313 94.2194511,59.4306898 C94.2103895,59.3952181 94.2000017,59.360855 94.1874038,59.3251616 C94.1748058,59.2896899 94.1759109,59.2471239 94.1679543,59.210322 C94.1575666,59.1690862 94.1513781,59.1267419 94.14961,59.0841759 C94.1160155,58.6374545 94.1420954,58.1880727 94.2274077,57.7482239 C94.3133831,57.2250167 94.4563806,56.6443897 94.5947369,56.0360505 C94.7330931,55.4277112 94.8875835,54.7874475 95.0122367,54.1241272 C95.2843078,52.7586893 95.3742615,51.3633223 95.2801085,49.9741628 C95.2431988,49.5901819 95.0657227,49.2336916 94.7817167,48.9736399 C94.4979317,48.7133664 94.1277294,48.5681543 93.7431609,48.5659164 C93.3588135,48.563942 92.9870641,48.7049419 92.7004059,48.9618899 C92.4135267,49.2188378 92.2320723,49.5735546 92.1909633,49.9570921 L92.1909633,50.0018751 C92.0835493,51.0868649 91.8342429,52.1530105 91.4496745,53.1725995 C91.2573903,53.7040095 91.036595,54.2422922 90.8020967,54.8091739 C90.5673773,55.3760556 90.319176,55.9706496 90.089319,56.6454982 C89.8218892,57.3879647 89.6452972,58.1601387 89.5628581,58.945393 C89.4764407,59.9026848 89.6015359,60.8672927 89.9290821,61.7707119 C90.0930763,62.2194286 90.3008316,62.6506312 90.549254,63.0585554 C90.6076023,63.1629752 90.671476,63.2501025 90.7344657,63.3441024 L90.9256448,63.62189 C90.9884134,63.7172201 91.0560444,63.7952578 91.1234544,63.8801681 L91.3248003,64.1315736 C91.8421995,64.7334836 92.4119796,65.2879503 93.0272891,65.788766 L93.0582313,65.815148 C93.622265,66.256327 94.3354847,66.4598457 95.0467153,66.3826948 C95.7579458,66.305544 96.4112701,65.9537093 96.8683318,65.4016813 C97.3253936,64.8496534 97.5503882,64.1408849 97.4953552,63.4254656 C97.4405431,62.7100462 97.1099027,62.0440655 96.5739381,61.5687451 C96.4556944,61.4709763 96.329715,61.3827405 96.1975473,61.3049245 Z" id="Path" fill="#F8BF68" fill-rule="nonzero"></path>
                            <path d="M92.6482343,61.4802683 C93.6426107,61.5456887 95.0911921,61.9854473 96.0545497,61.6674373 C96.5247072,61.5124241 96.9456776,61.2367711 97.4171645,61.0819796 C98.0616923,60.8706383 98.4024568,61.0245427 98.9665572,61.3505362 C99.0179599,61.3862402 99.0775604,61.4079731 99.1398197,61.413739 C99.2625658,61.413739 99.3438796,61.2884422 99.3990489,61.1839912 C99.784126,60.3927362 100.017654,59.5360608 100.087225,58.6585395 C100.114699,58.3784512 100.14461,58.0914882 100.160562,57.8056341 L100.197342,56.9835539 L100.211079,56.6770756 C100.235672,56.1248825 100.478727,55.6048453 100.886182,55.2318378 C101.293859,54.8588302 101.832701,54.6630124 102.384615,54.6876282 C104.347002,54.7761122 108.813055,51.6443569 109.15958,53.1492494 C109.618217,55.1491197 108.426649,60.4872078 108.426649,60.4872078 C106.326671,63.0530206 98.3009808,69.2087536 98.1093285,69.3511263 C98.0955915,69.4808584 97.1131795,69.2016572 96.8907299,69.8135048 L91.0538642,69.4529161 C91.2889429,69.0109399 92.4658876,61.4687365 92.6482343,61.4802683 Z" id="Path" fill="#F8BF68" fill-rule="nonzero"></path>
                            <path d="M108.149916,37.8143691 L116.098195,44.3734153 C116.566029,44.7588754 116.591475,45.3550715 116.199752,45.8256707 L102.034139,62.8714993 C101.642417,63.3420985 100.950486,63.5468325 100.482428,63.1613724 L92.5296851,56.6023262 C92.0616273,56.2166438 92.1078304,55.4790679 92.4984367,55.0084687 L106.669853,37.9637516 C106.754001,37.8530485 106.860246,37.7605736 106.982115,37.6925513 C107.103761,37.6243066 107.23813,37.5818482 107.377186,37.5678436 C107.516018,37.553839 107.656413,37.5685105 107.789219,37.6109689 C107.922249,37.653205 108.045011,37.7225611 108.149916,37.8143691 Z" id="Path" stroke="#0034A0" stroke-width="2.13281" fill="#04BE50" fill-rule="nonzero"></path>
                            <path d="M105.796377,36.2461973 L114.145117,42.1640115 C114.636909,42.5086717 114.707827,43.1036711 114.357874,43.6034618 L101.684862,61.6565122 C101.333803,62.1563029 100.667035,62.4124123 100.176349,62.0655327 L91.8276085,56.1466089 C91.336922,55.8019487 91.3254337,55.0609181 91.6753875,54.5622371 L104.348399,36.5105182 C104.422853,36.3935601 104.520283,36.2932469 104.635167,36.2160146 C104.74983,36.1387823 104.879074,36.0859625 105.014946,36.0613281 C105.150818,36.0364717 105.290447,36.0400226 105.424772,36.0719808 C105.559319,36.1037171 105.685691,36.1629729 105.796377,36.2461973 Z" id="Path" stroke="#0034A0" stroke-width="2.13281" fill="#04BE50" fill-rule="nonzero"></path>
                            <path d="M103.318179,35.8160675 L112.174473,40.9757021 C112.695765,41.2799038 112.818395,41.8638286 112.518241,42.3936781 L101.475643,61.5635031 C101.170841,62.0933526 100.528034,62.4102386 100.006528,62.1071496 L91.1457984,56.9464023 C90.6245139,56.6435358 90.5488115,55.9096242 90.8536135,55.3775494 L101.896212,36.2112849 C101.959961,36.0877795 102.048502,35.9787386 102.156079,35.8912834 C102.263657,35.8036057 102.388056,35.7392938 102.521532,35.7021309 C102.655007,35.6651906 102.794459,35.6560667 102.931698,35.6756496 C103.068715,35.6952324 103.200198,35.7430769 103.318179,35.8160675 Z" id="Path" stroke="#0034A0" stroke-width="2.13281" fill="#04BE50" fill-rule="nonzero"></path>
                            <path d="M101.887257,36.1762822 L111.001845,40.990475 C111.538312,41.2730231 111.683628,41.8521023 111.396339,42.3910078 L100.98839,61.907244 C100.701101,62.4461495 100.065453,62.785074 99.5301008,62.5025259 L90.4224215,57.6872233 C89.887069,57.4044533 89.7832079,56.6737791 90.0762922,56.1348736 L100.473765,36.6186375 C100.53372,36.4936771 100.618859,36.3824779 100.723834,36.2919204 C100.82881,36.2011411 100.951393,36.133001 101.084005,36.0914955 C101.216617,36.0499901 101.356362,36.0360069 101.494546,36.0506559 C101.63273,36.0653049 101.766234,36.1079202 101.887257,36.1762822 Z" id="Path" stroke="#0034A0" stroke-width="2.13281" fill="#04BE50" fill-rule="nonzero"></path>
                            <path d="M107.92173,60.5535882 C108.146795,60.1804184 108.313102,59.7736004 108.41471,59.3476789 C108.5195,58.8946216 108.534136,58.4244147 108.457559,57.9654962 C108.383103,57.5295887 108.236736,57.1097455 108.025035,56.7237677 C107.832001,56.3718723 107.600147,56.0438563 107.334354,55.7460151 C107.141744,55.5345739 106.875526,55.4088815 106.593187,55.3965076 C106.310848,55.3841337 106.035085,55.4859468 105.825504,55.6798041 C105.615712,55.8736613 105.489073,56.1441497 105.472527,56.4328733 C105.456194,56.7215969 105.551438,57.0053275 105.737684,57.2226299 C105.889991,57.3941274 106.022993,57.5827746 106.134147,57.784664 C106.227907,57.9533394 106.292605,58.1372107 106.32506,58.3284629 C106.352849,58.4977895 106.346485,58.6710237 106.306393,58.8375282 C106.256756,59.0287804 106.17933,59.2113492 106.076873,59.3791562 L106.062661,59.4028185 C105.989053,59.5276426 105.940264,59.6661431 105.91884,59.8102878 C105.897627,59.9544325 105.904203,60.1016164 105.938355,60.2431561 C105.972508,60.3846958 106.033812,60.5179862 106.118238,60.6352123 C106.202876,60.7526555 106.309151,60.8518635 106.431123,60.9271922 C106.553095,61.0025208 106.688431,61.0524504 106.829283,61.0743761 C106.970134,61.0960846 107.113955,61.089355 107.252261,61.0544042 C107.390567,61.0194535 107.520812,60.9567158 107.63536,60.8703158 C107.75012,60.7836987 107.847062,60.6749389 107.920669,60.5501148 L107.92173,60.5535882 Z" id="Path" fill="#F8BF68" fill-rule="nonzero"></path>
                            <path d="M108.693068,60.3921239 C108.860085,60.1493305 109.025025,59.9040802 109.177739,59.6382807 C109.339449,59.3675673 109.482936,59.0872493 109.607737,58.7988903 C109.745687,58.4850682 109.853186,58.159408 109.929082,57.8263768 C110.013052,57.453364 110.041195,57.0705234 110.01259,56.689693 C109.980756,56.290547 109.879023,55.8996654 109.711545,55.5335768 C109.555371,55.2012157 109.354675,54.8902973 109.114531,54.6086392 C108.712446,54.1554398 108.262147,53.7446791 107.771018,53.3828343 C107.53641,53.1929775 107.234212,53.0993893 106.929246,53.1223955 C106.624279,53.1454017 106.340766,53.2832154 106.139378,53.5061296 C105.937989,53.7290438 105.834873,54.0196364 105.851943,54.3153662 C105.869014,54.6110961 106.004888,54.8885104 106.230729,55.0884184 L106.240187,55.0964594 C106.577681,55.3866053 106.88357,55.7098086 107.152549,56.0607086 C107.242978,56.1862374 107.314952,56.3231577 107.366395,56.4678956 C107.403305,56.5797994 107.419683,56.6970639 107.4153,56.8147751 C107.40838,56.9508019 107.382543,57.0852652 107.338713,57.2148146 C107.281733,57.3818885 107.20999,57.5440486 107.123944,57.6992844 C106.912867,58.0722972 106.666264,58.4254308 106.387134,58.7537714 L106.387134,58.7606956 C106.254029,58.9009663 106.152066,59.0662534 106.087935,59.2462823 C106.023574,59.4263112 105.998429,59.6170614 106.013654,59.8071416 C106.028879,59.9969984 106.084475,60.1817179 106.176749,60.3499086 C106.268793,60.5183228 106.3959,60.6661877 106.549768,60.7850158 C106.703635,60.9036204 106.881263,60.9902845 107.071348,61.0394239 C107.261202,61.0887866 107.459592,61.0997313 107.654291,61.0715878 C107.848759,61.0434444 108.035383,60.9768828 108.202169,60.8757003 C108.368955,60.7747411 108.512441,60.641618 108.623863,60.4845953 C108.648546,60.4548883 108.671614,60.4240645 108.693068,60.3921239 Z" id="Path" fill="#F8BF68" fill-rule="nonzero"></path>
                            <path d="M109.240183,59.333362 L109.557292,58.8886583 L109.71541,58.6668614 C109.766226,58.5909309 109.814861,58.50945 109.865677,58.4312994 C109.963819,58.2714458 110.064361,58.1175867 110.160322,57.9541808 L110.432286,57.4439815 C110.479612,57.3578382 110.521922,57.2688086 110.55878,57.1773368 L110.678514,56.8991472 C110.759645,56.7119853 110.830089,56.520161 110.889629,56.3245623 C110.924306,56.226208 110.953967,56.1260775 110.97883,56.0246148 L111.049928,55.7109022 C111.0966,55.4977641 111.12866,55.2815177 111.14589,55.0637172 L111.161593,54.9005333 L111.161593,54.3994367 C111.157449,54.2890934 111.147634,54.178972 111.132368,54.0697387 C111.118846,53.9547329 111.109686,53.849052 111.089403,53.7420389 C111.012198,53.3293058 110.891374,52.9263415 110.72933,52.5400287 C110.43403,51.8715299 110.078101,51.2327816 109.665685,50.6319985 C109.514545,50.3753447 109.269407,50.190181 108.98414,50.1173588 C108.698655,50.0447586 108.396813,50.0902725 108.144478,50.2441316 C107.892143,50.3982127 107.710252,50.6477619 107.638935,50.9381626 C107.5674,51.2285632 107.612328,51.5360594 107.763467,51.7929352 L107.763467,51.802038 C108.053969,52.3113493 108.296707,52.8473028 108.488194,53.403016 C108.56191,53.6316955 108.610763,53.8681456 108.633881,54.1074819 C108.633881,54.1627646 108.633881,54.2224877 108.633881,54.2719979 C108.637371,54.3261705 108.637371,54.3807871 108.633881,54.4351818 C108.633881,54.4891324 108.62254,54.5430829 108.618178,54.5959234 L108.611417,54.6765163 L108.593315,54.7579972 C108.49212,55.2335616 108.306958,55.6864801 108.046771,56.0947728 L107.821044,56.4395681 C107.739695,56.5543519 107.650494,56.6693576 107.565874,56.7785909 C107.522909,56.8347617 107.482344,56.8933747 107.437198,56.9475473 L107.293692,57.1129513 L107.008207,57.4462017 L106.966333,57.4957119 C106.713126,57.791885 106.585759,58.1781979 106.612366,58.5700612 C106.638755,58.9617025 106.817157,59.3267015 107.108094,59.5844654 C107.399032,59.8424513 107.778516,59.9721103 108.163452,59.945024 C108.54817,59.9179377 108.906717,59.7365483 109.159924,59.4403751 C109.188276,59.4024099 109.21532,59.3668869 109.240183,59.333362 Z" id="Path" fill="#F8BF68" fill-rule="nonzero"></path>
                            <path d="M107.747073,56.5337621 C107.747073,56.5337621 108.738397,57.8694869 108.885246,59.1897106" id="Path" stroke="#001E5F" stroke-width="0.7" stroke-linecap="round"></path>
                            <path d="M108.885246,54.2572347 C108.885246,54.2572347 110.162696,55.3318804 110.40281,57.2926045" id="Path" stroke="#001E5F" stroke-width="0.7" stroke-linecap="round"></path>
                            <path d="M111.64116,54.2331337 C111.961737,53.7674907 112.23697,53.2718795 112.462553,52.7535651 C112.680881,52.2634027 112.865201,51.7757376 113.034105,51.2973809 C113.203235,50.8190241 113.356949,50.3454351 113.510662,49.899998 C113.588199,49.6790957 113.66551,49.4627341 113.745314,49.2770218 C113.784082,49.1830305 113.822851,49.1008448 113.855724,49.0420435 L113.876809,49.0020858 C113.882704,48.9952749 113.887465,48.9877828 113.890865,48.9798367 C113.880663,48.9939127 113.868874,49.0068535 113.855724,49.0184321 C114.072465,48.8036597 114.195119,48.5112423 114.196721,48.2058841 C114.198293,47.9002988 114.078587,47.6067462 113.863886,47.3897035 C113.649413,47.1724337 113.357402,47.0496093 113.052242,47.0482315 C112.747309,47.0466579 112.454165,47.1665309 112.237424,47.3813033 C112.182332,47.4378343 112.130187,47.4970897 112.081216,47.5588424 C112.044942,47.6083354 112.00504,47.6610069 111.973299,47.7104999 L111.891001,47.8444489 L111.82412,47.9620515 C111.743182,48.1182497 111.681062,48.2592366 111.627104,48.3920504 C111.517826,48.6601754 111.430994,48.9069594 111.348923,49.1478405 C111.184553,49.6307379 111.039002,50.0879806 110.879393,50.5381854 C110.719785,50.9881631 110.563804,51.4172539 110.385379,51.8238685 C110.22441,52.2064176 110.027847,52.5733016 109.798637,52.9192986 L109.793876,52.9404126 C109.653312,53.1858343 109.609556,53.4750733 109.671449,53.7511444 C109.733116,54.0272155 109.895672,54.2703669 110.127376,54.4324679 C110.358853,54.5943418 110.642702,54.6638137 110.922923,54.6270345 C111.202917,54.5900282 111.459107,54.4497223 111.64116,54.2331337 Z" id="Path" fill="#F8BF68" fill-rule="nonzero"></path>
                            <path d="M110.40281,51.221865 C110.40281,51.221865 111.263328,52.6444255 111.15158,53.8778135" id="Path" stroke="#001E5F" stroke-width="0.7" stroke-linecap="round"></path>
                            <path d="M100.918143,53.4983923 C97.9845301,53.4983923 95.6065574,51.1200594 95.6065574,48.1864952 C95.6065574,45.2527102 97.9845301,42.8745981 100.918143,42.8745981 C103.851535,42.8745981 106.229508,45.2527102 106.229508,48.1864952 C106.229508,51.1200594 103.851535,53.4983923 100.918143,53.4983923 Z" id="Path" fill="#0034A0" fill-rule="nonzero"></path>
                            <polygon id="Path" fill="#FFCD00" fill-rule="nonzero" points="118.370023 33.4646084 115.684035 34.9067524 115.334895 31.7956226 118.020883 30.3536977"></polygon>
                            <polygon id="Path" fill="#FFCD00" fill-rule="nonzero" points="115.714286 67.9991234 113.028322 69.4340836 112.679157 66.3384513 115.376767 64.8810289"></polygon>
                            <polygon id="Path" fill="#FFCD00" fill-rule="nonzero" points="88.0187354 39.9147692 85.3325596 41.3569132 84.9836066 38.2457834 87.6695706 36.8038585"></polygon>
                            <line x1="81.5690867" y1="52.3601286" x2="82.3278689" y2="54.2572347" id="Path" stroke="#FFCD00" stroke-width="2.08312" stroke-linecap="round"></line>
                            <line x1="83.0866511" y1="53.1189711" x2="81.1896956" y2="53.8778135" id="Path" stroke="#FFCD00" stroke-width="2.08312" stroke-linecap="round"></line>
                            <line x1="123.681499" y1="50.0836013" x2="124.440281" y2="51.9807074" id="Path" stroke="#FFCD00" stroke-width="2.08312" stroke-linecap="round"></line>
                            <line x1="124.819672" y1="50.8424437" x2="122.922717" y2="51.6012862" id="Path" stroke="#FFCD00" stroke-width="2.08312" stroke-linecap="round"></line>
                            <path d="M100.133819,47.9844085 C99.7519025,47.6224695 99.506705,47.2944551 99.3984506,47.0003656 C99.2926615,46.705602 99.3112643,46.4196005 99.4542587,46.143035 C99.615856,45.8298487 99.8738288,45.6357361 100.227953,45.5609219 C100.584767,45.485209 100.962873,45.5510366 101.362496,45.7584045 C101.635037,45.8997203 101.850201,46.0783308 102.008212,46.2940115 C102.168016,46.5108154 102.258116,46.7422228 102.278512,46.9882335 C102.300701,47.2353676 102.254754,47.468797 102.141121,47.6891957 L101.615314,47.4164495 C101.739257,47.1760554 101.760325,46.9480181 101.678294,46.7323374 C101.597159,46.5148595 101.417631,46.3340022 101.139711,46.1897658 C100.881738,46.0560887 100.650661,46.0089086 100.446031,46.0482254 C100.244315,46.0866435 100.091234,46.2068405 99.9870141,46.4090411 C99.9031897,46.5710263 99.9005002,46.7437955 99.9782731,46.9273487 C100.05896,47.1100032 100.239832,47.3330979 100.520666,47.596408 C100.803293,47.8608415 101.008147,48.0974162 101.135004,48.3063568 C101.264775,48.5146235 101.3356,48.7163747 101.347479,48.9118353 C101.361375,49.1081946 101.315877,49.3074745 101.211657,49.5094505 C101.045353,49.8318481 100.786483,50.0252867 100.435273,50.0899909 C100.084959,50.1531224 99.6999045,50.0756122 99.2805585,49.8581342 C99.0080173,49.7168184 98.7805261,49.5328159 98.5978607,49.3065759 C98.4163159,49.0785385 98.3080615,48.8399418 98.2730973,48.5910104 C98.2399262,48.3429776 98.2831831,48.1034822 98.4024199,47.8722995 L98.9282273,48.1450457 C98.8042838,48.3852151 98.7941979,48.6213405 98.8979698,48.8527478 C99.0044312,49.0834812 99.2056993,49.2757964 99.5017742,49.4292442 C99.7779015,49.572582 100.018616,49.6258281 100.223919,49.5892074 C100.429445,49.5528113 100.582526,49.4371076 100.682936,49.242321 C100.78357,49.0473097 100.792983,48.8619592 100.7114,48.6855953 C100.630489,48.5074341 100.437962,48.2737801 100.133819,47.9844085 Z M101.208519,51.221865 L100.775277,50.9969729 L104.660782,47.5386685 L105.091335,47.7619879 L101.208519,51.221865 Z" id="Shape" fill="#FFFFFF" fill-rule="nonzero"></path>
                            <path d="M13.9588106,61.1948935 C13.9588106,61.1948935 11.7107104,62.3805171 8.52107916,76.3238507 C5.33147021,90.2669624 2.2763466,98.1661662 2.2763466,98.1661662 L20.0305729,103.961415 C20.0305729,103.961415 31.5401558,81.545253 32.5585452,73.7416533 C33.596099,65.9380536 22.7398898,54.5387645 13.9588106,61.1948935 Z" id="Path" fill="#3C62AF" fill-rule="nonzero"></path>
                            <path d="M0.919906661,100.916913 C11.7767711,98.9977022 17.8620362,106.237942 17.8620362,106.237942 C17.8620362,106.237942 19.9870587,105.744034 19.6778765,104.812859 C19.3689184,103.881685 22.266493,102.931336 21.4937616,101.58207 C15.9302078,91.7572419 3.46992016,93.4485634 3.46992016,93.4485634 C3.46992016,93.4485634 0.900593978,96.3181236 1.51877907,97.0782706 C2.13696416,97.8384175 0.205113346,100.213849 0.919906661,100.916913 Z" id="Path" fill="#0034A0" fill-rule="nonzero"></path>
                            <path d="M31.4894614,74.7459807 C31.1305364,76.0453654 28.5041175,89.0972782 22.0046838,100.926045" id="Path" stroke="#0034A0" stroke-width="1.05219"></path>
                            <path d="M14.5694258,61.2871319 C14.5694258,61.3239191 14.6459268,61.4338552 14.7415476,61.5255041 C15.0858133,61.8740251 15.5448195,62.1123972 16.0038257,62.3139823 C18.891834,63.5792047 22.3917175,63.8173643 25.508985,64.0374492 C29.295886,64.3126085 33.1018623,64.349183 36.9078387,64.3126085 C37.2711576,64.3126085 37.2711576,64.8625018 36.9078387,64.8625018 C31.1319995,64.9175762 25.2031139,64.9175762 19.5228733,63.8541514 C17.87809,63.5424176 15.65956,63.175822 14.4164237,61.965674 C14.2634217,61.8189507 14.0912999,61.6356529 14.0530383,61.415568 C13.9382978,61.0855469 14.4929248,60.9388236 14.5694258,61.2871319 Z" id="Path" fill="#0034A0" fill-rule="nonzero"></path>
                        </g>
                        <g id="Group-5775-Copy" stroke-width="1" fill="none" fill-rule="evenodd" transform="translate(0.000000, 5.691318)">
                            <path d="M18.5152193,2.27652733 C18.5152193,2.27652733 19.6928316,6.26045633 18.7431409,12.125673 C17.7934502,17.9539855 18.0213718,20.0197278 20.1866791,20.8681672 C20.1866791,20.8681672 23.1877163,11.9043498 21.4782783,7.07199159 C20.1866791,3.49384038 18.5152193,2.27652733 18.5152193,2.27652733 Z" id="Path" fill="#2F4A9F" fill-rule="nonzero"></path>
                            <path d="M4.93208431,3.69795892 C4.93208431,3.69795892 11.1471219,-0.537222982 15.5275822,0.0571887957 C20.1701323,0.688749917 21.9672535,6.14988936 22.0046838,9.86495177 C22.0046838,9.86495177 20.4696525,4.44096116 14.816225,4.84961623 C9.27511424,5.25827131 6.80406618,9.15909068 6.80406618,9.15909068 L4.93208431,3.69795892 Z" id="Path" fill="#00A94F" fill-rule="nonzero"></path>
                            <path d="M28.3029719,21.5405902 L27.7071821,24.8436601 L30.3512881,26.607706 C30.3512881,26.607706 23.8714452,28.0717313 21.0039566,24.8436601 C18.136468,21.6156664 18.2109545,17.073955 18.2109545,17.073955 C18.2109545,17.073955 21.041187,24.8436601 28.3029719,21.5405902 Z" id="Path" fill="#00A94F" fill-rule="nonzero"></path>
                            <path d="M35.3574951,37.1832797 C35.3574951,37.1832797 38.5615437,39.1658244 38.3037379,43.2806613 C38.0459321,47.395756 29.2810437,51.6600827 29.7228152,55.7749196 C29.7228152,55.7749196 26.3715941,54.24136 28.2866138,50.2386405 C30.2752199,46.2732934 36.2044987,42.382949 35.3574951,37.1832797 Z" id="Path" fill="#00A94F" fill-rule="nonzero"></path>
                            <path d="M15.2501753,29.2154341 C15.2501753,29.2154341 14.6191283,33.5566829 20.1501314,35.8184255 C25.6812624,38.0804195 34.3301845,33.5202356 37.559719,39.9774379 C37.559719,39.9774379 34.8128115,39.028803 28.3537425,40.0138852 C21.9319383,40.9989673 18.5539326,38.2262086 16.6236547,36.0373606 C14.6933511,33.8485125 15.2501753,29.2154341 15.2501753,29.2154341 Z" id="Path" fill="#2F4A9F" fill-rule="nonzero"></path>
                            <path d="M39.5689554,53.7225687 L39.0512243,56.6316447 L42.4918033,57.7363122 C42.4918033,57.7363122 34.2415004,59.8352818 31.4295403,58.988387 C28.617835,58.1412385 26.6198164,55.7477078 27.5449005,52.3601286 C27.5818631,52.3601286 29.0988584,58.7306144 39.5689554,53.7225687 Z" id="Path" fill="#2F4A9F" fill-rule="nonzero"></path>
                            <path d="M6.07025761,22.8813727 C6.07025761,22.8813727 4.0106888,22.8444639 2.20407434,21.6270096 C2.20407434,21.6270096 0.939444468,23.1027234 0,23.1027234 C0,23.1027234 3.1073853,26.7551625 6.07025761,22.8813727 Z" id="Path" fill="#2F4A9F" fill-rule="nonzero"></path>
                            <path d="M39.5374858,67.9163987 C39.5374858,67.9163987 41.6712679,69.9790798 44.7407882,70.6421932 C44.7407882,70.6421932 44.5535374,73.3677338 45.5269321,74.3620232 C45.5269321,74.3620232 38.6391462,74.7673015 39.5374858,67.9163987 Z" id="Path" fill="#00A94F" fill-rule="nonzero"></path>
                            <path d="M18.3219409,45.1511254 C18.3219409,45.1511254 16.5017474,47.4830922 14.5298842,47.7464038 C14.5298842,47.7464038 14.7953389,51.5830826 12.8992974,54.6298264 C12.8992974,54.6298264 14.9090977,54.8555592 17.1084786,52.7114871 C17.1084786,52.7114871 19.3457965,48.4611809 18.3219409,45.1511254 Z" id="Path" fill="#00A94F" fill-rule="nonzero"></path>
                            <path d="M52.0573921,44.0128617 C52.0573921,44.0128617 54.1911743,46.0755428 57.2606946,46.7386562 C57.2606946,46.7386562 57.0737017,49.4641968 58.0468384,50.4584863 C58.0468384,50.4584863 51.1590526,50.8637645 52.0573921,44.0128617 Z" id="Path" fill="#00A94F" fill-rule="nonzero"></path>
                        </g>
                    </g>
                </g>
            </g>
        </g>
    </g>
</svg>