<svg width="18" height="18" viewBox="0 0 18 18" fill="none" xmlns="http://www.w3.org/2000/svg">
<path fill-rule="evenodd" clip-rule="evenodd" d="M9 16.6248C4.79565 16.6248 1.37515 13.2044 1.37515 9C1.37515 4.79565 4.79565 1.37519 9 1.37519C13.2043 1.37519 16.6249 4.79565 16.6249 9C16.6249 13.2044 13.2043 16.6248 9 16.6248ZM9 0C4.03739 0 0 4.03739 0 9C0 13.9626 4.03739 18 9 18C13.9626 18 18 13.9626 18 9C18 4.03739 13.9626 0 9 0ZM9 4C9.552 4 10 4.448 10 5C10 5.552 9.552 6 9 6C8.44733 6 8 5.552 8 5C8 4.448 8.44733 4 9 4ZM10 12.9385V7.84615C10 7.37908 9.552 7 9 7C8.448 7 8 7.37908 8 7.84615V12.9385C8 13.4055 8.448 13.7846 9 13.7846C9.552 13.7846 10 13.4055 10 12.9385Z" fill="#64B4E6"/>
</svg>
