<svg width="95" height="96" viewBox="0 0 95 96" fill="none" xmlns="http://www.w3.org/2000/svg">
<path fill-rule="evenodd" clip-rule="evenodd" d="M94.8819 48C94.8819 74.5095 73.6681 96 47.4999 96C21.3317 96 0.11792 74.5095 0.11792 48C0.11792 21.4905 21.3317 0 47.4999 0C73.6681 0 94.8819 21.4905 94.8819 48Z" fill="#83C3EB"/>
<path d="M82.7788 26.2344L17.7483 35.9743L34.3619 45.7123L82.7788 26.2344Z" fill="#0039A6"/>
<path d="M53.8705 73.2206L82.7787 26.2344L42.812 55.0015L53.8705 73.2206Z" fill="#0039A6"/>
<path d="M34.6833 54.9387L82.7789 26.2344L42.7519 54.9387H34.6833Z" fill="#05BE50"/>
<path d="M34.3447 45.6889L82.7789 26.2344L34.6607 54.9387L34.3447 45.6889Z" fill="#05BE50"/>
<path d="M21.8016 72.6883C21.187 73.309 20.1899 73.309 19.5754 72.6883C18.9617 72.0685 18.9617 71.0644 19.5754 70.4446L25.3569 64.6054C25.9714 63.9847 26.9685 63.9847 27.5831 64.6054C28.1967 65.2252 28.1967 66.2293 27.5831 66.8491L21.8016 72.6883Z" fill="white"/>
<rect x="36.4558" y="80.25" width="3.21766" height="11.4476" rx="1.60883" transform="rotate(-180 36.4558 80.25)" fill="white"/>
<path d="M13.8619 59.0625C12.9655 59.0625 12.2388 58.3358 12.2388 57.4393C12.2388 56.5429 12.9655 55.8162 13.8619 55.8162H21.9621C22.8585 55.8162 23.5852 56.5429 23.5852 57.4393C23.5852 58.3358 22.8585 59.0625 21.9621 59.0625H13.8619Z" fill="white"/>
</svg>
