<svg width="59" height="60" viewBox="0 0 59 60" fill="none" xmlns="http://www.w3.org/2000/svg">
<path fill-rule="evenodd" clip-rule="evenodd" d="M26.2348 0C40.6894 0 52.4071 11.9923 52.4071 26.7857C52.4071 41.5791 40.6894 53.5714 26.2348 53.5714C11.7802 53.5714 0.0625 41.5791 0.0625 26.7857C0.0625 11.9923 11.7802 0 26.2348 0Z" fill="#0039A6"/>
<path fill-rule="evenodd" clip-rule="evenodd" d="M26.2336 31.1177C25.9731 31.1177 25.7114 31.0539 25.4725 30.9238C24.9399 30.6351 24.6072 30.0697 24.6072 29.4532V11.8911C24.6072 10.9719 25.335 10.2266 26.2336 10.2266C27.1318 10.2266 27.86 10.9719 27.86 11.8911V26.3124L35.59 20.9451C36.3344 20.4264 37.346 20.6279 37.8491 21.3873C38.3534 22.1483 38.1607 23.1832 37.4171 23.6998L27.1471 30.8303C26.8725 31.0216 26.5539 31.1177 26.2336 31.1177Z" fill="white"/>
<path fill-rule="evenodd" clip-rule="evenodd" d="M26.2297 7.44372C25.5417 7.44372 24.9834 6.89482 24.9834 6.2188V4.8421C24.9834 4.16608 25.5417 3.61719 26.2297 3.61719C26.9177 3.61719 27.476 4.16608 27.476 4.8421V6.2188C27.476 6.89482 26.9177 7.44372 26.2297 7.44372Z" fill="#F0F0DC"/>
<path fill-rule="evenodd" clip-rule="evenodd" d="M26.2297 49.9593C25.5417 49.9593 24.9834 49.4109 24.9834 48.7349V47.3573C24.9834 46.6813 25.5417 46.1328 26.2297 46.1328C26.9177 46.1328 27.476 46.6813 27.476 47.3573V48.7349C27.476 49.4109 26.9177 49.9593 26.2297 49.9593Z" fill="#F0F0DC"/>
<path fill-rule="evenodd" clip-rule="evenodd" d="M47.6783 28.0588H46.3331C45.6726 28.0588 45.1362 27.4874 45.1362 26.7833C45.1362 26.0792 45.6726 25.5078 46.3331 25.5078H47.6783C48.3388 25.5078 48.8751 26.0792 48.8751 26.7833C48.8751 27.4874 48.3388 28.0588 47.6783 28.0588Z" fill="#F0F0DC"/>
<path fill-rule="evenodd" clip-rule="evenodd" d="M6.12968 28.0588H4.78451C4.12356 28.0588 3.58765 27.4874 3.58765 26.7833C3.58765 26.0792 4.12356 25.5078 4.78451 25.5078H6.12968C6.79022 25.5078 7.32655 26.0792 7.32655 26.7833C7.32655 27.4874 6.79022 28.0588 6.12968 28.0588Z" fill="#F0F0DC"/>
<path fill-rule="evenodd" clip-rule="evenodd" d="M58.6885 43.9308C58.6885 52.8069 51.658 60.0022 42.9851 60.0022C34.3123 60.0022 27.2817 52.8069 27.2817 43.9308C27.2817 35.0547 34.3123 27.8594 42.9851 27.8594C51.658 27.8594 58.6885 35.0547 58.6885 43.9308Z" fill="#05BE50"/>
<path d="M40.9426 50.1269H39.2504V46.8861H33.563V45.3985L39.2504 37.7302H40.9426V45.2214H42.6504V46.8861H40.9426V50.1269ZM39.2504 40.2273L35.5215 45.2214H39.2504V40.2273Z" fill="white"/>
<path d="M50.2292 43.539C50.8977 43.7869 51.4252 44.1883 51.8117 44.7432C52.2086 45.2981 52.407 45.9416 52.407 46.6736C52.407 47.8188 51.9945 48.7161 51.1693 49.3654C50.3441 50.0266 49.3309 50.3571 48.1297 50.3571C46.9285 50.3571 45.9101 50.0266 45.0745 49.3654C44.2493 48.7161 43.8367 47.8188 43.8367 46.6736C43.8367 45.9416 44.0352 45.2981 44.4321 44.7432C44.829 44.1883 45.3617 43.7869 46.0302 43.539C45.5184 43.291 45.111 42.9309 44.8081 42.4587C44.5157 41.9864 44.3694 41.4492 44.3694 40.8471C44.3694 39.8672 44.7246 39.0643 45.4348 38.4386C46.1451 37.8129 47.0434 37.5 48.1297 37.5C49.2056 37.5 50.0986 37.8129 50.8089 38.4386C51.5192 39.0643 51.8743 39.8672 51.8743 40.8471C51.8743 41.4492 51.7281 41.9864 51.4356 42.4587C51.1432 42.9309 50.741 43.291 50.2292 43.539ZM46.6099 42.3701C47.0173 42.7243 47.5239 42.9014 48.1297 42.9014C48.7355 42.9014 49.2369 42.7243 49.6338 42.3701C50.0308 42.0159 50.2292 41.5614 50.2292 41.0065C50.2292 40.4516 50.0308 39.997 49.6338 39.6429C49.2369 39.2887 48.7355 39.1116 48.1297 39.1116C47.5239 39.1116 47.0173 39.2887 46.6099 39.6429C46.213 39.997 46.0146 40.4516 46.0146 41.0065C46.0146 41.5614 46.213 42.0159 46.6099 42.3701ZM49.9159 48.0903C50.3963 47.6889 50.6366 47.1753 50.6366 46.5496C50.6366 45.9238 50.3963 45.4103 49.9159 45.0089C49.4563 44.6074 48.8609 44.4067 48.1297 44.4067C47.409 44.4067 46.8084 44.6074 46.3279 45.0089C45.8474 45.4103 45.6072 45.9238 45.6072 46.5496C45.6072 47.1753 45.8474 47.6889 46.3279 48.0903C46.8188 48.5035 47.4194 48.7102 48.1297 48.7102C48.8295 48.7102 49.4249 48.5035 49.9159 48.0903Z" fill="white"/>
</svg>
