<svg width="18" height="25" viewBox="0 0 18 25" fill="none" xmlns="http://www.w3.org/2000/svg">
<path d="M16.3227 21.5008C15.4482 22.8234 14.5437 24.1378 13.1156 24.1654C11.71 24.193 11.2595 23.3043 9.65563 23.3043C8.05011 23.3043 7.54787 24.1378 6.22082 24.193C4.8421 24.2463 3.79373 22.7645 2.91207 21.4478C1.11087 18.7557 -0.263879 13.8359 1.58501 10.5158C2.50058 8.86691 4.14117 7.82366 5.91899 7.79612C7.27297 7.77035 8.55204 8.74026 9.37904 8.74026C10.2073 8.74026 11.7598 7.57577 13.3919 7.74657C14.0751 7.77576 15.9926 8.0313 17.224 9.89497C17.1267 9.96113 14.9353 11.2798 14.962 14.027C14.9888 17.3086 17.7423 18.3994 17.7743 18.4143C17.7494 18.4914 17.3341 19.9715 16.3227 21.5008ZM9.53134 2.50271C10.2905 1.55174 11.5733 0.844403 12.6319 0.796875C12.7672 2.11783 12.27 3.4406 11.5358 4.39377C10.8 5.34523 9.59569 6.0864 8.41374 5.98744C8.25313 4.69508 8.84886 3.34725 9.53134 2.50271Z" fill="white"/>
</svg>
