<svg width="30" height="30" viewBox="0 0 30 30" fill="none" xmlns="http://www.w3.org/2000/svg">
<path fill-rule="evenodd" clip-rule="evenodd" d="M15 30C6.71573 30 0 23.2843 0 15C0 6.71573 6.71573 0 15 0C23.2843 0 30 6.71573 30 15C30 18.9782 28.4196 22.7936 25.6066 25.6066C22.7936 28.4196 18.9782 30 15 30ZM14.9993 2.72837C8.22125 2.72837 2.72656 8.22306 2.72656 15.0011C2.72656 21.7791 8.22125 27.2738 14.9993 27.2738C21.7773 27.2738 27.272 21.7791 27.272 15.0011C27.272 8.22306 21.7773 2.72837 14.9993 2.72837ZM15.0043 20.4512C14.2511 20.4512 13.6406 21.0617 13.6406 21.8148C13.6406 22.5679 14.2511 23.1784 15.0043 23.1784C15.7574 23.1784 16.3679 22.5679 16.3679 21.8148C16.3679 21.0617 15.7574 20.4512 15.0043 20.4512ZM16.3679 17.7261V8.18069C16.3679 7.42757 15.7574 6.81705 15.0043 6.81705C14.2511 6.81705 13.6406 7.42757 13.6406 8.18069V17.7261C13.6406 18.4793 14.2511 19.0898 15.0043 19.0898C15.7574 19.0898 16.3679 18.4793 16.3679 17.7261Z" fill="#33C95A"/>
</svg>
