<svg width="16" height="15" viewBox="0 0 16 15" fill="none" xmlns="http://www.w3.org/2000/svg">
<path fill-rule="evenodd" clip-rule="evenodd" d="M7.71162 15C6.25426 14.9976 4.82771 14.5918 3.59877 13.83L0.339335 14.83L1.38811 11.785C0.480935 10.5307 -0.00402671 9.03363 2.51849e-05 7.50009C2.51849e-05 4.46667 1.8789 1.73195 4.76052 0.571112C7.64215 -0.589724 10.959 0.0519326 13.1645 2.19688C15.37 4.34183 16.0298 7.56765 14.8362 10.3702C13.6426 13.1727 10.8307 15 7.71162 15ZM3.74702 12.7445L4.04521 12.9395C6.93384 14.7858 10.7935 14.1853 12.9457 11.5547C15.0979 8.92415 14.8325 5.13153 12.3336 2.80881C9.83473 0.486089 5.92703 0.39974 3.32228 2.60969C0.717517 4.81963 0.275248 8.59661 2.30238 11.3196L2.52859 11.6246L1.95279 13.3045L3.74702 12.7445ZM12.0449 10.4987C11.7363 11.0253 11.2034 11.3916 10.59 11.4987C10.1993 11.5787 9.69034 11.6437 7.9835 10.9537C5.79855 10.0738 4.38476 7.9138 4.28194 7.7738C3.78021 7.14596 3.47501 6.39089 3.40282 5.59884C3.38499 4.93418 3.65998 4.29379 4.15855 3.83887C4.3692 3.66166 4.64111 3.56875 4.91943 3.57887H5.17134C5.38727 3.57887 5.49523 3.57887 5.63918 3.93387C5.81912 4.35386 6.25611 5.39384 6.30752 5.49884C6.38404 5.6154 6.39747 5.76088 6.3435 5.88883C6.28027 6.0114 6.19885 6.12427 6.10187 6.22383C5.98877 6.34382 5.88595 6.43882 5.77799 6.57382C5.63152 6.67801 5.5933 6.87484 5.69059 7.02381C6.01381 7.571 6.41929 8.06815 6.8936 8.49879C7.4022 8.95259 7.99557 9.30733 8.64156 9.54377C8.81335 9.62376 9.01812 9.5919 9.15567 9.46377C9.37587 9.22324 9.58021 8.96941 9.76745 8.70378C9.8782 8.5386 10.0942 8.47349 10.2816 8.54879C10.4821 8.61878 11.5463 9.12877 11.7622 9.23377C11.9781 9.33877 12.1272 9.38877 12.1786 9.47877C12.2361 9.82419 12.1897 10.1784 12.0449 10.4987Z" fill="#05BE50"/>
</svg>
