<svg width="18" height="18" viewBox="0 0 18 18" fill="none" xmlns="http://www.w3.org/2000/svg">
<path fill-rule="evenodd" clip-rule="evenodd" d="M9.00003 17.4377C7.40549 17.4351 5.84465 16.9786 4.50003 16.1215L0.933778 17.2465L2.08128 13.8209C1.08871 12.4097 0.558094 10.7255 0.562528 9.00025C0.562528 5.5876 2.61826 2.51098 5.77114 1.20501C8.92401 -0.100952 12.5531 0.620925 14.9662 3.03403C17.3793 5.44714 18.1012 9.07626 16.7953 12.2291C15.4893 15.382 12.4127 17.4377 9.00003 17.4377ZM4.66313 14.8952L4.98938 15.1146C8.14993 17.1918 12.3729 16.5162 14.7277 13.5567C17.0825 10.5972 16.7921 6.33047 14.058 3.71736C11.3239 1.10425 7.04835 1.00711 4.1984 3.49334C1.34845 5.97958 0.864553 10.2288 3.08251 13.2921L3.33001 13.6352L2.70001 15.5252L4.66313 14.8952ZM13.7419 12.3752C13.4042 12.9676 12.8211 13.3797 12.15 13.5002C11.7225 13.5902 11.1656 13.6634 9.29813 12.8871C6.90751 11.8971 5.36063 9.46712 5.24813 9.30962C4.69917 8.6033 4.36524 7.75382 4.28626 6.86275C4.26675 6.115 4.56762 5.39454 5.11313 4.88275C5.3436 4.68339 5.64111 4.57886 5.94563 4.59025H6.22126C6.45751 4.59025 6.57563 4.59025 6.73313 4.98962C6.93001 5.46212 7.40813 6.63212 7.46438 6.75025C7.54811 6.88138 7.5628 7.04505 7.50376 7.189C7.43457 7.32689 7.34549 7.45387 7.23938 7.56587C7.11563 7.70087 7.00313 7.80775 6.88501 7.95962C6.72476 8.07684 6.68293 8.29828 6.78938 8.46587C7.14303 9.08147 7.58668 9.64077 8.10563 10.1252C8.66211 10.6358 9.31133 11.0349 10.0181 11.3009C10.2061 11.3909 10.4301 11.355 10.5806 11.2109C10.8216 10.9403 11.0451 10.6547 11.25 10.3559C11.3712 10.17 11.6075 10.0968 11.8125 10.1815C12.0319 10.2602 13.1963 10.834 13.4325 10.9521C13.6688 11.0702 13.8319 11.1265 13.8881 11.2277C13.951 11.6163 13.9002 12.0148 13.7419 12.3752Z" fill="white"/>
</svg>
